<svg xmlns="http://www.w3.org/2000/svg" viewBox="0 0 363.02 204.95"><defs><style>.cls-1{fill:#dcd916;}.cls-2{fill:#db921a;}.cls-3{fill:#c95226;}.cls-4{fill:#213380;}.cls-5{fill:#82c435;}.cls-6{fill:#e6b142;}.cls-7{fill:#11579b;}.cls-8{fill:#a1bc30;}.cls-9{fill:#316335;}.cls-10{fill:#1c7dba;}.cls-11{fill:#eba800;}.cls-12{fill:#4f93c1;}.cls-13{fill:#fff;}</style></defs><title>brand</title><g id="Capa_2" data-name="Capa 2"><g id="Capa_1-2" data-name="Capa 1"><path class="cls-1" d="M40.4,41.78S57,56.56,71.3,68.12a47.35,47.35,0,0,0-6.22,9.5C53,71.85,40.81,66.31,28.7,60.58,30.65,56.32,40.4,41.78,40.4,41.78Z"/><path class="cls-2" d="M29.34,5.91c1.79,2,15.44,19,17.12,21l3.81,4.64C59.05,42,68,52.35,76.6,63a49,49,0,0,0-5.3,5.12C57,56.56,27.31,31.24,13.13,19.58,14.51,18.11,27.77,7.32,29.34,5.91Z"/><path class="cls-3" d="M62.85,8.12A89.36,89.36,0,0,1,87.8.21c.29,4.56,1.38,9,2,13.52,2.24,13.22,5,26.37,6.79,39.66a60.32,60.32,0,0,0-10.8,3.38C80,44.53,74.33,32.26,68.58,20c-1.12-2.39-2.23-4.77-3.37-7.16-.74-1.6-1.54-3.17-2.36-4.72Z"/><path class="cls-4" d="M158.14,2.43s11.07,6.8,16.31,10.45q-7.89,9.4-15.83,18.77C149.87,42,141,52.23,132.57,62.89a44.46,44.46,0,0,0-10.08-6.42c6-12,17.19-36.21,17.19-36.21L151.2,0s1.11.15,6.94,2.43Z"/><path class="cls-5" d="M89.84,13.72a108.43,108.43,0,0,1,21.62-1c-1.17,11.52-1.73,23.08-3.13,34.58a7.52,7.52,0,0,0,1.16,5.71,50,50,0,0,0-12.86.33c-1.82-13.29-4.56-26.44-6.79-39.66Z"/><path class="cls-6" d="M68.58,20C74.33,32.26,80,44.53,85.82,56.77A51.57,51.57,0,0,0,76.6,63C68,52.35,59.05,42,50.26,31.57c6-4,12.22-7.69,18.32-11.57Z"/><path class="cls-7" d="M132.57,62.89C141,52.23,149.87,42,158.62,31.65l-.16.59A85.65,85.65,0,0,1,176.8,54.36c-11.57,6.57-23,13.44-34.66,19.83a45.46,45.46,0,0,0-9.57-11.3Z"/><path class="cls-8" d="M16.64,55.37l2,.67c3.44,1.36,6.7,3.08,10.1,4.54,12.1,5.73,24.29,11.27,36.37,17a48.35,48.35,0,0,0-3.37,11c-13.22-2.53-26.54-4.5-39.78-6.94-4.3-.68-8.56-1.49-12.83-2.3a124.5,124.5,0,0,1,7.54-24Z"/><path class="cls-9" d="M21.93,81.7c13.24,2.43,26.55,4.4,39.78,6.94A55.25,55.25,0,0,0,62,105.3c-.13-.47-.41-1.41-.54-1.89C48.23,105.27,35.16,108,22,110.18a83.71,83.71,0,0,1-.06-28.48Z"/><path class="cls-7" d="M22,110.18c13.17-2.15,26.24-4.91,39.45-6.78.13.48.41,1.42.54,1.89a53.79,53.79,0,0,0,3.07,9.22c-17.39,7.77-34.56,16-51.81,24.05-1.72.7-3.49,1.26-5.22,1.91-1.5-3.51-4.25-10.63-4.25-10.63l-1.55-4.22S.49,117.89,0,114c.38,0,1.11-.16,1.48-.21,6.88-.95,13.66-2.48,20.52-3.56Z"/><path class="cls-10" d="M29.22,131.07S53,119.89,65.05,114.52a45.22,45.22,0,0,0,8.47,12.1Q59.31,140.71,45.26,155c-5.13-5.2-13.44-17.25-13.44-17.25Z"/><path class="cls-11" d="M142.28,117.78c11.68,6.06,22.83,13.13,34.37,19.44-5.53,10.83-14.47,19.5-24,26.81q-11.38-16.24-22.78-32.44a48.33,48.33,0,0,0,10.24-10.4c.76-1.11,1.47-2.28,2.21-3.4Z"/><path class="cls-4" d="M45.26,155S64,136,73.52,126.62A47.55,47.55,0,0,0,86,135.57c-6,11.75-11.33,23.84-16.9,35.8-1.89,4-3.76,7.94-5.7,11.88-1.88-1-15-8.21-15-8.21l-11.9-8s2.09-3.89,8.72-12.12Z"/><path class="cls-8" d="M118.62,137.28a43.28,43.28,0,0,0,11.21-5.7q11.38,16.2,22.78,32.44c1.39,2,2.79,3.9,4.18,5.87-2.79,1.87-8.5,5.34-8.5,5.34l-3.92,2s-6,2.7-9.1,3.74c-.86-2.29-1.72-4.57-2.56-6.86-3-8.88-6.51-17.58-9.62-26.42-1.32-3.55-2.2-7.35-4.47-10.46Z"/><path class="cls-3" d="M86,135.57a45,45,0,0,0,22.43,3.8c-.23,7.67,1.74,15.16,2.15,22.8.15,5.58,1.83,11.33-.05,16.79a89.06,89.06,0,0,1-41.42-7.58c5.57-12,10.88-24.06,16.9-35.8Z"/><path class="cls-6" d="M118.62,137.28c2.27,3.11,3.15,6.9,4.47,10.46,3.11,8.84,6.6,17.54,9.62,26.42A89.72,89.72,0,0,1,119,177.63c-3.2-12.71-4.7-25.76-7.08-38.64a65.71,65.71,0,0,0,6.71-1.71Z"/><path class="cls-2" d="M108.45,139.37l3.46-.38c2.38,12.88,3.88,25.93,7.08,38.64.78,4.89,1.51,9.79,2.5,14.65.75,3.76,1.37,7.52,1.87,11.32l-2.56,1.28-4.34.07h-2.72c-.27-2.65-.57-5.28-.76-7.93-.33-6-1-12-1.53-18l-.9,0c1.89-5.46.21-11.21.05-16.79-.4-7.64-2.38-15.12-2.15-22.8Z"/><path class="cls-12" d="M108.08,52.74c.47-13.55,1.62-27.08,2.58-40.6l2.16-3.33a92.05,92.05,0,0,1,29,7C136.35,28,128.13,44.16,122.48,56.21a45.55,45.55,0,0,0-14.4-3.47Z"/><path class="cls-13" d="M110.74,110.29a7.45,7.45,0,0,1-1.28,1.43,9.27,9.27,0,0,1-2.16,1.36,16.06,16.06,0,0,1-2.51.9,17.81,17.81,0,0,1-2.61.5,21.7,21.7,0,0,1-2.46.15,18.11,18.11,0,0,1-8.36-1.91,16.21,16.21,0,0,1-6.15-5.47,20.68,20.68,0,0,1-2.53-5.17,18.42,18.42,0,0,1-.93-5.82,20.16,20.16,0,0,1,1.13-6.73,17.91,17.91,0,0,1,3.21-5.67,17.49,17.49,0,0,1,5-4,16.63,16.63,0,0,1,6.45-1.93,3,3,0,0,1,.56,0h.55a15.76,15.76,0,0,1,3.14.35,24.71,24.71,0,0,1,3.34.94,22.48,22.48,0,0,1,3.12,1.39,15.11,15.11,0,0,1,2.51,1.68l-2.81,5.64a16.82,16.82,0,0,0-3.69-2.26,10.53,10.53,0,0,0-4.29-.85,8.19,8.19,0,0,0-1.61.15,10.53,10.53,0,0,0-3.64,1.41A10,10,0,0,0,92,88.75a10.94,10.94,0,0,0-1.68,3.36,13.35,13.35,0,0,0-.58,3.94,15.45,15.45,0,0,0,.58,4.24,10.69,10.69,0,0,0,1.75,3.59,9,9,0,0,0,3,2.51,8.64,8.64,0,0,0,4.14,1A9.82,9.82,0,0,0,102,107a21.09,21.09,0,0,0,2.31-.83l1.91-.83a4.07,4.07,0,0,1,1.66-.37,3.39,3.39,0,0,1,2.46,1,3.47,3.47,0,0,1,.42,4.37Z"/><path class="cls-13" d="M119.52,109.26a19,19,0,0,1-3.62-5.92,20,20,0,0,1,0-14.21,18.5,18.5,0,0,1,3.64-5.9,17.6,17.6,0,0,1,5.55-4,17.27,17.27,0,0,1,14.11,0,17.19,17.19,0,0,1,5.52,4.06,18.69,18.69,0,0,1,3.59,5.92,20.25,20.25,0,0,1,0,14.16,18.43,18.43,0,0,1-3.62,5.92,17.44,17.44,0,0,1-5.55,4.07,16.33,16.33,0,0,1-7,1.51M141,92.12a12.06,12.06,0,0,0-1.71-3.82,8.8,8.8,0,0,0-3-2.71,8.45,8.45,0,0,0-4.27-1,8,8,0,0,0-4.11,1A9.1,9.1,0,0,0,125,88.28a11.68,11.68,0,0,0-1.7,3.71,15.92,15.92,0,0,0,0,8.33A11.7,11.7,0,0,0,125,104a9.16,9.16,0,0,0,2.91,2.69,8,8,0,0,0,4.11,1,8.45,8.45,0,0,0,4.15-1,9.08,9.08,0,0,0,3-2.56,11.28,11.28,0,0,0,1.78-3.61,14.65,14.65,0,0,0,.6-4.19A17,17,0,0,0,141,92.12Z"/><path class="cls-13" d="M185.84,113.63a3.87,3.87,0,0,1-2.86,1.15,4,4,0,0,1-1.73-.4,3.94,3.94,0,0,1-1.38-1.1L163.56,91.14v23.19h-8V81.8a4,4,0,0,1,1.16-2.86,3.8,3.8,0,0,1,2.86-1.2,3.59,3.59,0,0,1,1.88.53A5.11,5.11,0,0,1,163,79.59L179,101.18V81.85a3.87,3.87,0,0,1,.33-1.56A4.42,4.42,0,0,1,180.2,79a3.94,3.94,0,0,1,1.25-.88,3.72,3.72,0,0,1,1.53-.33A4,4,0,0,1,185.82,79a4.55,4.55,0,0,1,.85,1.28A3.72,3.72,0,0,1,187,81.8v29A3.82,3.82,0,0,1,185.84,113.63Z"/><path class="cls-13" d="M197.26,114a4.29,4.29,0,0,1-1.25-.9,4,4,0,0,1-.83-1.3,4.08,4.08,0,0,1-.3-1.56V78.14l1.58,0c1,0,2,0,3.13,0h12.5a3.3,3.3,0,0,1,2.46,1,3.52,3.52,0,0,1-2.51,6h-9.19v7.63H211a3.64,3.64,0,0,1,1.48.3,4.56,4.56,0,0,1,1.23.8,3,3,0,0,1,1,2.34,3.18,3.18,0,0,1-1.08,2.47,3.67,3.67,0,0,1-2.54,1h-8.28v7.58h13.35v7H198.84A3.59,3.59,0,0,1,197.26,114Z"/><path class="cls-13" d="M250.84,110.29a7.52,7.52,0,0,1-1.28,1.43,9.31,9.31,0,0,1-2.16,1.36,16,16,0,0,1-2.51.9,17.8,17.8,0,0,1-2.61.5,21.76,21.76,0,0,1-2.46.15,18.09,18.09,0,0,1-8.36-1.91,16.21,16.21,0,0,1-6.15-5.47,20.65,20.65,0,0,1-2.53-5.17,18.4,18.4,0,0,1-.93-5.82A20.11,20.11,0,0,1,223,89.53a17.8,17.8,0,0,1,3.21-5.67,17.43,17.43,0,0,1,5-4,16.62,16.62,0,0,1,6.45-1.93,3,3,0,0,1,.55,0h.55a15.77,15.77,0,0,1,3.14.35,24.85,24.85,0,0,1,3.33.94,22.52,22.52,0,0,1,3.11,1.39,14.79,14.79,0,0,1,2.51,1.68L248,87.83a16.75,16.75,0,0,0-3.69-2.26,10.53,10.53,0,0,0-4.29-.85,8.15,8.15,0,0,0-1.61.15,10.51,10.51,0,0,0-3.64,1.41,10,10,0,0,0-2.69,2.49,10.81,10.81,0,0,0-1.68,3.36,13.23,13.23,0,0,0-.58,3.94,15.31,15.31,0,0,0,.58,4.24,10.69,10.69,0,0,0,1.75,3.59,9,9,0,0,0,3,2.51,8.65,8.65,0,0,0,4.14,1,9.81,9.81,0,0,0,2.81-.37,20.78,20.78,0,0,0,2.31-.83l1.91-.83a4.06,4.06,0,0,1,1.66-.37,3.39,3.39,0,0,1,2.46,1,3.25,3.25,0,0,1,1,2.44A3.3,3.3,0,0,1,250.84,110.29Z"/><path class="cls-13" d="M278.35,84.19a3.5,3.5,0,0,1-2.46,1h-5.62v25.6a4,4,0,0,1-7.93,0V85.16h-7.93l0-7h21.53a3.32,3.32,0,0,1,2.51,1.06,3.51,3.51,0,0,1,1,2.51A3.18,3.18,0,0,1,278.35,84.19Z"/><path class="cls-13" d="M303.11,115.18l-2.45-7.38H286.25c-.1.3-.27.76-.53,1.38s-.53,1.26-.83,1.91-.61,1.25-.93,1.78a2.29,2.29,0,0,1-.83.95,3.36,3.36,0,0,1-1,.76,2.73,2.73,0,0,1-1.28.3,4,4,0,0,1-2.79-1.08,3.57,3.57,0,0,1-1.18-2.74A4.66,4.66,0,0,1,277,110a7.58,7.58,0,0,1,.33-1l10.09-26.6a8.07,8.07,0,0,1,2.21-3.24,5.33,5.33,0,0,1,3.66-1.28A5.79,5.79,0,0,1,297.14,79a7.8,7.8,0,0,1,2.26,3.31l11.54,30.77Zm-9.69-29-4.92,14.71h9.79Z"/><path class="cls-13" d="M332.85,84.19a3.5,3.5,0,0,1-2.46,1h-5.62v25.6a4,4,0,0,1-7.93,0V85.16H308.9l-.05-7h21.54a3.32,3.32,0,0,1,2.51,1.06,3.51,3.51,0,0,1,1,2.51A3.19,3.19,0,0,1,332.85,84.19Z"/><path class="cls-13" d="M341.77,114a4.25,4.25,0,0,1-1.25-.9,4.06,4.06,0,0,1-.83-1.3,4.19,4.19,0,0,1-.3-1.56V78.14l1.58,0c1,0,2,0,3.13,0h12.5a3.31,3.31,0,0,1,2.46,1,3.43,3.43,0,0,1,1,2.48,3.51,3.51,0,0,1-3.51,3.51h-9.19v7.63h8.18a3.64,3.64,0,0,1,1.48.3,4.66,4.66,0,0,1,1.23.8,3,3,0,0,1,1,2.34,3.18,3.18,0,0,1-1.08,2.47,3.66,3.66,0,0,1-2.54,1h-8.28v7.58h13.35v7H343.35A3.61,3.61,0,0,1,341.77,114Z"/><path class="cls-13" d="M204.47,123.39a8.35,8.35,0,0,1,2.84.44q1.76.64,1.76,2a1.53,1.53,0,0,1-.37,1,1.19,1.19,0,0,1-.95.44,4.11,4.11,0,0,1-1.21-.22,9.56,9.56,0,0,0-2.07-.51,3.54,3.54,0,0,0-3,1.5,5.48,5.48,0,0,0-1,3.33,5.08,5.08,0,0,0,1,3.31,3.95,3.95,0,0,0,4.43,1.13,11.8,11.8,0,0,1,1.94-.64,1.28,1.28,0,0,1,1,.46,1.51,1.51,0,0,1,.42,1q0,1.39-1.81,2a8.65,8.65,0,0,1-3,.48,6.83,6.83,0,0,1-5.36-2.33,8.77,8.77,0,0,1,0-11.11A6.83,6.83,0,0,1,204.47,123.39Z"/><path class="cls-13" d="M210.78,131.3a8,8,0,0,1,2-5.55,7.28,7.28,0,0,1,10.69,0,8.69,8.69,0,0,1,0,11.11,7.31,7.31,0,0,1-10.71,0A8,8,0,0,1,210.78,131.3Zm11.33,0a5.62,5.62,0,0,0-1-3.35,3.74,3.74,0,0,0-6,0,5.72,5.72,0,0,0-.95,3.37,5.78,5.78,0,0,0,.93,3.39,3.82,3.82,0,0,0,6.08,0A5.66,5.66,0,0,0,222.11,131.28Z"/><path class="cls-13" d="M227.24,125.2a1.72,1.72,0,0,1,.43-1.2,1.51,1.51,0,0,1,1.18-.48,1.6,1.6,0,0,1,1.37.71l6.72,9,0-8a1.75,1.75,0,0,1,.43-1.22,1.7,1.7,0,0,1,2.36,0,1.68,1.68,0,0,1,.45,1.2v12.16a1.76,1.76,0,0,1-.43,1.22,1.54,1.54,0,0,1-1.2.47,1.57,1.57,0,0,1-.75-.2,1.78,1.78,0,0,1-.62-.53l-6.7-8.9-.07,7.95a1.76,1.76,0,0,1-.42,1.22,1.52,1.52,0,0,1-1.19.46,1.55,1.55,0,0,1-1.18-.45,1.72,1.72,0,0,1-.43-1.23Z"/><path class="cls-13" d="M248.91,125.2a1.77,1.77,0,0,1,.43-1.22,1.53,1.53,0,0,1,1.19-.47,1.48,1.48,0,0,1,1.16.49,1.74,1.74,0,0,1,.44,1.21v10.71l1-.08q1-.08,1.52-.08a4.77,4.77,0,0,1,1.94.31,1.45,1.45,0,0,1,.88,1.41,1.3,1.3,0,0,1-.47,1,1.56,1.56,0,0,1-1.07.42h-5.33a1.57,1.57,0,0,1-1.22-.5,1.84,1.84,0,0,1-.45-1.29Z"/><path class="cls-13" d="M264.42,123.39a2.11,2.11,0,0,1,1.39.5,3,3,0,0,1,.88,1.29l1.37,3.69q1.24,3.38,2,5.5a22.14,22.14,0,0,1,1,3.27,1.35,1.35,0,0,1-.44,1,1.48,1.48,0,0,1-1.06.42A1.67,1.67,0,0,1,268,138q-.42-1.42-.62-2h-5.91c-.21.68-.4,1.35-.6,2a1.67,1.67,0,0,1-1.59,1.13,1.56,1.56,0,0,1-1.11-.45,1.46,1.46,0,0,1-.47-1.1,23.89,23.89,0,0,1,1-3.13q1-2.82,2-5.54.69-1.83,1.39-3.66a3.08,3.08,0,0,1,.86-1.26A2.22,2.22,0,0,1,264.42,123.39Zm-2,9.52h4l-2-6.11Z"/><path class="cls-13" d="M279,125.53a2.09,2.09,0,0,1,.43-1.36,1.49,1.49,0,0,1,1.24-.54h5.29a1.54,1.54,0,0,1,1.1.4,1.45,1.45,0,0,1,.42,1.1,1.36,1.36,0,0,1-.88,1.32,4.83,4.83,0,0,1-1.94.31c-.35,0-.81,0-1.39-.07l-1-.07,0,3.09.68,0c.93-.07,1.47-.11,1.63-.11a4.88,4.88,0,0,1,1.9.29,1.46,1.46,0,0,1,0,2.67,4.67,4.67,0,0,1-1.9.31c-.34,0-.78,0-1.31-.07l-1-.07v3.2l1.36-.1c.44,0,.84-.05,1.23-.05a5.09,5.09,0,0,1,2,.29,1.39,1.39,0,0,1,.91,1.37,1.42,1.42,0,0,1-.44,1.08,1.53,1.53,0,0,1-1.1.42h-5.47a1.65,1.65,0,0,1-1.19-.46,1.54,1.54,0,0,1-.49-1.17Z"/><path class="cls-13" d="M298.43,125.55a1.63,1.63,0,0,1-.42,1.1,1.34,1.34,0,0,1-1.06.48,5.08,5.08,0,0,1-1.49-.32,5.07,5.07,0,0,0-1.42-.32,1.83,1.83,0,0,0-1.13.37,1.19,1.19,0,0,0-.49,1q0,.73,1.83,1.32a16.39,16.39,0,0,1,3.44,1.41,4.08,4.08,0,0,1,1.85,3.59,4.5,4.5,0,0,1-1.69,3.66,5.91,5.91,0,0,1-3.88,1.3,10.4,10.4,0,0,1-3.1-.4q-2-.62-2-2a1.61,1.61,0,0,1,.38-1.11,1.32,1.32,0,0,1,1-.43,4.61,4.61,0,0,1,1.38.26,10.17,10.17,0,0,0,2.3.57,2.15,2.15,0,0,0,1.42-.5,1.65,1.65,0,0,0,.59-1.33q0-.86-1.83-1.48a26.36,26.36,0,0,1-3.44-1.3,3.49,3.49,0,0,1-1.85-3.17,4.45,4.45,0,0,1,1.55-3.52,5.51,5.51,0,0,1,3.76-1.36,6.37,6.37,0,0,1,3.2.73A1.66,1.66,0,0,1,298.43,125.55Z"/><path class="cls-13" d="M308.27,123.39a8.33,8.33,0,0,1,2.84.44q1.76.64,1.76,2a1.52,1.52,0,0,1-.37,1,1.19,1.19,0,0,1-.95.44,4.13,4.13,0,0,1-1.21-.22,9.55,9.55,0,0,0-2.07-.51,3.55,3.55,0,0,0-3,1.5,5.48,5.48,0,0,0-1,3.33,5.09,5.09,0,0,0,1,3.31,3.95,3.95,0,0,0,4.43,1.13,11.85,11.85,0,0,1,1.94-.64,1.28,1.28,0,0,1,1,.46,1.51,1.51,0,0,1,.42,1q0,1.39-1.81,2a8.64,8.64,0,0,1-3,.48,6.83,6.83,0,0,1-5.36-2.33,8.77,8.77,0,0,1,0-11.11A6.83,6.83,0,0,1,308.27,123.39Z"/><path class="cls-13" d="M315,125.2a1.71,1.71,0,0,1,.43-1.2,1.51,1.51,0,0,1,1.18-.47,1.44,1.44,0,0,1,1.43.95,6.87,6.87,0,0,1,.31,2.4c0,.44,0,1.17-.09,2.18s-.09,1.78-.09,2.29a7.42,7.42,0,0,0,.6,3.39,2.81,2.81,0,0,0,2.71,1.43,2.76,2.76,0,0,0,2.73-1.57,8.9,8.9,0,0,0,.57-3.68q0-.86-.08-2.35c-.05-1-.08-1.6-.08-1.82a6.23,6.23,0,0,1,.31-2.31,1.43,1.43,0,0,1,1.43-.93,1.53,1.53,0,0,1,1.16.47,1.68,1.68,0,0,1,.45,1.2v7.65a6,6,0,0,1-1.91,4.49,6.76,6.76,0,0,1-9.2,0,6,6,0,0,1-1.87-4.53Z"/><path class="cls-13" d="M330.37,125.53a2.09,2.09,0,0,1,.43-1.36,1.49,1.49,0,0,1,1.24-.54h5.29a1.54,1.54,0,0,1,1.1.4,1.45,1.45,0,0,1,.42,1.1,1.36,1.36,0,0,1-.88,1.32,4.83,4.83,0,0,1-1.94.31c-.35,0-.81,0-1.39-.07l-1-.07,0,3.09.68,0c.93-.07,1.47-.11,1.63-.11a4.88,4.88,0,0,1,1.9.29,1.46,1.46,0,0,1,0,2.67,4.67,4.67,0,0,1-1.9.31c-.34,0-.78,0-1.31-.07l-1-.07v3.2l1.36-.1c.44,0,.84-.05,1.23-.05a5.09,5.09,0,0,1,2,.29,1.39,1.39,0,0,1,.91,1.37,1.42,1.42,0,0,1-.44,1.08,1.53,1.53,0,0,1-1.1.42H332a1.65,1.65,0,0,1-1.19-.46,1.54,1.54,0,0,1-.49-1.17Z"/><path class="cls-13" d="M340.86,125.2a1.77,1.77,0,0,1,.43-1.22,1.53,1.53,0,0,1,1.19-.47,1.49,1.49,0,0,1,1.16.49,1.75,1.75,0,0,1,.44,1.21v10.71l1-.08q1-.08,1.52-.08a4.76,4.76,0,0,1,1.94.31,1.45,1.45,0,0,1,.88,1.41,1.3,1.3,0,0,1-.47,1,1.56,1.56,0,0,1-1.07.42h-5.33a1.57,1.57,0,0,1-1.22-.5,1.84,1.84,0,0,1-.45-1.29Z"/><path class="cls-13" d="M356.38,123.39a2.11,2.11,0,0,1,1.39.5,3,3,0,0,1,.88,1.29l1.37,3.69q1.23,3.38,2,5.5a22,22,0,0,1,1,3.27,1.35,1.35,0,0,1-.44,1,1.48,1.48,0,0,1-1.06.42,1.67,1.67,0,0,1-1.59-1.11q-.42-1.42-.62-2H353.4c-.2.68-.4,1.35-.6,2a1.67,1.67,0,0,1-1.59,1.13,1.56,1.56,0,0,1-1.11-.45,1.46,1.46,0,0,1-.47-1.1,23.9,23.9,0,0,1,1-3.13q1-2.82,2-5.54.68-1.83,1.39-3.66a3.06,3.06,0,0,1,.86-1.26A2.21,2.21,0,0,1,356.38,123.39Zm-2.05,9.52h4l-2-6.11Z"/></g></g></svg>