<svg xmlns="http://www.w3.org/2000/svg" viewBox="0 0 793.25 551.61"><defs><style>.cls-1{fill:#dc931a;}.cls-2{fill:#316335;}.cls-3{fill:#6ba53a;}.cls-4{fill:#213480;}.cls-5{fill:#ca5227;}.cls-6{fill:#a2bd30;}.cls-7{fill:#69a8d9;}.cls-8{fill:#15579c;}.cls-9{fill:#e7b242;}.cls-10{fill:#009cdd;}.cls-11{fill:#1f7ebb;}.cls-12{fill:#ddda16;}</style></defs><title>chispas</title><g id="Capa_2" data-name="Capa 2"><g id="Capa_1-2" data-name="Capa 1"><path class="cls-1" d="M47.43,39.13c.57.47,5,4.63,5.57,5.13l1.24,1.13c2.85,2.54,5.74,5,8.53,7.64a13.77,13.77,0,0,0-1.26,1.63c-4.4-2.63-13.63-8.44-18-11.11C43.81,43.09,47,39.58,47.43,39.13Z"/><path class="cls-2" d="M113.82,48.76a25,25,0,0,1,5.8,4.45c-1,.79-1.84,1.75-2.77,2.62-2.67,2.62-5.25,5.35-8,7.89a16.9,16.9,0,0,0-2.5-1.94c1.88-3.28,3.78-6.55,5.67-9.82l1.1-1.91c.25-.43.48-.86.71-1.29Z"/><path class="cls-3" d="M188.73,61.36s3.33,1.44,4.93,2.24q-1.81,2.91-3.63,5.82c-2,3.21-4.06,6.39-6,9.67a12.39,12.39,0,0,0-3-1.37C182.2,74.17,184.33,67,184.33,67L186.71,61a13.5,13.5,0,0,1,2,.4Z"/><path class="cls-4" d="M54.25,70.34a30.26,30.26,0,0,1-.71,6c-3.12-.84-6.28-1.52-9.39-2.42a2.1,2.1,0,0,0-1.63.06A14,14,0,0,0,43,70.42c3.75.1,7.49-.06,11.24-.08Z"/><path class="cls-5" d="M116.69,90.6c-1.41,3.51-2.83,7-4.23,10.52a14.45,14.45,0,0,0-3-.7c.54-3.78.95-7.58,1.41-11.37,2,.46,3.9,1,5.85,1.54Z"/><path class="cls-6" d="M75.52,97.57c-3.66-1-7.28-2.12-10.9-3.21l.17,0a23.92,23.92,0,0,1,3.63-7.16c3,2.24,6,4.4,8.93,6.68a12.68,12.68,0,0,0-1.83,3.71Z"/><path class="cls-7" d="M203.54,94.43l-.17.56c-.34,1-.79,1.9-1.16,2.87-1.48,3.44-2.9,6.89-4.39,10.32a13.53,13.53,0,0,0-3.11-.83c.57-3.72,1-7.45,1.54-11.17.15-1.21.33-2.41.51-3.61a34.76,34.76,0,0,1,6.78,1.86Z"/><path class="cls-8" d="M77.25,136.81c1-3.58,1.93-7.2,3.06-10.75l.54.09a15.21,15.21,0,0,0,2.69.34c-.15,5.32-.15,10.64-.2,16,0,.52-.1,1-.15,1.55-1.07,0-3.19-.22-3.19-.22l-1.25-.12s-2.16-.5-3.21-.85l.13-.4c.59-1.85,1-3.74,1.58-5.6Z"/><path class="cls-9" d="M137.36,124.74c-2.83,2.34-5.86,4.44-8.74,6.72a22.77,22.77,0,0,1-4.28-9.1L135.16,120a13.53,13.53,0,0,0,1.56,3.77c.2.32.43.63.63.94Z"/><path class="cls-8" d="M148,32s4.44-6,6.69-9a13.28,13.28,0,0,0,3.81,2c-1.2,3.49-2.18,7-3.25,10.57-.36,1.17-.72,2.34-1.1,3.51-.56-.19-4.47-1.67-4.47-1.67l-3.61-1.73A25.7,25.7,0,0,1,148,32Z"/><path class="cls-6" d="M20.34,101.68a12.08,12.08,0,0,0,2.87-2l7.59,8.06,1.39,1.46c-.7.63-2.14,1.82-2.14,1.82l-1,.72s-1.55,1-2.37,1.4l-1-1.79c-1.19-2.34-2.5-4.6-3.71-6.92a11.56,11.56,0,0,0-1.65-2.71Z"/><path class="cls-9" d="M173.59,114.56a11.54,11.54,0,0,1-1.42,2.84c-1.32,2.26-2.54,4.57-3.89,6.82a25.16,25.16,0,0,1-3.22-2.3c2.13-3,4.64-5.65,7-8.48a18.46,18.46,0,0,0,1.58,1.12Z"/><path class="cls-8" d="M144.21,78.87l.59-.77c3.07,2,6,4.19,9.2,6,1.14.78,2.28,1.57,3.45,2.3.91.57,1.79,1.17,2.66,1.8l-.23.76-.82.89-.52.55c-.59-.45-1.18-.9-1.75-1.37-1.29-1.09-2.63-2.11-4-3.15l-.18.17c-.74-1.43-2.23-2.19-3.39-3.23-1.63-1.38-3.53-2.42-5-3.94Z"/><path class="cls-10" d="M53.41,120.12c-2.92-2.41-5.72-5-8.56-7.47l-.37-1A25.76,25.76,0,0,1,51,106.38c1.76,3.27,3.95,7.84,5.66,11.15a12.7,12.7,0,0,0-3.22,2.6Z"/><path class="cls-1" d="M215.29,66.61c.57.47,5,4.63,5.57,5.13l1.24,1.13c2.85,2.54,5.74,5,8.53,7.64a13.61,13.61,0,0,0-1.26,1.63c-4.4-2.63-13.63-8.45-18-11.11C211.67,70.58,214.91,67.07,215.29,66.61Z"/><path class="cls-7" d="M187.92,24.61a25,25,0,0,1,5.8,4.45c-1,.79-1.84,1.75-2.77,2.62-2.67,2.62-5.25,5.35-8,7.89a16.79,16.79,0,0,0-2.5-1.94c1.88-3.28,3.78-6.55,5.67-9.82l1.1-1.91c.25-.43.48-.86.71-1.29Z"/><path class="cls-7" d="M265.1,47.67s3.33,1.44,4.93,2.24q-1.81,2.91-3.63,5.82c-2,3.21-4.07,6.39-6,9.67a12.43,12.43,0,0,0-3-1.37c1.18-3.54,3.31-10.69,3.31-10.69l2.38-6.06a13.5,13.5,0,0,1,2,.4Z"/><path class="cls-9" d="M222.11,97.83a30.19,30.19,0,0,1-.71,6c-3.12-.84-6.28-1.52-9.39-2.42a2.1,2.1,0,0,0-1.62.06,14,14,0,0,0,.49-3.56c3.75.1,7.49-.06,11.24-.08Z"/><path class="cls-8" d="M157.09,143c-1.41,3.51-2.83,7-4.23,10.52a14.41,14.41,0,0,0-3-.7c.54-3.78.95-7.58,1.41-11.37,2,.45,3.9,1,5.85,1.54Z"/><path class="cls-6" d="M243.38,125.06c-3.66-1-7.28-2.12-10.9-3.21l.17,0a23.92,23.92,0,0,1,3.63-7.16c3,2.23,6,4.4,8.93,6.68a12.68,12.68,0,0,0-1.83,3.71Z"/><path class="cls-6" d="M248.94,28.93l-.17.56c-.34,1-.79,1.9-1.16,2.87-1.48,3.44-2.9,6.89-4.39,10.32a13.57,13.57,0,0,0-3.11-.83c.57-3.72,1-7.45,1.54-11.17.15-1.21.33-2.41.51-3.61a34.78,34.78,0,0,1,6.78,1.86Z"/><path class="cls-8" d="M255.72,101.48c1-3.58,1.93-7.2,3.06-10.75l.54.09a14.93,14.93,0,0,0,2.69.34c-.15,5.32-.15,10.64-.2,16,0,.52-.1,1-.15,1.55-1.07,0-3.19-.21-3.19-.21l-1.25-.12s-2.16-.5-3.21-.85l.13-.4c.59-1.85,1-3.74,1.58-5.6Z"/><path class="cls-9" d="M49.16,140.53c-2.83,2.34-5.86,4.44-8.74,6.72a22.78,22.78,0,0,1-4.28-9.1L47,135.82a13.5,13.5,0,0,0,1.56,3.77c.2.32.43.63.63.94Z"/><path class="cls-4" d="M82.57,31.81s4.44-6,6.69-9a13.28,13.28,0,0,0,3.81,2c-1.2,3.49-2.18,7-3.25,10.57-.36,1.17-.72,2.34-1.1,3.51-.56-.19-4.47-1.67-4.47-1.67l-3.61-1.73a25.71,25.71,0,0,1,1.93-3.7Z"/><path class="cls-6" d="M188.21,129.17a12.14,12.14,0,0,0,2.87-2l7.59,8.06,1.39,1.46c-.7.63-2.14,1.82-2.14,1.82l-1,.72s-1.55,1-2.37,1.4l-1-1.79c-1.19-2.34-2.5-4.6-3.71-6.92a11.57,11.57,0,0,0-1.65-2.71Z"/><path class="cls-8" d="M219,49.06a11.62,11.62,0,0,1-1.42,2.84c-1.32,2.26-2.55,4.57-3.89,6.82a25,25,0,0,1-3.22-2.3c2.13-3,4.64-5.65,7-8.48A18.4,18.4,0,0,0,219,49.06Z"/><path class="cls-10" d="M221.27,147.61c-2.92-2.41-5.73-5-8.56-7.47l-.37-1a25.72,25.72,0,0,1,6.48-5.23c1.76,3.27,4,7.84,5.66,11.15a12.69,12.69,0,0,0-3.22,2.6Z"/><path class="cls-5" d="M295.94,16.27c.57.47,5,4.63,5.57,5.13l1.24,1.13c2.85,2.54,5.74,5,8.53,7.64A13.74,13.74,0,0,0,310,31.8c-4.4-2.63-13.63-8.45-18-11.1C292.33,20.24,295.57,16.73,295.94,16.27Z"/><path class="cls-1" d="M362.34,25.91a25,25,0,0,1,5.8,4.45c-1,.79-1.84,1.75-2.77,2.62-2.67,2.62-5.25,5.35-8,7.89a16.81,16.81,0,0,0-2.5-1.94c1.88-3.28,3.78-6.55,5.67-9.82l1.1-1.91c.25-.43.48-.86.71-1.29Z"/><path class="cls-3" d="M437.24,38.5s3.33,1.44,4.93,2.24q-1.81,2.91-3.63,5.82c-2,3.21-4.06,6.39-6,9.67a12.34,12.34,0,0,0-3-1.37c1.18-3.54,3.31-10.69,3.31-10.69l2.38-6.06a13.59,13.59,0,0,1,2,.4Z"/><path class="cls-2" d="M302.77,47.49a30.21,30.21,0,0,1-.71,6c-3.12-.84-6.28-1.52-9.39-2.42a2.1,2.1,0,0,0-1.63.06,14,14,0,0,0,.49-3.56c3.75.1,7.49-.06,11.24-.08Z"/><path class="cls-5" d="M365.21,67.74c-1.41,3.51-2.83,7-4.23,10.52a14.37,14.37,0,0,0-3-.7c.54-3.78.95-7.58,1.41-11.37,2,.45,3.9,1,5.85,1.54Z"/><path class="cls-6" d="M324,74.72c-3.66-1-7.28-2.12-10.9-3.21l.17,0a23.9,23.9,0,0,1,3.64-7.16c3,2.24,6,4.4,8.93,6.68A12.71,12.71,0,0,0,324,74.72Z"/><path class="cls-11" d="M452.06,71.58l-.17.56c-.34,1-.79,1.9-1.17,2.87-1.48,3.44-2.9,6.89-4.39,10.32a13.54,13.54,0,0,0-3.11-.83c.57-3.72,1-7.45,1.54-11.17.15-1.21.33-2.41.51-3.61a34.76,34.76,0,0,1,6.78,1.86Z"/><path class="cls-8" d="M325.77,114c1-3.58,1.93-7.2,3.06-10.75l.54.09a15.07,15.07,0,0,0,2.69.34c-.15,5.32-.15,10.64-.2,16,0,.52-.1,1-.15,1.55-1.07,0-3.19-.22-3.19-.22l-1.25-.12s-2.16-.5-3.21-.85l.13-.4c.59-1.85,1-3.74,1.58-5.6Z"/><path class="cls-2" d="M385.88,101.89c-2.83,2.34-5.86,4.44-8.74,6.72a22.78,22.78,0,0,1-4.28-9.1l10.83-2.33a13.44,13.44,0,0,0,1.56,3.77c.2.32.43.63.63.94Z"/><path class="cls-4" d="M396.54,9.16s4.44-6,6.69-9a13.29,13.29,0,0,0,3.81,2c-1.2,3.49-2.19,7-3.25,10.57-.36,1.17-.72,2.34-1.1,3.51-.56-.19-4.47-1.67-4.47-1.67l-3.61-1.73a26,26,0,0,1,1.93-3.7Z"/><path class="cls-6" d="M268.86,78.83a12.1,12.1,0,0,0,2.87-2l7.59,8.06,1.39,1.46c-.7.63-2.14,1.82-2.14,1.82l-1,.72s-1.55,1-2.37,1.4l-1-1.79c-1.19-2.34-2.5-4.6-3.71-6.92a11.56,11.56,0,0,0-1.65-2.71Z"/><path class="cls-7" d="M422.1,91.7a11.57,11.57,0,0,1-1.42,2.84c-1.32,2.26-2.55,4.57-3.89,6.82a25.05,25.05,0,0,1-3.22-2.3c2.13-3,4.64-5.65,7-8.49a18.43,18.43,0,0,0,1.58,1.12Z"/><path class="cls-8" d="M392.73,56l.59-.77c3.07,2,6,4.19,9.2,6,1.14.78,2.28,1.57,3.45,2.3.91.57,1.79,1.17,2.66,1.8l-.23.76-.82.89-.52.55c-.59-.45-1.18-.9-1.75-1.37-1.29-1.09-2.62-2.11-4-3.15l-.18.17c-.74-1.43-2.23-2.19-3.39-3.23-1.63-1.39-3.53-2.42-5-3.94Z"/><path class="cls-10" d="M301.92,97.27c-2.92-2.41-5.72-5-8.56-7.48l-.37-1a25.75,25.75,0,0,1,6.48-5.23c1.76,3.27,4,7.84,5.66,11.15a12.74,12.74,0,0,0-3.22,2.6Z"/><path class="cls-5" d="M463.81,43.76c.57.47,5,4.63,5.57,5.13L470.61,50c2.85,2.54,5.74,5,8.53,7.64a13.56,13.56,0,0,0-1.26,1.63c-4.4-2.63-13.63-8.45-18-11.11C460.19,47.73,463.43,44.21,463.81,43.76Z"/><path class="cls-9" d="M436.44,1.76a25,25,0,0,1,5.8,4.45c-1,.79-1.84,1.75-2.77,2.62-2.67,2.62-5.25,5.35-8,7.89a16.9,16.9,0,0,0-2.5-1.94c1.88-3.28,3.78-6.55,5.67-9.82L435.73,3c.25-.43.48-.86.71-1.29Z"/><path class="cls-8" d="M513.61,24.82s3.33,1.44,4.93,2.24q-1.81,2.91-3.63,5.82c-2,3.21-4.07,6.39-6,9.67a12.35,12.35,0,0,0-3-1.37c1.18-3.54,3.31-10.69,3.31-10.69l2.38-6.06a13.42,13.42,0,0,1,2,.4Z"/><path class="cls-12" d="M470.63,75a30.35,30.35,0,0,1-.71,6c-3.12-.84-6.28-1.52-9.39-2.42a2.11,2.11,0,0,0-1.63.06,13.9,13.9,0,0,0,.49-3.56c3.75.1,7.49-.06,11.24-.08Z"/><path class="cls-5" d="M405.61,120.13c-1.41,3.51-2.83,7-4.23,10.52a14.46,14.46,0,0,0-3-.7c.54-3.78.95-7.58,1.41-11.37,2,.45,3.9,1,5.85,1.54Z"/><path class="cls-6" d="M491.9,102.21c-3.66-1-7.28-2.12-10.9-3.21l.17,0a23.9,23.9,0,0,1,3.63-7.16c3,2.24,6,4.4,8.93,6.68a12.72,12.72,0,0,0-1.83,3.71Z"/><path class="cls-6" d="M497.46,6.08l-.17.56c-.34,1-.79,1.9-1.16,2.87-1.48,3.44-2.9,6.89-4.39,10.32a13.52,13.52,0,0,0-3.11-.83c.58-3.72,1-7.45,1.54-11.17.15-1.21.33-2.41.51-3.61a34.78,34.78,0,0,1,6.78,1.86Z"/><path class="cls-8" d="M504.24,78.63c1-3.58,1.93-7.2,3.06-10.75l.54.09a14.9,14.9,0,0,0,2.69.34c-.15,5.32-.15,10.64-.2,16,0,.52-.1,1-.15,1.55-1.07,0-3.19-.22-3.19-.22l-1.25-.12s-2.16-.5-3.21-.85l.13-.4c.59-1.85,1-3.74,1.58-5.6Z"/><path class="cls-2" d="M297.67,117.68c-2.83,2.34-5.86,4.44-8.74,6.72a22.77,22.77,0,0,1-4.28-9.1L295.48,113a13.51,13.51,0,0,0,1.56,3.77c.2.32.43.63.63.94Z"/><path class="cls-4" d="M331.09,9s4.44-6,6.69-9a13.29,13.29,0,0,0,3.81,2c-1.2,3.49-2.18,7-3.25,10.57-.36,1.17-.72,2.34-1.1,3.51-.56-.19-4.47-1.67-4.47-1.67l-3.61-1.73A25.7,25.7,0,0,1,331.09,9Z"/><path class="cls-6" d="M436.72,106.32a12.1,12.1,0,0,0,2.87-2l7.59,8.06,1.39,1.46c-.7.63-2.14,1.82-2.14,1.82l-1,.72s-1.55,1-2.37,1.4l-1-1.79c-1.19-2.34-2.5-4.6-3.71-6.92a11.58,11.58,0,0,0-1.65-2.71Z"/><path class="cls-1" d="M467.5,26.2A11.56,11.56,0,0,1,466.08,29c-1.32,2.26-2.55,4.57-3.89,6.82a25.11,25.11,0,0,1-3.22-2.3c2.13-3,4.64-5.65,7-8.48a18.5,18.5,0,0,0,1.58,1.12Z"/><path class="cls-1" d="M348.62,129.05l.59-.77c3.07,2,6,4.19,9.2,6,1.14.78,2.28,1.57,3.45,2.3.91.57,1.79,1.17,2.66,1.8l-.23.76-.82.89-.52.55c-.59-.45-1.18-.9-1.75-1.37-1.29-1.09-2.62-2.11-4-3.15l-.18.17c-.74-1.43-2.23-2.19-3.39-3.23-1.63-1.39-3.53-2.42-5-3.94Z"/><path class="cls-10" d="M469.79,124.76c-2.92-2.41-5.72-5-8.56-7.48l-.37-1a25.7,25.7,0,0,1,6.48-5.23c1.76,3.27,4,7.84,5.66,11.14a12.75,12.75,0,0,0-3.22,2.6Z"/><path class="cls-5" d="M251.1,139.15c.57.47,5,4.63,5.57,5.13l1.24,1.13c2.85,2.54,5.74,5,8.53,7.64a13.61,13.61,0,0,0-1.26,1.63c-4.4-2.63-13.63-8.45-18-11.1C247.48,143.12,250.72,139.6,251.1,139.15Z"/><path class="cls-4" d="M377.32,141.52s4.44-6,6.69-9a13.29,13.29,0,0,0,3.81,2c-1.2,3.49-2.19,7-3.25,10.57-.36,1.17-.72,2.34-1.1,3.51-.56-.19-4.47-1.67-4.47-1.67l-3.61-1.73a25.63,25.63,0,0,1,1.93-3.7Z"/><path class="cls-2" d="M417.22,134.12a25,25,0,0,1,5.8,4.45c-1,.79-1.84,1.75-2.77,2.63-2.67,2.62-5.25,5.35-8,7.89a16.9,16.9,0,0,0-2.5-1.94c1.88-3.28,3.78-6.55,5.67-9.82l1.1-1.92c.25-.43.48-.86.71-1.29Z"/><path class="cls-6" d="M478.24,138.44l-.17.56c-.34,1-.79,1.9-1.16,2.87-1.48,3.44-2.9,6.89-4.39,10.32a13.52,13.52,0,0,0-3.11-.83c.58-3.72,1-7.45,1.54-11.17.15-1.21.33-2.41.51-3.61a34.83,34.83,0,0,1,6.78,1.86Z"/><path class="cls-4" d="M550.13,57.93s3.33,1.44,4.93,2.24q-1.81,2.91-3.63,5.82c-2,3.21-4.07,6.39-6,9.67a12.42,12.42,0,0,0-3-1.37c1.18-3.54,3.31-10.69,3.31-10.69l2.38-6.06a13.44,13.44,0,0,1,2,.4Z"/><path class="cls-6" d="M534,39.19l-.16.56c-.35,1-.79,1.9-1.16,2.87-1.48,3.44-2.9,6.89-4.39,10.32a13.54,13.54,0,0,0-3.11-.83c.57-3.72,1-7.45,1.54-11.17.15-1.21.33-2.41.51-3.6A34.71,34.71,0,0,1,534,39.19Z"/><path class="cls-8" d="M540.76,111.75c1-3.58,1.93-7.2,3.06-10.75l.54.09a15,15,0,0,0,2.69.34c-.15,5.32-.15,10.64-.21,16,0,.52-.1,1-.15,1.55-1.07,0-3.19-.22-3.19-.22l-1.25-.12s-2.16-.5-3.21-.85l.13-.4c.59-1.85,1-3.74,1.58-5.6Z"/><path class="cls-1" d="M581,26.53c.57.47,5,4.63,5.57,5.13l1.24,1.13c2.85,2.54,5.74,5,8.53,7.64a13.81,13.81,0,0,0-1.26,1.63c-4.4-2.63-13.63-8.45-18-11.1C577.36,30.5,580.6,27,581,26.53Z"/><path class="cls-2" d="M647.38,36.17a25,25,0,0,1,5.8,4.45c-1,.79-1.84,1.75-2.77,2.62-2.67,2.62-5.25,5.35-8,7.89a16.73,16.73,0,0,0-2.5-1.94c1.88-3.28,3.78-6.55,5.67-9.82l1.1-1.92c.25-.43.48-.86.71-1.29Z"/><path class="cls-3" d="M722.28,48.77s3.33,1.44,4.93,2.24q-1.81,2.91-3.63,5.82c-2,3.21-4.06,6.39-6,9.67a12.46,12.46,0,0,0-3-1.37c1.18-3.54,3.31-10.69,3.31-10.69l2.38-6.06a13.49,13.49,0,0,1,2,.4Z"/><path class="cls-9" d="M587.8,57.75a30.22,30.22,0,0,1-.71,6c-3.12-.84-6.28-1.52-9.39-2.42a2.1,2.1,0,0,0-1.63.06,14,14,0,0,0,.49-3.56c3.75.1,7.49-.06,11.24-.08Z"/><path class="cls-9" d="M650.24,78c-1.41,3.51-2.83,7-4.23,10.52a14.47,14.47,0,0,0-3-.7c.54-3.78.95-7.58,1.41-11.37,2,.45,3.9,1,5.85,1.54Z"/><path class="cls-6" d="M609.07,85c-3.66-1-7.28-2.12-10.9-3.21l.17,0A24,24,0,0,1,602,74.59c3,2.24,6,4.4,8.93,6.68A12.7,12.7,0,0,0,609.07,85Z"/><path class="cls-6" d="M737.09,81.84l-.17.56c-.34,1-.79,1.9-1.16,2.87-1.48,3.44-2.9,6.89-4.39,10.32a13.46,13.46,0,0,0-3.11-.83c.58-3.72,1-7.45,1.54-11.17.15-1.21.33-2.41.51-3.6a34.79,34.79,0,0,1,6.78,1.86Z"/><path class="cls-8" d="M610.8,124.21c1-3.58,1.93-7.2,3.06-10.75l.54.09a15,15,0,0,0,2.69.34c-.15,5.32-.15,10.64-.21,16,0,.52-.1,1-.15,1.55-1.06,0-3.19-.21-3.19-.21l-1.25-.12s-2.16-.5-3.21-.85l.13-.4c.59-1.85,1-3.74,1.58-5.6Z"/><path class="cls-2" d="M670.91,112.15c-2.83,2.35-5.86,4.44-8.74,6.72a22.77,22.77,0,0,1-4.28-9.1l10.83-2.33a13.47,13.47,0,0,0,1.56,3.77c.2.32.43.63.63.94Z"/><path class="cls-4" d="M681.57,19.42s4.44-6,6.69-9a13.28,13.28,0,0,0,3.81,2c-1.2,3.49-2.18,7-3.25,10.57-.36,1.17-.72,2.34-1.1,3.51-.56-.19-4.47-1.67-4.47-1.67l-3.61-1.73a25.77,25.77,0,0,1,1.93-3.7Z"/><path class="cls-6" d="M553.89,89.09a12.12,12.12,0,0,0,2.87-2l7.59,8.06,1.39,1.46c-.7.63-2.14,1.81-2.14,1.81l-1,.72s-1.55,1-2.37,1.4l-1-1.79c-1.19-2.33-2.5-4.6-3.71-6.92a11.55,11.55,0,0,0-1.65-2.71Z"/><path class="cls-4" d="M707.14,102a11.56,11.56,0,0,1-1.42,2.84c-1.32,2.26-2.55,4.57-3.89,6.82a24.92,24.92,0,0,1-3.22-2.3c2.13-3,4.64-5.65,7-8.48a18.54,18.54,0,0,0,1.58,1.12Z"/><path class="cls-5" d="M677.77,66.27l.59-.77c3.07,2,6,4.19,9.2,6,1.14.78,2.28,1.57,3.45,2.31.91.57,1.79,1.17,2.66,1.8l-.23.76-.82.89-.52.55c-.59-.45-1.18-.9-1.75-1.37-1.29-1.09-2.62-2.11-4-3.15l-.18.17c-.74-1.43-2.24-2.19-3.4-3.23-1.63-1.39-3.52-2.42-5-3.94Z"/><path class="cls-10" d="M587,107.53c-2.92-2.41-5.72-5-8.56-7.47L578,99a25.76,25.76,0,0,1,6.48-5.23c1.76,3.27,4,7.84,5.66,11.15a12.71,12.71,0,0,0-3.22,2.6Z"/><path class="cls-5" d="M748.84,54c.57.47,5,4.63,5.57,5.13l1.24,1.13c2.85,2.54,5.74,5,8.53,7.64a13.76,13.76,0,0,0-1.26,1.63c-4.4-2.63-13.63-8.45-18-11.1C745.22,58,748.46,54.47,748.84,54Z"/><path class="cls-11" d="M721.47,12a24.94,24.94,0,0,1,5.8,4.45c-1,.79-1.84,1.75-2.77,2.62-2.67,2.62-5.25,5.35-8,7.89A16.88,16.88,0,0,0,714,25c1.88-3.28,3.78-6.55,5.67-9.82l1.1-1.92c.25-.43.48-.86.71-1.29Z"/><path class="cls-3" d="M786.93,69s3.33,1.44,4.93,2.24q-1.81,2.91-3.63,5.82c-2,3.21-4.07,6.39-6,9.67a12.46,12.46,0,0,0-3-1.37c1.18-3.54,3.31-10.69,3.31-10.69l2.38-6.06a13.26,13.26,0,0,1,2,.4Z"/><path class="cls-2" d="M755.67,85.23a30.14,30.14,0,0,1-.71,6c-3.12-.84-6.28-1.52-9.39-2.42a2.1,2.1,0,0,0-1.62.06,14,14,0,0,0,.49-3.56c3.75.1,7.49-.06,11.24-.08Z"/><path class="cls-5" d="M690.65,130.39c-1.41,3.51-2.83,7-4.23,10.52a14.44,14.44,0,0,0-3-.7c.54-3.78.95-7.58,1.41-11.37,2,.46,3.9,1,5.85,1.54Z"/><path class="cls-6" d="M776.93,112.47c-3.66-1-7.28-2.12-10.9-3.21l.17,0a24,24,0,0,1,3.63-7.16c3,2.24,6,4.4,8.93,6.68a12.69,12.69,0,0,0-1.84,3.71Z"/><path class="cls-6" d="M782.49,16.34l-.16.56c-.35,1-.79,1.9-1.17,2.87-1.48,3.44-2.9,6.89-4.39,10.32a13.57,13.57,0,0,0-3.11-.83c.57-3.72,1-7.45,1.54-11.17.15-1.21.33-2.41.51-3.61a34.71,34.71,0,0,1,6.78,1.86Z"/><path class="cls-8" d="M772.95,145.5c1-3.58,1.93-7.2,3.06-10.75l.54.09a15,15,0,0,0,2.69.34c-.14,5.32-.14,10.64-.2,16,0,.52-.1,1-.15,1.55-1.06,0-3.19-.22-3.19-.22l-1.25-.12s-2.16-.5-3.21-.85l.13-.4c.59-1.85,1-3.74,1.58-5.6Z"/><path class="cls-9" d="M582.71,127.94c-2.83,2.34-5.86,4.44-8.74,6.72a22.75,22.75,0,0,1-4.28-9.1l10.82-2.33a13.47,13.47,0,0,0,1.56,3.77c.2.32.43.63.63.94Z"/><path class="cls-4" d="M616.12,19.22s4.44-6,6.69-9a13.24,13.24,0,0,0,3.81,2c-1.2,3.49-2.19,7-3.25,10.57-.36,1.17-.72,2.34-1.1,3.51-.56-.19-4.47-1.67-4.47-1.67l-3.61-1.73a25.84,25.84,0,0,1,1.93-3.7Z"/><path class="cls-6" d="M721.76,116.58a12.07,12.07,0,0,0,2.87-2l7.59,8.06,1.39,1.46c-.7.63-2.14,1.82-2.14,1.82l-1,.72s-1.55,1-2.37,1.4l-1-1.79c-1.19-2.33-2.5-4.6-3.71-6.92a11.56,11.56,0,0,0-1.65-2.71Z"/><path class="cls-1" d="M752.54,36.46a11.59,11.59,0,0,1-1.42,2.84c-1.32,2.26-2.54,4.57-3.89,6.82a24.87,24.87,0,0,1-3.22-2.3c2.13-3,4.64-5.65,7-8.48a18.54,18.54,0,0,0,1.58,1.12Z"/><path class="cls-9" d="M633.65,139.31l.59-.77c3.07,2,6,4.19,9.2,6,1.14.78,2.28,1.57,3.45,2.31.91.57,1.79,1.17,2.66,1.8l-.23.77-.82.89-.52.55c-.59-.45-1.18-.9-1.75-1.37-1.29-1.09-2.62-2.11-4-3.15l-.18.17c-.74-1.43-2.23-2.19-3.39-3.23-1.63-1.38-3.53-2.42-5-3.94Z"/><path class="cls-10" d="M754.82,135c-2.92-2.41-5.72-5-8.56-7.47l-.37-1a25.74,25.74,0,0,1,6.48-5.23c1.76,3.27,4,7.84,5.66,11.15a12.74,12.74,0,0,0-3.22,2.6Z"/><path class="cls-1" d="M493.36,111c.57.47,5,4.63,5.57,5.13l1.24,1.13c2.85,2.54,5.74,5,8.53,7.64a13.81,13.81,0,0,0-1.26,1.63c-4.4-2.63-13.63-8.44-18-11.1C489.74,115,493,111.47,493.36,111Z"/><path class="cls-1" d="M15.22,171.55c.57.47,5,4.63,5.57,5.13L22,177.81c2.85,2.54,5.74,5,8.53,7.64a13.61,13.61,0,0,0-1.26,1.63c-4.4-2.63-13.63-8.45-18-11.11C11.61,175.51,14.85,172,15.22,171.55Z"/><path class="cls-9" d="M81.62,181.18a25,25,0,0,1,5.8,4.45c-1,.79-1.84,1.75-2.77,2.62-2.67,2.62-5.25,5.35-8,7.89a16.82,16.82,0,0,0-2.5-1.94c1.88-3.28,3.78-6.55,5.67-9.82l1.1-1.91c.25-.43.48-.86.71-1.29Z"/><path class="cls-3" d="M156.53,193.78s3.33,1.44,4.93,2.24q-1.81,2.91-3.63,5.82c-2,3.21-4.06,6.39-6,9.67a12.42,12.42,0,0,0-3-1.37c1.18-3.54,3.31-10.69,3.31-10.69l2.38-6.06a13.33,13.33,0,0,1,2,.4Z"/><path class="cls-4" d="M22.05,202.76a30.33,30.33,0,0,1-.71,6c-3.12-.84-6.28-1.52-9.39-2.42a2.11,2.11,0,0,0-1.62.06,13.93,13.93,0,0,0,.49-3.56c3.75.1,7.49-.06,11.24-.08Z"/><path class="cls-5" d="M84.49,223c-1.41,3.51-2.83,7-4.23,10.52a14.36,14.36,0,0,0-3-.7c.54-3.78.95-7.58,1.41-11.37,2,.46,3.9,1,5.85,1.54Z"/><path class="cls-6" d="M43.32,230c-3.66-1-7.28-2.12-10.9-3.21l.17,0a23.94,23.94,0,0,1,3.63-7.16c3,2.24,6,4.4,8.93,6.68A12.68,12.68,0,0,0,43.32,230Z"/><path class="cls-7" d="M171.34,226.85l-.17.56c-.34,1-.79,1.9-1.16,2.87-1.48,3.43-2.9,6.89-4.39,10.32a13.48,13.48,0,0,0-3.11-.83c.57-3.72,1-7.45,1.54-11.17.15-1.21.33-2.41.51-3.6a34.75,34.75,0,0,1,6.78,1.86Z"/><path class="cls-8" d="M45,269.23c1-3.58,1.93-7.2,3.06-10.75l.54.09a15.11,15.11,0,0,0,2.69.34c-.15,5.32-.15,10.64-.2,16,0,.52-.1,1-.15,1.55-1.06,0-3.19-.21-3.19-.21l-1.25-.12s-2.16-.5-3.21-.85c0-.1.1-.3.13-.4.59-1.85,1-3.74,1.58-5.6Z"/><path class="cls-9" d="M105.16,257.16c-2.83,2.34-5.86,4.44-8.74,6.72a22.77,22.77,0,0,1-4.28-9.1L103,252.46a13.49,13.49,0,0,0,1.56,3.76c.2.32.43.63.63.94Z"/><path class="cls-8" d="M115.82,164.44s4.44-6,6.69-9a13.3,13.3,0,0,0,3.81,2c-1.2,3.49-2.18,7-3.25,10.57-.36,1.17-.72,2.34-1.1,3.51-.56-.19-4.47-1.67-4.47-1.67l-3.61-1.73a25.77,25.77,0,0,1,1.93-3.7Z"/><path class="cls-6" d="M17.57,44.58a12.09,12.09,0,0,0,2.87-2L28,50.62l1.39,1.46c-.7.63-2.14,1.82-2.14,1.82l-1,.72s-1.55,1-2.37,1.4l-1-1.79c-1.19-2.33-2.5-4.6-3.71-6.92a11.58,11.58,0,0,0-1.65-2.71Z"/><path class="cls-9" d="M141.39,247a11.58,11.58,0,0,1-1.42,2.84c-1.32,2.26-2.55,4.57-3.89,6.82a25.3,25.3,0,0,1-3.22-2.3c2.13-3,4.64-5.65,7-8.48a18.37,18.37,0,0,0,1.58,1.12Z"/><path class="cls-8" d="M112,211.29l.59-.77c3.07,2,6,4.19,9.2,6,1.14.78,2.28,1.57,3.45,2.3.91.57,1.79,1.17,2.66,1.8l-.23.76-.82.9-.52.55c-.59-.45-1.18-.9-1.75-1.37-1.29-1.09-2.62-2.11-4-3.15l-.18.17c-.74-1.43-2.23-2.19-3.39-3.23-1.63-1.38-3.53-2.42-5-3.94Z"/><path class="cls-10" d="M21.21,252.54c-2.92-2.41-5.72-5-8.56-7.48l-.37-1a25.72,25.72,0,0,1,6.48-5.23c1.76,3.27,4,7.84,5.66,11.15a12.73,12.73,0,0,0-3.22,2.6Z"/><path class="cls-1" d="M183.09,199c.57.47,5,4.63,5.57,5.13l1.24,1.13c2.85,2.54,5.74,5,8.53,7.64a13.69,13.69,0,0,0-1.26,1.63c-4.4-2.63-13.63-8.45-18-11.1C179.47,203,182.71,199.49,183.09,199Z"/><path class="cls-7" d="M155.72,157a25,25,0,0,1,5.8,4.45c-1,.79-1.84,1.75-2.77,2.62-2.67,2.62-5.25,5.35-8,7.89a16.84,16.84,0,0,0-2.5-1.94c1.88-3.28,3.78-6.55,5.67-9.82l1.1-1.92c.25-.43.48-.86.71-1.29Z"/><path class="cls-7" d="M232.9,180.09s3.33,1.44,4.93,2.24q-1.81,2.91-3.63,5.82c-2,3.21-4.06,6.39-6,9.67a12.42,12.42,0,0,0-3-1.37c1.18-3.54,3.31-10.69,3.31-10.69l2.38-6.06a13.38,13.38,0,0,1,2,.4Z"/><path class="cls-9" d="M189.91,230.25a30.22,30.22,0,0,1-.71,6c-3.12-.84-6.28-1.52-9.39-2.42a2.1,2.1,0,0,0-1.62.06,14,14,0,0,0,.49-3.56c3.75.1,7.49-.06,11.24-.08Z"/><path class="cls-8" d="M124.9,275.4c-1.41,3.51-2.83,7-4.23,10.52a14.44,14.44,0,0,0-3-.7c.54-3.78.95-7.58,1.41-11.37,2,.45,3.9,1,5.85,1.54Z"/><path class="cls-6" d="M211.18,257.48c-3.66-1-7.28-2.12-10.9-3.21l.17,0a23.92,23.92,0,0,1,3.63-7.16c3,2.24,6,4.4,8.93,6.68a12.69,12.69,0,0,0-1.83,3.71Z"/><path class="cls-6" d="M216.74,161.35l-.17.56c-.34,1-.79,1.9-1.16,2.87-1.48,3.44-2.9,6.89-4.39,10.32a13.51,13.51,0,0,0-3.11-.83c.57-3.72,1-7.45,1.54-11.17.15-1.21.33-2.41.51-3.6a34.68,34.68,0,0,1,6.78,1.86Z"/><path class="cls-8" d="M223.52,233.9c1-3.58,1.93-7.2,3.06-10.75l.54.09a14.89,14.89,0,0,0,2.69.34c-.15,5.32-.15,10.64-.2,16,0,.52-.1,1-.15,1.55-1.06,0-3.19-.22-3.19-.22l-1.25-.12s-2.16-.5-3.21-.85l.13-.4c.59-1.85,1-3.74,1.58-5.6Z"/><path class="cls-2" d="M17,272.95c-2.83,2.34-5.86,4.44-8.74,6.72a22.79,22.79,0,0,1-4.28-9.1l10.82-2.33A13.5,13.5,0,0,0,16.32,272c.2.32.43.63.63.94Z"/><path class="cls-4" d="M50.37,164.23s4.44-6,6.69-9a13.33,13.33,0,0,0,3.81,2c-1.2,3.49-2.18,7-3.25,10.57-.36,1.17-.72,2.34-1.1,3.51-.56-.19-4.47-1.67-4.47-1.67l-3.61-1.73a25.71,25.71,0,0,1,1.93-3.7Z"/><path class="cls-6" d="M156,261.59a12.14,12.14,0,0,0,2.87-2l7.59,8.06,1.39,1.46c-.7.63-2.14,1.82-2.14,1.82l-1,.72s-1.55,1-2.37,1.4l-1-1.79c-1.19-2.33-2.5-4.6-3.71-6.92a11.55,11.55,0,0,0-1.65-2.71Z"/><path class="cls-8" d="M186.78,181.48a11.6,11.6,0,0,1-1.42,2.84c-1.32,2.26-2.55,4.57-3.89,6.82a25,25,0,0,1-3.22-2.3c2.13-3,4.64-5.65,7-8.48a18.15,18.15,0,0,0,1.58,1.12Z"/><path class="cls-10" d="M189.07,280c-2.92-2.41-5.73-5-8.56-7.47l-.37-1a25.7,25.7,0,0,1,6.48-5.23c1.76,3.27,4,7.84,5.66,11.14a12.68,12.68,0,0,0-3.22,2.6Z"/><path class="cls-5" d="M290,163.29c.57.47,5,4.63,5.57,5.13l1.24,1.13c2.85,2.54,5.74,5,8.53,7.64a13.73,13.73,0,0,0-1.26,1.63c-4.4-2.63-13.63-8.45-18-11.1C286.4,167.25,289.64,163.74,290,163.29Z"/><path class="cls-1" d="M330.14,158.33a25,25,0,0,1,5.8,4.45c-1,.79-1.84,1.75-2.77,2.62-2.67,2.62-5.25,5.35-8,7.89a16.77,16.77,0,0,0-2.5-1.94c1.88-3.28,3.78-6.55,5.67-9.82l1.1-1.91c.25-.43.48-.86.71-1.29Z"/><path class="cls-3" d="M405,170.92s3.33,1.44,4.93,2.24q-1.8,2.91-3.63,5.82c-2,3.21-4.07,6.39-6,9.67a12.34,12.34,0,0,0-3-1.38c1.18-3.54,3.31-10.69,3.31-10.69l2.38-6.06a13.48,13.48,0,0,1,2,.4Z"/><path class="cls-2" d="M270.57,179.91a30.24,30.24,0,0,1-.71,6c-3.12-.84-6.28-1.52-9.39-2.42a2.1,2.1,0,0,0-1.63.06,14,14,0,0,0,.49-3.56c3.75.1,7.49-.06,11.24-.08Z"/><path class="cls-5" d="M333,200.16c-1.41,3.51-2.83,7-4.23,10.52a14.42,14.42,0,0,0-3-.7c.54-3.78.95-7.58,1.41-11.37,2,.46,3.9,1,5.85,1.54Z"/><path class="cls-6" d="M291.84,207.14c-3.66-1-7.28-2.12-10.9-3.21l.17,0a23.89,23.89,0,0,1,3.64-7.16c3,2.24,6,4.4,8.93,6.68a12.73,12.73,0,0,0-1.83,3.71Z"/><path class="cls-11" d="M419.86,204l-.17.56c-.34,1-.79,1.9-1.16,2.87-1.48,3.43-2.9,6.89-4.39,10.32a13.55,13.55,0,0,0-3.11-.83c.57-3.72,1-7.45,1.54-11.17.15-1.21.33-2.41.51-3.61a34.82,34.82,0,0,1,6.78,1.86Z"/><path class="cls-8" d="M293.57,246.37c1-3.58,1.93-7.2,3.06-10.75l.54.09a15,15,0,0,0,2.69.34c-.15,5.32-.15,10.64-.2,16,0,.52-.1,1-.15,1.55-1.07,0-3.19-.22-3.19-.22l-1.25-.12s-2.16-.5-3.21-.85l.13-.4c.59-1.85,1-3.74,1.58-5.6Z"/><path class="cls-9" d="M353.68,234.31c-2.83,2.34-5.86,4.44-8.74,6.72a22.78,22.78,0,0,1-4.28-9.1l10.82-2.33a13.49,13.49,0,0,0,1.56,3.77c.2.32.43.63.63.94Z"/><path class="cls-4" d="M327.37,142.56s4.44-6,6.69-9a13.28,13.28,0,0,0,3.81,2c-1.2,3.49-2.18,7-3.25,10.57-.36,1.17-.72,2.34-1.1,3.51C333,149.46,329,148,329,148l-3.61-1.73a25.75,25.75,0,0,1,1.93-3.7Z"/><path class="cls-6" d="M236.66,211.25a12.09,12.09,0,0,0,2.87-2l7.59,8.06,1.39,1.46c-.7.63-2.14,1.82-2.14,1.82l-1,.72s-1.55,1-2.37,1.4l-1-1.79c-1.19-2.33-2.5-4.6-3.71-6.92a11.59,11.59,0,0,0-1.65-2.71Z"/><path class="cls-7" d="M389.9,224.12a11.59,11.59,0,0,1-1.42,2.84c-1.32,2.26-2.55,4.57-3.89,6.82a25.08,25.08,0,0,1-3.22-2.3c2.13-3,4.64-5.65,7-8.49a18.54,18.54,0,0,0,1.58,1.12Z"/><path class="cls-8" d="M360.53,188.43l.59-.77c3.07,2,6,4.19,9.2,6,1.14.78,2.28,1.57,3.45,2.3.91.57,1.79,1.17,2.66,1.8l-.23.76-.82.89-.52.55c-.59-.45-1.18-.9-1.75-1.37-1.29-1.09-2.63-2.11-4-3.15l-.18.17c-.74-1.43-2.23-2.19-3.4-3.23-1.63-1.38-3.53-2.42-5-3.94Z"/><path class="cls-10" d="M269.72,229.69c-2.92-2.41-5.72-5-8.56-7.48l-.37-1a25.73,25.73,0,0,1,6.48-5.23c1.76,3.27,4,7.84,5.66,11.15a12.73,12.73,0,0,0-3.22,2.6Z"/><path class="cls-5" d="M431.61,176.18c.57.47,5,4.63,5.57,5.13l1.24,1.13c2.85,2.54,5.74,5,8.53,7.64a13.67,13.67,0,0,0-1.26,1.63c-4.4-2.63-13.63-8.45-18-11.1C428,180.15,431.23,176.63,431.61,176.18Z"/><path class="cls-9" d="M370.18,158.5A25,25,0,0,1,376,163c-1,.79-1.84,1.75-2.77,2.62-2.67,2.62-5.25,5.35-8,7.89a16.88,16.88,0,0,0-2.5-1.94c1.88-3.28,3.78-6.55,5.67-9.82l1.1-1.91c.25-.43.48-.86.71-1.29Z"/><path class="cls-8" d="M481.41,157.24s3.33,1.44,4.93,2.24q-1.8,2.91-3.63,5.82c-2,3.21-4.07,6.39-6,9.67a12.38,12.38,0,0,0-3-1.37c1.18-3.54,3.31-10.69,3.31-10.69l2.38-6.06a13.48,13.48,0,0,1,2,.4Z"/><path class="cls-9" d="M438.43,207.39a30.22,30.22,0,0,1-.71,6c-3.12-.84-6.29-1.52-9.39-2.42a2.1,2.1,0,0,0-1.63.06,14,14,0,0,0,.49-3.56c3.75.1,7.49-.06,11.24-.08Z"/><path class="cls-5" d="M373.41,252.55c-1.41,3.51-2.83,7-4.23,10.52a14.47,14.47,0,0,0-3-.7c.54-3.78.95-7.58,1.41-11.36,2,.45,3.9,1,5.85,1.54Z"/><path class="cls-6" d="M459.7,234.62c-3.66-1-7.28-2.12-10.9-3.21l.17,0a23.9,23.9,0,0,1,3.63-7.16c3,2.24,6,4.4,8.93,6.68a12.7,12.7,0,0,0-1.83,3.71Z"/><path class="cls-6" d="M517.8,136.55l-.17.56c-.34,1-.79,1.9-1.16,2.87-1.48,3.44-2.9,6.89-4.39,10.32a13.5,13.5,0,0,0-3.11-.83c.57-3.72,1-7.45,1.54-11.17.15-1.21.33-2.41.51-3.6a34.76,34.76,0,0,1,6.78,1.86Z"/><path class="cls-8" d="M472,211c1-3.58,1.93-7.2,3.06-10.75l.54.09a15.09,15.09,0,0,0,2.69.34c-.15,5.32-.15,10.64-.2,16,0,.52-.1,1-.15,1.55-1.07,0-3.19-.22-3.19-.22l-1.25-.12s-2.16-.5-3.21-.85l.12-.4c.59-1.85,1-3.74,1.58-5.6Z"/><path class="cls-2" d="M265.47,250.09c-2.83,2.34-5.86,4.44-8.74,6.73a22.78,22.78,0,0,1-4.28-9.1l10.82-2.33a13.48,13.48,0,0,0,1.56,3.77c.2.32.43.63.63.94Z"/><path class="cls-4" d="M298.89,141.38s4.44-6,6.69-9a13.29,13.29,0,0,0,3.81,2c-1.2,3.49-2.18,7-3.25,10.57-.36,1.17-.72,2.34-1.1,3.51-.56-.19-4.47-1.67-4.47-1.67L297,145.07a25.72,25.72,0,0,1,1.93-3.7Z"/><path class="cls-6" d="M404.52,238.74a12.06,12.06,0,0,0,2.87-2l7.59,8.06,1.39,1.46c-.7.63-2.14,1.82-2.14,1.82l-1,.72s-1.55,1-2.37,1.4l-1-1.79c-1.19-2.34-2.5-4.6-3.71-6.92a11.57,11.57,0,0,0-1.65-2.71Z"/><path class="cls-1" d="M435.3,158.62a11.57,11.57,0,0,1-1.42,2.84c-1.32,2.26-2.54,4.57-3.89,6.82a25,25,0,0,1-3.22-2.3c2.13-3,4.64-5.65,7-8.48a18.65,18.65,0,0,0,1.58,1.12Z"/><path class="cls-1" d="M316.42,261.47l.59-.77c3.07,2,6,4.19,9.2,6,1.14.78,2.28,1.57,3.45,2.3.91.57,1.79,1.17,2.66,1.8l-.23.76-.82.89-.52.55c-.59-.46-1.18-.9-1.75-1.37-1.29-1.09-2.62-2.11-4-3.15l-.18.17c-.74-1.43-2.23-2.19-3.4-3.24-1.63-1.38-3.53-2.42-5-3.94Z"/><path class="cls-10" d="M437.58,257.17c-2.92-2.41-5.72-5-8.56-7.48l-.37-1a25.74,25.74,0,0,1,6.48-5.23c1.76,3.27,4,7.84,5.66,11.15a12.75,12.75,0,0,0-3.22,2.6Z"/><path class="cls-5" d="M218.9,271.57c.57.47,5,4.63,5.57,5.13l1.24,1.13c2.85,2.54,5.74,5,8.53,7.64A13.56,13.56,0,0,0,233,287.1c-4.4-2.63-13.63-8.44-18-11.1C215.28,275.53,218.52,272,218.9,271.57Z"/><path class="cls-4" d="M345.12,273.94s4.44-6,6.69-9a13.28,13.28,0,0,0,3.81,2c-1.2,3.49-2.19,7-3.25,10.57-.36,1.17-.72,2.35-1.1,3.51-.56-.19-4.47-1.67-4.47-1.67l-3.61-1.73a25.67,25.67,0,0,1,1.93-3.7Z"/><path class="cls-9" d="M385,266.53a25,25,0,0,1,5.8,4.45c-1,.79-1.84,1.75-2.77,2.62-2.67,2.62-5.25,5.35-8,7.89a16.93,16.93,0,0,0-2.5-1.94c1.88-3.28,3.78-6.55,5.67-9.82l1.1-1.92c.25-.43.48-.86.71-1.29Z"/><path class="cls-6" d="M446,270.86l-.17.56c-.34,1-.79,1.9-1.16,2.87-1.48,3.44-2.9,6.89-4.39,10.33a13.5,13.5,0,0,0-3.11-.83c.57-3.72,1-7.45,1.54-11.17.15-1.21.33-2.41.51-3.61a34.82,34.82,0,0,1,6.78,1.86Z"/><path class="cls-4" d="M517.93,190.35s3.33,1.44,4.92,2.24q-1.8,2.91-3.63,5.82c-2,3.21-4.07,6.39-6,9.67a12.39,12.39,0,0,0-3-1.37c1.18-3.54,3.31-10.69,3.31-10.69l2.38-6.06a13.27,13.27,0,0,1,2,.4Z"/><path class="cls-6" d="M501.77,171.61l-.17.56c-.35,1-.79,1.9-1.16,2.87-1.48,3.44-2.9,6.89-4.39,10.32a13.56,13.56,0,0,0-3.11-.83c.57-3.72,1-7.45,1.54-11.17.15-1.21.33-2.41.51-3.6a34.72,34.72,0,0,1,6.78,1.86Z"/><path class="cls-8" d="M508.56,244.16c1-3.58,1.93-7.2,3.06-10.75l.54.09a14.9,14.9,0,0,0,2.69.34c-.15,5.32-.15,10.64-.2,16,0,.52-.1,1-.15,1.55-1.07,0-3.19-.22-3.19-.22l-1.25-.12s-2.16-.5-3.21-.85l.13-.4c.59-1.85,1-3.74,1.58-5.6Z"/><path class="cls-1" d="M548.78,159c.57.47,5,4.63,5.57,5.13l1.24,1.13c2.85,2.54,5.74,5,8.53,7.64a13.56,13.56,0,0,0-1.26,1.63c-4.4-2.63-13.63-8.45-18-11.1C545.16,162.92,548.4,159.41,548.78,159Z"/><path class="cls-9" d="M615.18,168.59A25,25,0,0,1,621,173c-1,.79-1.84,1.75-2.77,2.63-2.67,2.62-5.25,5.35-8,7.89a16.88,16.88,0,0,0-2.5-1.94c1.88-3.28,3.78-6.55,5.67-9.82l1.1-1.91c.25-.43.48-.86.71-1.29Z"/><path class="cls-3" d="M690.08,181.18s3.33,1.44,4.93,2.24q-1.81,2.91-3.63,5.82c-2,3.21-4.07,6.39-6,9.67a12.4,12.4,0,0,0-3-1.37c1.18-3.54,3.31-10.69,3.31-10.69l2.38-6.06a13.4,13.4,0,0,1,2,.4Z"/><path class="cls-9" d="M555.6,190.17a30.14,30.14,0,0,1-.71,6c-3.12-.84-6.28-1.52-9.39-2.42a2.1,2.1,0,0,0-1.63.06,14,14,0,0,0,.49-3.56c3.75.1,7.49-.06,11.24-.08Z"/><path class="cls-9" d="M618,210.42c-1.41,3.51-2.83,7-4.23,10.52a14.39,14.39,0,0,0-3-.7c.54-3.78.95-7.58,1.41-11.37,2,.45,3.9,1,5.85,1.54Z"/><path class="cls-6" d="M576.87,217.4c-3.66-1-7.28-2.12-10.9-3.21l.17,0a23.94,23.94,0,0,1,3.64-7.16c3,2.23,6,4.4,8.93,6.68a12.68,12.68,0,0,0-1.83,3.71Z"/><path class="cls-6" d="M704.89,214.26l-.17.56c-.34,1-.79,1.9-1.16,2.87-1.48,3.44-2.9,6.89-4.39,10.32a13.53,13.53,0,0,0-3.11-.83c.58-3.72,1-7.45,1.54-11.17.15-1.21.33-2.41.51-3.61a34.77,34.77,0,0,1,6.78,1.86Z"/><path class="cls-8" d="M578.6,256.63c1-3.58,1.93-7.2,3.06-10.75l.54.09a15.06,15.06,0,0,0,2.69.34c-.15,5.32-.15,10.64-.21,16,0,.52-.1,1-.15,1.55-1.07,0-3.19-.22-3.19-.22l-1.25-.12s-2.16-.5-3.21-.85l.13-.4c.59-1.85,1-3.74,1.58-5.6Z"/><path class="cls-2" d="M638.71,244.57c-2.83,2.34-5.86,4.44-8.74,6.72a22.77,22.77,0,0,1-4.28-9.1l10.82-2.33a13.52,13.52,0,0,0,1.56,3.77c.2.32.43.62.63.94Z"/><path class="cls-4" d="M654.95,162s4.44-6,6.69-9a13.3,13.3,0,0,0,3.81,2c-1.2,3.49-2.18,7-3.25,10.57-.37,1.17-.72,2.34-1.1,3.51-.56-.19-4.47-1.67-4.47-1.67L653,165.66a25.62,25.62,0,0,1,1.93-3.7Z"/><path class="cls-6" d="M521.69,221.51a12.09,12.09,0,0,0,2.87-2l7.59,8.06,1.39,1.46c-.7.63-2.14,1.81-2.14,1.81l-1,.72s-1.55,1-2.37,1.4l-1-1.79c-1.19-2.34-2.5-4.6-3.71-6.92a11.54,11.54,0,0,0-1.65-2.71Z"/><path class="cls-4" d="M674.94,234.38a11.52,11.52,0,0,1-1.42,2.84c-1.32,2.26-2.55,4.57-3.89,6.82a25.19,25.19,0,0,1-3.22-2.3c2.13-3,4.64-5.65,7-8.49a18.4,18.4,0,0,0,1.58,1.12Z"/><path class="cls-5" d="M645.57,198.69l.59-.77c3.07,2,6,4.19,9.2,6,1.14.78,2.28,1.57,3.45,2.31.91.57,1.79,1.17,2.66,1.8l-.23.76-.82.89-.52.55c-.59-.45-1.18-.9-1.75-1.37-1.28-1.09-2.62-2.11-4-3.15l-.18.17c-.74-1.43-2.23-2.19-3.39-3.23-1.63-1.39-3.53-2.42-5-3.94Z"/><path class="cls-10" d="M554.76,239.95c-2.92-2.41-5.72-5-8.56-7.48l-.37-1a25.7,25.7,0,0,1,6.48-5.23c1.76,3.27,4,7.84,5.66,11.14a12.7,12.7,0,0,0-3.22,2.6Z"/><path class="cls-5" d="M716.64,186.44c.57.47,5,4.63,5.57,5.13l1.24,1.13c2.85,2.54,5.74,5,8.53,7.64a13.53,13.53,0,0,0-1.26,1.63c-4.4-2.63-13.63-8.45-18-11.11C713,190.41,716.26,186.89,716.64,186.44Z"/><path class="cls-11" d="M689.27,144.44a25,25,0,0,1,5.8,4.45c-1,.79-1.84,1.75-2.77,2.63-2.67,2.62-5.25,5.35-8,7.89a17,17,0,0,0-2.5-1.94c1.88-3.28,3.78-6.55,5.67-9.82l1.1-1.91c.25-.43.48-.86.71-1.29Z"/><path class="cls-3" d="M766.45,167.5s3.33,1.44,4.93,2.24q-1.8,2.91-3.63,5.82c-2,3.21-4.07,6.39-6,9.67a12.42,12.42,0,0,0-3-1.37c1.18-3.54,3.31-10.69,3.31-10.69l2.38-6.06a13.47,13.47,0,0,1,2,.4Z"/><path class="cls-2" d="M723.47,217.65a30.21,30.21,0,0,1-.71,6c-3.12-.84-6.28-1.52-9.39-2.42a2.11,2.11,0,0,0-1.63.06,14,14,0,0,0,.49-3.56c3.75.1,7.49-.06,11.24-.08Z"/><path class="cls-5" d="M658.45,262.81c-1.41,3.51-2.83,7-4.23,10.52a14.47,14.47,0,0,0-3-.7c.54-3.78.95-7.58,1.41-11.37,2,.46,3.9,1,5.85,1.54Z"/><path class="cls-6" d="M744.73,244.89c-3.66-1-7.28-2.12-10.9-3.21l.17,0a23.93,23.93,0,0,1,3.64-7.16c3,2.24,6,4.4,8.93,6.68a12.65,12.65,0,0,0-1.84,3.71Z"/><path class="cls-6" d="M750.29,148.76l-.17.56c-.35,1-.79,1.9-1.17,2.87-1.48,3.44-2.9,6.89-4.39,10.32a13.52,13.52,0,0,0-3.11-.83c.57-3.72,1-7.45,1.54-11.17.15-1.21.33-2.41.51-3.61a34.73,34.73,0,0,1,6.78,1.86Z"/><path class="cls-8" d="M757.08,221.31c1-3.58,1.93-7.2,3.06-10.75l.54.09a14.93,14.93,0,0,0,2.69.34c-.14,5.32-.14,10.64-.2,16,0,.52-.1,1-.15,1.55-1.07,0-3.19-.22-3.19-.22l-1.25-.12s-2.16-.5-3.21-.85l.13-.4c.59-1.85,1-3.74,1.58-5.6Z"/><path class="cls-9" d="M550.51,260.36c-2.83,2.34-5.86,4.44-8.74,6.72a22.78,22.78,0,0,1-4.28-9.1l10.83-2.33a13.44,13.44,0,0,0,1.56,3.77c.2.32.43.63.63.94Z"/><path class="cls-4" d="M583.92,151.64s4.44-6,6.69-9a13.29,13.29,0,0,0,3.81,2c-1.2,3.49-2.18,7-3.25,10.57-.36,1.17-.72,2.34-1.1,3.51-.56-.19-4.47-1.67-4.47-1.67L582,155.33a25.9,25.9,0,0,1,1.93-3.7Z"/><path class="cls-6" d="M689.56,249a12.07,12.07,0,0,0,2.87-2L700,255l1.39,1.46c-.7.63-2.14,1.82-2.14,1.82l-1,.72s-1.55,1-2.37,1.4l-1-1.79c-1.19-2.33-2.5-4.6-3.71-6.92a11.54,11.54,0,0,0-1.65-2.71Z"/><path class="cls-1" d="M720.34,168.88a11.62,11.62,0,0,1-1.42,2.84c-1.32,2.26-2.55,4.57-3.89,6.82a25,25,0,0,1-3.22-2.3c2.13-3,4.64-5.65,7-8.48a18.18,18.18,0,0,0,1.58,1.12Z"/><path class="cls-9" d="M601.45,271.73,602,271c3.07,2,6,4.19,9.2,6,1.14.78,2.28,1.57,3.45,2.3.91.57,1.79,1.17,2.66,1.8l-.23.76-.82.9-.52.55c-.59-.45-1.18-.9-1.75-1.37-1.29-1.09-2.63-2.11-4-3.15l-.18.17c-.74-1.43-2.23-2.19-3.4-3.23-1.63-1.39-3.52-2.42-5-3.94Z"/><path class="cls-10" d="M722.62,267.43c-2.92-2.41-5.72-5-8.56-7.48l-.37-1a25.79,25.79,0,0,1,6.48-5.23c1.76,3.27,4,7.85,5.66,11.14a12.76,12.76,0,0,0-3.22,2.6Z"/><path class="cls-1" d="M461.16,243.44c.57.47,5,4.63,5.57,5.13L468,249.7c2.85,2.54,5.74,5,8.53,7.64a13.89,13.89,0,0,0-1.26,1.63c-4.4-2.63-13.63-8.45-18-11.11C457.54,247.4,460.78,243.89,461.16,243.44Z"/><path class="cls-1" d="M756.15,303.64c-.57.47-5,4.63-5.57,5.13l-1.24,1.13c-2.85,2.54-5.74,5-8.53,7.64a13.46,13.46,0,0,1,1.26,1.63c4.4-2.63,13.63-8.45,18-11.11C759.76,307.61,756.52,304.09,756.15,303.64Z"/><path class="cls-9" d="M689.75,313.27a24.93,24.93,0,0,0-5.8,4.46c1,.79,1.84,1.75,2.77,2.62,2.67,2.62,5.25,5.35,8,7.89a16.91,16.91,0,0,1,2.5-1.94c-1.88-3.28-3.78-6.55-5.67-9.82l-1.1-1.91c-.25-.43-.48-.86-.71-1.29Z"/><path class="cls-3" d="M614.85,325.87s-3.33,1.44-4.93,2.24q1.81,2.91,3.63,5.82c2,3.21,4.06,6.39,6,9.67a12.38,12.38,0,0,1,3-1.37c-1.18-3.54-3.31-10.7-3.31-10.7l-2.38-6.06a13.44,13.44,0,0,0-2,.4Z"/><path class="cls-4" d="M749.32,334.85a30.29,30.29,0,0,0,.71,6c3.12-.84,6.28-1.52,9.39-2.42a2.09,2.09,0,0,1,1.63.06,14,14,0,0,1-.49-3.56c-3.75.1-7.49-.06-11.24-.08Z"/><path class="cls-5" d="M686.88,355.11c1.41,3.51,2.83,7,4.23,10.52a14.5,14.5,0,0,1,3-.7c-.54-3.78-.95-7.58-1.41-11.37-2,.46-3.9,1-5.85,1.54Z"/><path class="cls-6" d="M728.05,362.08c3.66-1,7.28-2.12,10.9-3.21l-.17,0a23.94,23.94,0,0,0-3.63-7.16c-3,2.24-6,4.4-8.93,6.68a12.71,12.71,0,0,1,1.83,3.71Z"/><path class="cls-7" d="M600,358.95l.17.55c.34,1,.79,1.9,1.16,2.87,1.48,3.44,2.9,6.89,4.39,10.32a13.56,13.56,0,0,1,3.11-.83c-.57-3.72-1-7.45-1.54-11.17-.15-1.21-.33-2.41-.51-3.61a34.76,34.76,0,0,0-6.78,1.86Z"/><path class="cls-8" d="M726.33,401.32c-1-3.58-1.93-7.2-3.06-10.75l-.54.09A15.28,15.28,0,0,1,720,391c.14,5.32.15,10.64.2,16,0,.52.1,1,.15,1.54,1.07,0,3.19-.21,3.19-.21l1.25-.12s2.16-.5,3.21-.85c0-.1-.09-.3-.13-.4-.59-1.85-1-3.74-1.58-5.6Z"/><path class="cls-2" d="M666.21,389.25c2.83,2.35,5.86,4.44,8.74,6.72a22.77,22.77,0,0,0,4.28-9.1l-10.82-2.32a13.53,13.53,0,0,1-1.56,3.76c-.2.32-.43.63-.63.94Z"/><path class="cls-8" d="M655.55,296.53s-4.44-6-6.69-9a13.27,13.27,0,0,1-3.81,2c1.2,3.49,2.18,7,3.25,10.57.36,1.17.72,2.34,1.1,3.51.56-.19,4.47-1.67,4.47-1.67l3.61-1.73a25.69,25.69,0,0,0-1.93-3.7Z"/><path class="cls-6" d="M783.23,366.2a12.07,12.07,0,0,1-2.87-2l-7.59,8.06-1.39,1.46c.7.63,2.14,1.81,2.14,1.81l1,.72s1.55,1,2.37,1.4l1-1.79c1.19-2.34,2.5-4.6,3.71-6.92a11.54,11.54,0,0,1,1.65-2.71Z"/><path class="cls-9" d="M630,379.07a11.56,11.56,0,0,0,1.42,2.84c1.32,2.26,2.54,4.57,3.89,6.82a25.24,25.24,0,0,0,3.22-2.3c-2.13-3-4.64-5.65-7-8.48a18.11,18.11,0,0,1-1.58,1.12Z"/><path class="cls-8" d="M659.36,343.38l-.59-.77c-3.07,2-6,4.19-9.2,6-1.14.78-2.28,1.57-3.45,2.3-.91.57-1.79,1.17-2.66,1.8l.23.76.82.89.52.55c.59-.45,1.18-.9,1.75-1.37,1.29-1.09,2.63-2.11,4-3.15l.18.17c.74-1.43,2.23-2.19,3.39-3.23,1.63-1.38,3.53-2.42,5-3.94Z"/><path class="cls-10" d="M750.17,384.63c2.92-2.41,5.72-5,8.56-7.47l.37-1a25.76,25.76,0,0,0-6.48-5.23c-1.76,3.27-4,7.84-5.66,11.15a12.68,12.68,0,0,1,3.22,2.6Z"/><path class="cls-1" d="M588.29,331.13c-.57.47-5,4.63-5.57,5.13l-1.24,1.13c-2.85,2.54-5.74,5-8.53,7.64a13.66,13.66,0,0,1,1.26,1.63c4.4-2.63,13.63-8.45,18-11.11C591.9,335.09,588.66,331.58,588.29,331.13Z"/><path class="cls-7" d="M615.66,289.12a25,25,0,0,0-5.8,4.46c1,.79,1.84,1.75,2.77,2.62,2.67,2.62,5.25,5.35,8,7.89a16.76,16.76,0,0,1,2.5-1.94c-1.88-3.28-3.78-6.55-5.67-9.82l-1.1-1.91c-.25-.43-.48-.86-.71-1.29Z"/><path class="cls-7" d="M538.48,312.19s-3.33,1.44-4.93,2.24q1.8,2.91,3.63,5.82c2,3.21,4.06,6.39,6,9.67a12.45,12.45,0,0,1,3-1.37c-1.18-3.54-3.31-10.69-3.31-10.69l-2.38-6.06a13.35,13.35,0,0,0-2,.4Z"/><path class="cls-2" d="M581.46,362.34a30.21,30.21,0,0,0,.71,6c3.12-.84,6.29-1.52,9.39-2.42a2.1,2.1,0,0,1,1.62.06,14,14,0,0,1-.49-3.56c-3.75.1-7.49-.06-11.24-.08Z"/><path class="cls-8" d="M646.48,407.5c1.41,3.51,2.83,7,4.23,10.53a14.27,14.27,0,0,1,3-.7c-.54-3.78-.95-7.58-1.41-11.37-2,.45-3.9,1-5.85,1.54Z"/><path class="cls-6" d="M560.19,389.57c3.66-1,7.28-2.12,10.9-3.21l-.17,0a23.92,23.92,0,0,0-3.63-7.16c-3,2.23-6,4.4-8.93,6.68a12.67,12.67,0,0,1,1.83,3.71Z"/><path class="cls-6" d="M554.63,293.45l.17.55c.34,1,.79,1.9,1.16,2.87,1.48,3.43,2.9,6.89,4.39,10.32a13.55,13.55,0,0,1,3.11-.83c-.57-3.72-1-7.45-1.54-11.17-.15-1.21-.33-2.41-.51-3.61a34.8,34.8,0,0,0-6.78,1.86Z"/><path class="cls-8" d="M547.85,366c-1-3.58-1.93-7.2-3.06-10.75l-.54.09a14.92,14.92,0,0,1-2.69.34c.14,5.32.14,10.64.2,16,0,.52.1,1,.15,1.54,1.07,0,3.19-.21,3.19-.21l1.25-.12s2.16-.5,3.21-.85l-.13-.4c-.59-1.85-1-3.74-1.58-5.6Z"/><path class="cls-2" d="M754.42,405c2.83,2.35,5.86,4.44,8.74,6.72a22.76,22.76,0,0,0,4.28-9.1l-10.82-2.32a13.47,13.47,0,0,1-1.56,3.76c-.2.32-.43.63-.63.94Z"/><path class="cls-4" d="M721,296.32s-4.44-6-6.69-9a13.25,13.25,0,0,1-3.81,2c1.2,3.49,2.19,7,3.25,10.57.36,1.17.72,2.34,1.1,3.51.56-.19,4.47-1.67,4.47-1.67l3.61-1.73a25.72,25.72,0,0,0-1.93-3.7Z"/><path class="cls-6" d="M615.37,393.68a12.12,12.12,0,0,1-2.87-2l-7.59,8.06-1.39,1.46c.7.63,2.14,1.81,2.14,1.81l1,.72s1.55,1,2.37,1.4l1-1.79c1.19-2.34,2.5-4.6,3.71-6.92a11.58,11.58,0,0,1,1.65-2.71Z"/><path class="cls-8" d="M584.59,313.57a11.67,11.67,0,0,0,1.42,2.84c1.32,2.26,2.55,4.57,3.89,6.82a25,25,0,0,0,3.22-2.3c-2.13-3-4.64-5.65-7-8.48a18.45,18.45,0,0,1-1.58,1.12Z"/><path class="cls-10" d="M582.31,412.12c2.92-2.41,5.72-5,8.56-7.47l.37-1a25.74,25.74,0,0,0-6.48-5.23c-1.76,3.27-3.95,7.84-5.66,11.15a12.72,12.72,0,0,1,3.22,2.6Z"/><path class="cls-5" d="M507.63,280.79c-.57.47-5,4.63-5.57,5.13L500.82,287c-2.85,2.54-5.74,5-8.53,7.64a13.78,13.78,0,0,1,1.26,1.63c4.4-2.63,13.63-8.45,18-11.11C511.24,284.75,508,281.24,507.63,280.79Z"/><path class="cls-1" d="M441.23,290.42a25,25,0,0,0-5.8,4.45c1,.79,1.84,1.75,2.77,2.63,2.67,2.62,5.25,5.35,8,7.89a16.7,16.7,0,0,1,2.5-1.94c-1.88-3.28-3.78-6.55-5.67-9.82l-1.1-1.91c-.25-.43-.48-.86-.71-1.29Z"/><path class="cls-3" d="M366.33,303s-3.33,1.44-4.93,2.24q1.81,2.91,3.63,5.82c2,3.21,4.06,6.39,6,9.67a12.32,12.32,0,0,1,3-1.37c-1.18-3.54-3.31-10.7-3.31-10.7l-2.38-6.06a13.39,13.39,0,0,0-2,.4Z"/><path class="cls-2" d="M500.8,312a30.2,30.2,0,0,0,.71,6c3.12-.84,6.29-1.52,9.39-2.42a2.11,2.11,0,0,1,1.63.06,14,14,0,0,1-.49-3.56c-3.75.1-7.49-.06-11.24-.08Z"/><path class="cls-5" d="M438.36,332.25c1.41,3.51,2.83,7,4.23,10.52a14.44,14.44,0,0,1,3-.7c-.54-3.78-.95-7.58-1.41-11.37-2,.45-3.9,1-5.85,1.54Z"/><path class="cls-6" d="M479.53,339.23c3.66-1,7.28-2.12,10.9-3.21l-.17,0a23.88,23.88,0,0,0-3.64-7.16c-3,2.24-6,4.4-8.93,6.68a12.69,12.69,0,0,1,1.83,3.71Z"/><path class="cls-11" d="M351.52,336.09l.17.56c.34,1,.79,1.9,1.17,2.87,1.48,3.44,2.9,6.89,4.39,10.32a13.56,13.56,0,0,1,3.11-.83c-.57-3.72-1-7.45-1.54-11.17-.15-1.21-.33-2.41-.51-3.61a34.73,34.73,0,0,0-6.78,1.86Z"/><path class="cls-8" d="M477.81,378.47c-1-3.58-1.93-7.2-3.06-10.75l-.54.09a15.11,15.11,0,0,1-2.69.34c.15,5.32.15,10.64.2,16,0,.52.1,1,.15,1.55,1.07,0,3.19-.21,3.19-.21l1.25-.12s2.16-.5,3.21-.85l-.13-.4c-.59-1.85-1-3.74-1.58-5.6Z"/><path class="cls-2" d="M417.7,366.4c2.83,2.35,5.86,4.44,8.74,6.72a22.77,22.77,0,0,0,4.28-9.1l-10.83-2.33a13.43,13.43,0,0,1-1.56,3.76c-.2.32-.43.63-.63.94Z"/><path class="cls-4" d="M407,273.68s-4.44-6-6.69-9a13.25,13.25,0,0,1-3.81,2c1.2,3.49,2.19,7,3.25,10.57.36,1.17.72,2.34,1.1,3.51.56-.19,4.47-1.67,4.47-1.67l3.61-1.73a26,26,0,0,0-1.93-3.7Z"/><path class="cls-6" d="M534.71,343.34a12.09,12.09,0,0,1-2.87-2l-7.59,8.06-1.39,1.46c.7.63,2.14,1.82,2.14,1.82l1,.72s1.55,1,2.37,1.4l1-1.79c1.19-2.33,2.5-4.6,3.71-6.92a11.56,11.56,0,0,1,1.65-2.71Z"/><path class="cls-7" d="M381.47,356.22a11.56,11.56,0,0,0,1.42,2.84c1.32,2.26,2.54,4.57,3.89,6.82a25.12,25.12,0,0,0,3.22-2.29c-2.13-3-4.64-5.65-7-8.49a18.58,18.58,0,0,1-1.58,1.12Z"/><path class="cls-8" d="M410.84,320.53l-.59-.77c-3.07,2-6,4.19-9.2,6-1.14.78-2.28,1.57-3.45,2.3-.91.57-1.79,1.17-2.66,1.8l.23.76.82.89.52.55c.59-.45,1.18-.9,1.75-1.37,1.29-1.09,2.63-2.11,4-3.15l.18.17c.74-1.43,2.23-2.19,3.39-3.23,1.63-1.39,3.53-2.42,5-3.94Z"/><path class="cls-10" d="M501.65,361.78c2.92-2.41,5.72-5,8.56-7.48l.37-1a25.75,25.75,0,0,0-6.48-5.23c-1.76,3.27-3.95,7.84-5.66,11.15a12.73,12.73,0,0,1,3.22,2.6Z"/><path class="cls-5" d="M339.77,308.27c-.57.47-5,4.63-5.57,5.13L333,314.54c-2.85,2.54-5.74,5-8.53,7.64a13.58,13.58,0,0,1,1.26,1.63c4.4-2.63,13.63-8.45,18-11.11C343.38,312.24,340.14,308.73,339.77,308.27Z"/><path class="cls-9" d="M367.14,266.27a25,25,0,0,0-5.8,4.46c1,.79,1.84,1.75,2.77,2.62,2.67,2.62,5.25,5.35,8,7.89a16.86,16.86,0,0,1,2.5-1.94c-1.88-3.28-3.78-6.55-5.67-9.82l-1.1-1.91c-.25-.43-.48-.86-.71-1.29Z"/><path class="cls-8" d="M290,289.33s-3.33,1.44-4.93,2.24q1.81,2.91,3.63,5.82c2,3.21,4.07,6.39,6,9.67a12.34,12.34,0,0,1,3-1.37c-1.18-3.54-3.31-10.69-3.31-10.69L292,288.94a13.4,13.4,0,0,0-2,.4Z"/><path class="cls-2" d="M332.94,339.49a30.36,30.36,0,0,0,.71,6c3.12-.84,6.28-1.52,9.39-2.42a2.1,2.1,0,0,1,1.63.06,13.92,13.92,0,0,1-.49-3.56c-3.75.1-7.49-.06-11.24-.08Z"/><path class="cls-5" d="M398,384.65c1.41,3.51,2.83,7,4.23,10.52a14.4,14.4,0,0,1,3-.7c-.54-3.78-.95-7.58-1.41-11.37-2,.45-3.9,1-5.85,1.54Z"/><path class="cls-6" d="M311.67,366.72c3.66-1,7.28-2.12,10.9-3.21l-.17,0a23.9,23.9,0,0,0-3.63-7.16c-3,2.24-6,4.4-8.93,6.68a12.69,12.69,0,0,1,1.83,3.71Z"/><path class="cls-6" d="M306.12,270.59l.17.56c.34,1,.79,1.9,1.16,2.87,1.48,3.44,2.9,6.89,4.39,10.32a13.51,13.51,0,0,1,3.11-.83c-.58-3.72-1-7.45-1.54-11.17-.15-1.21-.33-2.41-.51-3.61a34.78,34.78,0,0,0-6.78,1.86Z"/><path class="cls-8" d="M299.33,343.14c-1-3.58-1.93-7.2-3.06-10.75l-.54.09a14.94,14.94,0,0,1-2.69.34c.15,5.32.15,10.64.2,16,0,.52.1,1,.15,1.55,1.07,0,3.19-.22,3.19-.22l1.25-.12s2.16-.5,3.21-.85l-.12-.4c-.59-1.85-1-3.74-1.58-5.6Z"/><path class="cls-2" d="M505.9,382.19c2.83,2.35,5.86,4.44,8.74,6.72a22.77,22.77,0,0,0,4.28-9.1l-10.83-2.33a13.52,13.52,0,0,1-1.56,3.77c-.2.32-.43.63-.63.94Z"/><path class="cls-4" d="M472.49,273.47s-4.44-6-6.69-9a13.3,13.3,0,0,1-3.81,2c1.2,3.49,2.18,7,3.25,10.57.36,1.17.72,2.34,1.1,3.51.56-.19,4.47-1.67,4.47-1.67l3.61-1.73a25.67,25.67,0,0,0-1.93-3.7Z"/><path class="cls-6" d="M366.85,370.83a12.09,12.09,0,0,1-2.87-2l-7.59,8.06L355,378.33c.7.63,2.14,1.81,2.14,1.81l1,.72s1.55,1,2.37,1.4l1-1.79c1.19-2.34,2.5-4.6,3.71-6.92a11.57,11.57,0,0,1,1.65-2.71Z"/><path class="cls-1" d="M336.07,290.72a11.58,11.58,0,0,0,1.42,2.84c1.32,2.26,2.54,4.57,3.89,6.82a25.06,25.06,0,0,0,3.22-2.3c-2.13-3-4.64-5.65-7-8.48a18.63,18.63,0,0,1-1.58,1.12Z"/><path class="cls-1" d="M455,393.56l-.59-.77c-3.07,2-6,4.19-9.2,6-1.14.78-2.28,1.57-3.45,2.3-.91.57-1.79,1.17-2.66,1.8l.23.76.82.89.52.55c.59-.45,1.18-.9,1.75-1.37,1.29-1.09,2.63-2.11,4-3.15l.18.17c.74-1.43,2.23-2.19,3.4-3.23,1.63-1.38,3.53-2.42,5-3.94Z"/><path class="cls-10" d="M333.79,389.27c2.92-2.41,5.72-5,8.56-7.47l.37-1a25.69,25.69,0,0,0-6.48-5.23c-1.76,3.27-4,7.84-5.66,11.14a12.75,12.75,0,0,1,3.22,2.6Z"/><path class="cls-5" d="M552.48,403.66c-.57.47-5,4.63-5.57,5.13l-1.24,1.13c-2.85,2.54-5.74,5-8.53,7.64a13.68,13.68,0,0,1,1.26,1.63c4.4-2.63,13.63-8.45,18-11.11C556.09,407.63,552.85,404.12,552.48,403.66Z"/><path class="cls-4" d="M426.25,406s-4.44-6-6.69-9a13.27,13.27,0,0,1-3.81,2c1.2,3.49,2.19,7,3.25,10.57.36,1.17.72,2.34,1.1,3.51.56-.19,4.47-1.67,4.47-1.67l3.61-1.73a25.59,25.59,0,0,0-1.93-3.7Z"/><path class="cls-9" d="M386.35,398.63a25,25,0,0,0-5.8,4.46c1,.79,1.84,1.75,2.77,2.63,2.67,2.62,5.25,5.35,8,7.89a17,17,0,0,1,2.5-1.94c-1.88-3.28-3.78-6.54-5.67-9.82l-1.1-1.91c-.25-.43-.48-.86-.71-1.29Z"/><path class="cls-6" d="M325.33,403l.17.56c.34,1,.79,1.9,1.16,2.87,1.48,3.44,2.9,6.89,4.39,10.32a13.55,13.55,0,0,1,3.11-.83c-.58-3.72-1-7.45-1.54-11.17-.15-1.21-.33-2.41-.51-3.61a34.9,34.9,0,0,0-6.78,1.86Z"/><path class="cls-4" d="M253.45,322.45s-3.33,1.44-4.93,2.24q1.81,2.91,3.63,5.82c2,3.21,4.07,6.39,6,9.67a12.4,12.4,0,0,1,3-1.37c-1.18-3.54-3.31-10.69-3.31-10.69L255.46,322a13.34,13.34,0,0,0-2,.4Z"/><path class="cls-6" d="M269.6,303.71l.17.56c.35,1,.79,1.9,1.16,2.87,1.48,3.44,2.9,6.89,4.39,10.32a13.52,13.52,0,0,1,3.11-.83c-.57-3.72-1-7.45-1.54-11.17-.15-1.21-.33-2.41-.51-3.6a34.74,34.74,0,0,0-6.78,1.86Z"/><path class="cls-8" d="M262.82,376.26c-1-3.58-1.93-7.2-3.06-10.75l-.54.09a15.1,15.1,0,0,1-2.69.34c.15,5.32.15,10.64.2,16,0,.52.1,1,.15,1.55,1.07,0,3.19-.21,3.19-.21l1.25-.12s2.16-.5,3.21-.85l-.12-.4c-.59-1.85-1-3.74-1.58-5.6Z"/><path class="cls-1" d="M222.6,291c-.57.47-5,4.63-5.57,5.13l-1.24,1.13c-2.85,2.54-5.74,5-8.53,7.64a13.83,13.83,0,0,1,1.26,1.63c4.4-2.63,13.63-8.45,18-11.1C226.21,295,223,291.5,222.6,291Z"/><path class="cls-9" d="M156.2,300.68a25,25,0,0,0-5.8,4.45c1,.79,1.84,1.75,2.77,2.62,2.67,2.62,5.25,5.35,8,7.89a16.7,16.7,0,0,1,2.5-1.94c-1.88-3.28-3.78-6.55-5.67-9.82L156.9,302c-.25-.43-.48-.86-.71-1.29Z"/><path class="cls-3" d="M81.3,313.28s-3.33,1.44-4.93,2.24q1.81,2.91,3.63,5.82c2,3.21,4.06,6.39,6,9.67a12.44,12.44,0,0,1,3-1.37c-1.18-3.54-3.31-10.69-3.31-10.69l-2.38-6.06a13.6,13.6,0,0,0-2,.4Z"/><path class="cls-2" d="M215.77,322.26a30.23,30.23,0,0,0,.71,6c3.12-.84,6.28-1.52,9.39-2.42a2.11,2.11,0,0,1,1.63.06,14,14,0,0,1-.49-3.56c-3.75.1-7.49-.06-11.24-.08Z"/><path class="cls-2" d="M153.33,342.51c1.41,3.51,2.83,7,4.23,10.52a14.51,14.51,0,0,1,3-.7c-.54-3.78-.95-7.58-1.41-11.37-2,.45-3.9,1-5.85,1.54Z"/><path class="cls-6" d="M194.5,349.49c3.66-1,7.28-2.12,10.9-3.21l-.17,0a24,24,0,0,0-3.63-7.16c-3,2.24-6,4.4-8.93,6.68a12.71,12.71,0,0,1,1.83,3.71Z"/><path class="cls-6" d="M66.48,346.35l.17.56c.34,1,.79,1.9,1.16,2.87,1.48,3.44,2.9,6.89,4.39,10.32a13.49,13.49,0,0,1,3.11-.83c-.58-3.72-1-7.45-1.54-11.17-.15-1.21-.33-2.41-.51-3.6a34.75,34.75,0,0,0-6.78,1.86Z"/><path class="cls-8" d="M192.77,388.73c-1-3.58-1.93-7.2-3.06-10.75l-.54.09a14.93,14.93,0,0,1-2.69.34c.15,5.32.15,10.64.21,16,0,.52.1,1,.15,1.54,1.06,0,3.19-.21,3.19-.21l1.25-.12s2.16-.5,3.21-.85l-.12-.4c-.59-1.85-1-3.74-1.58-5.6Z"/><path class="cls-2" d="M132.66,376.66c2.83,2.35,5.86,4.44,8.74,6.72a22.77,22.77,0,0,0,4.28-9.1L134.86,372a13.5,13.5,0,0,1-1.56,3.77c-.2.32-.43.63-.63.94Z"/><path class="cls-4" d="M116.56,314.19s-4.44-6-6.69-9a13.29,13.29,0,0,1-3.81,2c1.2,3.49,2.18,7,3.25,10.57.36,1.17.72,2.34,1.1,3.51.56-.19,4.47-1.67,4.47-1.67l3.61-1.73a25.79,25.79,0,0,0-1.93-3.7Z"/><path class="cls-6" d="M249.68,353.6a12.12,12.12,0,0,1-2.87-2l-7.59,8.06-1.39,1.46c.7.63,2.14,1.81,2.14,1.81l1,.72s1.55,1,2.37,1.4l1-1.79c1.19-2.33,2.5-4.6,3.71-6.92a11.54,11.54,0,0,1,1.65-2.71Z"/><path class="cls-4" d="M96.44,366.48a11.58,11.58,0,0,0,1.42,2.84c1.32,2.26,2.55,4.57,3.89,6.82a25.08,25.08,0,0,0,3.22-2.3c-2.13-3-4.64-5.65-7-8.48a18.42,18.42,0,0,1-1.58,1.12Z"/><path class="cls-5" d="M125.81,330.79l-.59-.77c-3.07,2-6,4.19-9.2,6-1.14.78-2.28,1.57-3.45,2.31-.91.57-1.79,1.17-2.66,1.79l.23.76.82.89.52.55c.59-.45,1.18-.9,1.75-1.37,1.29-1.09,2.62-2.11,4-3.15l.18.17c.74-1.43,2.24-2.19,3.4-3.23,1.63-1.39,3.52-2.42,5-3.94Z"/><path class="cls-10" d="M216.62,372c2.92-2.41,5.72-5,8.56-7.47l.37-1a25.74,25.74,0,0,0-6.48-5.23c-1.76,3.27-4,7.84-5.66,11.15a12.72,12.72,0,0,1,3.22,2.6Z"/><path class="cls-5" d="M54.74,318.53c-.57.47-5,4.63-5.57,5.13l-1.24,1.13c-2.85,2.54-5.74,5-8.53,7.64a13.76,13.76,0,0,1,1.26,1.63c4.4-2.63,13.63-8.45,18-11.11C58.35,322.5,55.11,319,54.74,318.53Z"/><path class="cls-11" d="M82.1,276.53a24.92,24.92,0,0,0-5.8,4.45c1,.79,1.84,1.75,2.77,2.62,2.67,2.62,5.25,5.35,8,7.89a16.85,16.85,0,0,1,2.5-1.94c-1.88-3.28-3.78-6.55-5.67-9.82l-1.1-1.91c-.25-.43-.48-.86-.71-1.29Z"/><path class="cls-3" d="M4.93,299.59S1.6,301,0,301.83q1.81,2.91,3.63,5.82c2,3.21,4.07,6.39,6,9.67a12.47,12.47,0,0,1,3-1.37c-1.18-3.54-3.31-10.69-3.31-10.69L6.94,299.2a13.36,13.36,0,0,0-2,.4Z"/><path class="cls-2" d="M47.91,349.75a30.14,30.14,0,0,0,.71,6c3.12-.84,6.28-1.52,9.39-2.42a2.09,2.09,0,0,1,1.63.06,14,14,0,0,1-.49-3.56c-3.75.1-7.49-.06-11.24-.08Z"/><path class="cls-5" d="M112.93,394.91c1.41,3.51,2.83,7,4.23,10.52a14.38,14.38,0,0,1,3-.7c-.54-3.78-.95-7.58-1.41-11.37-2,.46-3.9,1-5.85,1.54Z"/><path class="cls-6" d="M26.64,377c3.66-1,7.28-2.12,10.9-3.21l-.17,0a24,24,0,0,0-3.63-7.16c-3,2.24-6,4.4-8.93,6.68A12.69,12.69,0,0,1,26.64,377Z"/><path class="cls-6" d="M21.09,280.85l.16.56c.35,1,.79,1.9,1.17,2.87,1.48,3.44,2.9,6.89,4.39,10.32a13.49,13.49,0,0,1,3.11-.83c-.57-3.72-1-7.45-1.54-11.17-.15-1.21-.33-2.41-.51-3.61a34.75,34.75,0,0,0-6.78,1.86Z"/><path class="cls-8" d="M14.3,353.41c-1-3.58-1.93-7.2-3.06-10.75l-.54.09a15,15,0,0,1-2.69.34c.14,5.32.14,10.64.2,16,0,.52.1,1,.15,1.55,1.06,0,3.19-.22,3.19-.22l1.25-.12s2.16-.5,3.21-.85l-.12-.4c-.59-1.85-1-3.74-1.58-5.59Z"/><path class="cls-2" d="M220.87,392.45c2.83,2.34,5.86,4.44,8.74,6.72a22.75,22.75,0,0,0,4.28-9.1l-10.82-2.33a13.48,13.48,0,0,1-1.56,3.77c-.2.32-.43.63-.63.94Z"/><path class="cls-4" d="M273.31,277.38s-4.44-6-6.69-9a13.25,13.25,0,0,1-3.81,2c1.2,3.49,2.19,7,3.25,10.57.36,1.17.72,2.34,1.1,3.51.56-.19,4.47-1.67,4.47-1.67l3.61-1.73a25.83,25.83,0,0,0-1.93-3.7Z"/><path class="cls-6" d="M81.82,381.09a12.07,12.07,0,0,1-2.87-2l-7.59,8.06L70,388.59c.7.63,2.14,1.82,2.14,1.82l1,.72s1.55,1,2.37,1.4l1-1.79c1.19-2.34,2.5-4.6,3.71-6.92a11.58,11.58,0,0,1,1.65-2.71Z"/><path class="cls-1" d="M51,301a11.6,11.6,0,0,0,1.42,2.84c1.32,2.26,2.54,4.57,3.89,6.82a24.87,24.87,0,0,0,3.22-2.3c-2.13-3-4.64-5.65-7-8.48A18.43,18.43,0,0,1,51,301Z"/><path class="cls-9" d="M169.92,403.82l-.59-.77c-3.07,2-6,4.19-9.2,6-1.14.78-2.28,1.57-3.45,2.3-.91.57-1.79,1.17-2.66,1.8l.23.76.82.89.52.55c.59-.46,1.18-.9,1.75-1.37,1.29-1.09,2.63-2.11,4-3.15l.18.17c.74-1.43,2.23-2.19,3.39-3.23,1.63-1.38,3.53-2.42,5-3.94Z"/><path class="cls-10" d="M48.75,399.53c2.92-2.41,5.72-5,8.56-7.47l.37-1a25.73,25.73,0,0,0-6.48-5.22c-1.76,3.27-4,7.84-5.66,11.14a12.77,12.77,0,0,1,3.22,2.6Z"/><path class="cls-1" d="M310.22,375.53c-.57.47-5,4.63-5.57,5.13l-1.24,1.13c-2.85,2.54-5.74,5-8.53,7.64a13.91,13.91,0,0,1,1.26,1.63c4.4-2.63,13.63-8.44,18-11.1C313.83,379.5,310.59,376,310.22,375.53Z"/><path class="cls-1" d="M765.64,261.32c-.57.47-5,4.63-5.57,5.13l-1.24,1.13c-2.85,2.54-5.74,5-8.53,7.64a13.85,13.85,0,0,1,1.26,1.63c4.4-2.63,13.63-8.45,18-11.11C769.25,265.28,766,261.77,765.64,261.32Z"/><path class="cls-9" d="M721.95,445.69a25,25,0,0,0-5.8,4.45c1,.79,1.84,1.75,2.77,2.63,2.67,2.62,5.25,5.35,8,7.89a16.92,16.92,0,0,1,2.5-1.94c-1.88-3.28-3.78-6.55-5.67-9.82l-1.1-1.91c-.25-.43-.48-.86-.71-1.29Z"/><path class="cls-3" d="M647,458.29s-3.33,1.44-4.93,2.24q1.81,2.91,3.63,5.82c2,3.21,4.06,6.39,6,9.67a12.4,12.4,0,0,1,3-1.37c-1.18-3.54-3.31-10.69-3.31-10.69l-2.38-6.06a13.38,13.38,0,0,0-2,.4Z"/><path class="cls-4" d="M781.52,467.27a30.37,30.37,0,0,0,.71,6c3.12-.84,6.29-1.52,9.39-2.43a2.11,2.11,0,0,1,1.63.06,13.88,13.88,0,0,1-.49-3.56c-3.75.1-7.49-.06-11.24-.08Z"/><path class="cls-5" d="M719.08,487.53c1.41,3.51,2.83,7,4.23,10.52a14.4,14.4,0,0,1,3-.7c-.54-3.78-.95-7.58-1.41-11.37-2,.46-3.9,1-5.85,1.54Z"/><path class="cls-6" d="M760.25,494.5c3.66-1,7.28-2.12,10.9-3.21l-.17,0a24,24,0,0,0-3.63-7.16c-3,2.24-6,4.4-8.93,6.68a12.68,12.68,0,0,1,1.83,3.71Z"/><path class="cls-7" d="M632.24,491.37l.17.56c.34,1,.79,1.9,1.16,2.87,1.48,3.44,2.9,6.89,4.39,10.32a13.36,13.36,0,0,1,3.11-.83c-.58-3.72-1-7.45-1.54-11.17-.15-1.21-.33-2.4-.51-3.6a34.7,34.7,0,0,0-6.78,1.86Z"/><path class="cls-8" d="M758.53,533.74c-1-3.58-1.93-7.2-3.06-10.75l-.54.09a14.94,14.94,0,0,1-2.69.34c.15,5.32.15,10.64.2,16,0,.52.1,1,.15,1.55,1.06,0,3.19-.21,3.19-.21l1.25-.12s2.16-.5,3.21-.85l-.13-.4c-.59-1.85-1-3.74-1.58-5.6Z"/><path class="cls-2" d="M698.41,521.67c2.83,2.34,5.86,4.44,8.74,6.72a22.76,22.76,0,0,0,4.28-9.1L700.61,517a13.51,13.51,0,0,1-1.56,3.76c-.2.32-.43.63-.63.94Z"/><path class="cls-8" d="M687.75,428.95s-4.44-6-6.69-9a13.3,13.3,0,0,1-3.81,2c1.2,3.49,2.18,7,3.25,10.57.37,1.17.72,2.34,1.1,3.51.56-.19,4.47-1.67,4.47-1.67l3.61-1.73a25.72,25.72,0,0,0-1.93-3.7Z"/><path class="cls-6" d="M20.23,407.48a12,12,0,0,1-2.87-2l-7.59,8.06L8.38,415c.7.63,2.14,1.82,2.14,1.82l1,.72s1.55,1,2.37,1.4l1-1.79c1.19-2.34,2.5-4.6,3.71-6.92a11.62,11.62,0,0,1,1.65-2.71Z"/><path class="cls-9" d="M662.19,511.49a11.51,11.51,0,0,0,1.42,2.84c1.32,2.26,2.54,4.57,3.89,6.82a25.27,25.27,0,0,0,3.22-2.3c-2.13-3-4.64-5.65-7-8.48a18.82,18.82,0,0,1-1.58,1.12Z"/><path class="cls-8" d="M691.56,475.8,691,475c-3.07,2-6,4.19-9.2,6-1.14.78-2.28,1.57-3.45,2.3-.91.57-1.79,1.17-2.66,1.8l.23.76.82.9.52.55c.59-.45,1.18-.9,1.75-1.37,1.29-1.09,2.63-2.11,4-3.15l.18.17c.74-1.43,2.23-2.19,3.4-3.23,1.63-1.38,3.53-2.42,5-3.94Z"/><path class="cls-10" d="M782.37,517.05c2.92-2.41,5.72-5,8.56-7.47l.37-1a25.74,25.74,0,0,0-6.48-5.23c-1.76,3.27-3.95,7.84-5.66,11.15a12.73,12.73,0,0,1,3.22,2.6Z"/><path class="cls-1" d="M620.49,463.55c-.57.47-5,4.63-5.57,5.13l-1.24,1.13c-2.85,2.54-5.74,5-8.53,7.64a13.66,13.66,0,0,1,1.26,1.63c4.4-2.63,13.63-8.45,18-11.11C624.1,467.51,620.86,464,620.49,463.55Z"/><path class="cls-7" d="M647.86,421.54a24.89,24.89,0,0,0-5.8,4.46c1,.79,1.84,1.75,2.77,2.62,2.67,2.62,5.25,5.35,8,7.89a16.85,16.85,0,0,1,2.5-1.94c-1.88-3.28-3.78-6.55-5.67-9.82l-1.1-1.92c-.25-.43-.48-.86-.71-1.29Z"/><path class="cls-7" d="M570.68,444.6s-3.33,1.44-4.93,2.24c1.21,1.94,2.41,3.88,3.63,5.82,2,3.21,4.07,6.39,6,9.67a12.41,12.41,0,0,1,3-1.37c-1.18-3.54-3.31-10.69-3.31-10.69l-2.38-6.06a13.38,13.38,0,0,0-2,.4Z"/><path class="cls-1" d="M613.66,494.76a30.23,30.23,0,0,0,.71,6c3.12-.84,6.28-1.52,9.39-2.43a2.11,2.11,0,0,1,1.63.06,13.93,13.93,0,0,1-.49-3.56c-3.75.1-7.49-.06-11.24-.08Z"/><path class="cls-8" d="M678.68,539.92c1.41,3.51,2.83,7,4.23,10.52a14.38,14.38,0,0,1,3-.7c-.54-3.78-.95-7.58-1.41-11.37-2,.46-3.9,1-5.85,1.54Z"/><path class="cls-6" d="M592.39,522c3.66-1,7.28-2.12,10.9-3.21l-.17,0a23.93,23.93,0,0,0-3.63-7.16c-3,2.24-6,4.4-8.93,6.68a12.66,12.66,0,0,1,1.83,3.71Z"/><path class="cls-6" d="M586.83,425.87l.17.56c.34,1,.79,1.9,1.16,2.87,1.48,3.44,2.9,6.89,4.39,10.32a13.47,13.47,0,0,1,3.11-.83c-.57-3.71-1-7.45-1.54-11.17-.15-1.21-.33-2.41-.51-3.61a34.71,34.71,0,0,0-6.78,1.86Z"/><path class="cls-8" d="M580,498.42c-1-3.58-1.93-7.2-3.06-10.75l-.54.09a14.94,14.94,0,0,1-2.69.34c.15,5.32.15,10.64.2,16,0,.52.1,1,.15,1.55,1.06,0,3.19-.22,3.19-.22l1.25-.12s2.16-.5,3.21-.85l-.13-.4c-.59-1.85-1-3.74-1.58-5.6Z"/><path class="cls-2" d="M9.35,462.35c2.83,2.34,5.86,4.44,8.74,6.72a22.81,22.81,0,0,0,4.28-9.1l-10.82-2.33A13.51,13.51,0,0,1,10,461.41c-.2.32-.43.63-.63.94Z"/><path class="cls-4" d="M753.2,428.74s-4.44-6-6.69-9a13.33,13.33,0,0,1-3.81,2c1.2,3.49,2.18,7,3.25,10.57.36,1.17.72,2.34,1.1,3.51.56-.19,4.47-1.67,4.47-1.67l3.61-1.73a25.69,25.69,0,0,0-1.93-3.7Z"/><path class="cls-6" d="M647.57,526.1a12.16,12.16,0,0,1-2.87-2l-7.59,8.06-1.39,1.46c.7.63,2.14,1.82,2.14,1.82l1,.72s1.55,1,2.37,1.4l1-1.79c1.19-2.34,2.5-4.6,3.71-6.92a11.53,11.53,0,0,1,1.65-2.71Z"/><path class="cls-8" d="M616.79,446a11.61,11.61,0,0,0,1.42,2.84c1.32,2.26,2.54,4.57,3.89,6.82a25.15,25.15,0,0,0,3.22-2.3c-2.13-3-4.64-5.65-7-8.49a18.28,18.28,0,0,1-1.58,1.12Z"/><path class="cls-10" d="M614.5,544.54c2.92-2.41,5.73-5,8.56-7.47l.37-1A25.72,25.72,0,0,0,617,530.8c-1.76,3.27-4,7.84-5.66,11.14a12.68,12.68,0,0,1,3.22,2.6Z"/><path class="cls-5" d="M513.56,427.8c-.57.47-5,4.63-5.57,5.13l-1.24,1.13c-2.85,2.54-5.74,5-8.53,7.64a13.77,13.77,0,0,1,1.26,1.63c4.4-2.63,13.63-8.45,18-11.11C517.17,431.77,513.94,428.25,513.56,427.8Z"/><path class="cls-1" d="M473.43,422.84a25,25,0,0,0-5.8,4.45c1,.79,1.84,1.75,2.77,2.63,2.67,2.62,5.25,5.35,8,7.89a16.8,16.8,0,0,1,2.5-1.94c-1.88-3.28-3.78-6.55-5.67-9.82l-1.1-1.91c-.25-.43-.48-.86-.71-1.29Z"/><path class="cls-3" d="M398.53,435.44s-3.33,1.44-4.93,2.24q1.8,2.91,3.63,5.82c2,3.21,4.07,6.39,6,9.67a12.4,12.4,0,0,1,3-1.37c-1.18-3.54-3.31-10.69-3.31-10.69L400.54,435a13.76,13.76,0,0,0-2,.4Z"/><path class="cls-2" d="M533,444.42a30.29,30.29,0,0,0,.71,6c3.12-.84,6.28-1.52,9.39-2.43a2.1,2.1,0,0,1,1.62.06,14,14,0,0,1-.49-3.56c-3.75.1-7.49-.06-11.24-.08Z"/><path class="cls-5" d="M470.56,464.67c1.41,3.51,2.83,7,4.23,10.52a14.39,14.39,0,0,1,3-.7c-.54-3.78-.95-7.58-1.41-11.37-2,.46-3.9,1-5.85,1.54Z"/><path class="cls-6" d="M511.73,471.65c3.66-1,7.28-2.12,10.9-3.21l-.17,0a23.91,23.91,0,0,0-3.63-7.16c-3,2.24-6,4.4-8.93,6.68a12.73,12.73,0,0,1,1.83,3.71Z"/><path class="cls-11" d="M383.72,468.51l.17.56c.34,1,.79,1.9,1.16,2.87,1.48,3.44,2.9,6.89,4.39,10.32a13.47,13.47,0,0,1,3.11-.83c-.57-3.72-1-7.45-1.54-11.17-.15-1.21-.33-2.4-.51-3.61a34.88,34.88,0,0,0-6.78,1.86Z"/><path class="cls-8" d="M510,510.89c-1-3.58-1.93-7.2-3.06-10.76l-.54.09a15,15,0,0,1-2.69.34c.14,5.32.15,10.64.21,16,0,.52.1,1,.15,1.55,1.07,0,3.19-.22,3.19-.22l1.25-.12s2.16-.5,3.21-.85l-.12-.4c-.59-1.85-1-3.74-1.58-5.6Z"/><path class="cls-1" d="M449.9,498.82c2.83,2.35,5.86,4.44,8.74,6.72a22.8,22.8,0,0,0,4.28-9.1l-10.82-2.33a13.48,13.48,0,0,1-1.56,3.77c-.2.32-.43.63-.63.94Z"/><path class="cls-4" d="M476.2,407.07s-4.44-6-6.69-9a13.28,13.28,0,0,1-3.81,2c1.2,3.49,2.18,7,3.25,10.57.36,1.17.72,2.34,1.1,3.51.56-.19,4.47-1.67,4.47-1.67l3.61-1.73a25.7,25.7,0,0,0-1.93-3.7Z"/><path class="cls-6" d="M566.91,475.76a12,12,0,0,1-2.87-2l-7.59,8.06-1.39,1.46c.7.63,2.14,1.82,2.14,1.82l1,.72s1.55,1,2.37,1.4l1-1.79c1.19-2.34,2.5-4.6,3.71-6.92a11.56,11.56,0,0,1,1.65-2.71Z"/><path class="cls-7" d="M413.67,488.64a11.58,11.58,0,0,0,1.42,2.84c1.32,2.26,2.55,4.57,3.89,6.82a25,25,0,0,0,3.22-2.3c-2.13-3-4.64-5.65-7-8.49a18.41,18.41,0,0,1-1.58,1.12Z"/><path class="cls-8" d="M443,452.94l-.59-.77c-3.07,2-6,4.19-9.2,6-1.14.78-2.28,1.57-3.45,2.3-.91.57-1.79,1.17-2.66,1.8l.23.76.82.89.52.55c.59-.45,1.18-.9,1.75-1.37,1.29-1.09,2.63-2.11,4-3.15l.18.17c.74-1.43,2.23-2.19,3.39-3.23,1.63-1.38,3.53-2.42,5-3.94Z"/><path class="cls-10" d="M533.85,494.2c2.92-2.41,5.72-5,8.56-7.47l.37-1a25.76,25.76,0,0,0-6.48-5.23c-1.76,3.27-4,7.84-5.66,11.14a12.72,12.72,0,0,1,3.22,2.6Z"/><path class="cls-5" d="M372,440.69c-.57.47-5,4.63-5.57,5.13L365.16,447c-2.85,2.54-5.74,5-8.53,7.64a13.72,13.72,0,0,1,1.26,1.63c4.4-2.63,13.63-8.45,18-11.11C375.58,444.66,372.35,441.15,372,440.69Z"/><path class="cls-9" d="M433.39,423a25,25,0,0,0-5.8,4.46c1,.79,1.84,1.75,2.77,2.63,2.67,2.62,5.25,5.35,8,7.89a17,17,0,0,1,2.5-1.94c-1.88-3.28-3.78-6.54-5.67-9.82l-1.1-1.91c-.25-.43-.48-.86-.71-1.29Z"/><path class="cls-8" d="M322.16,421.75s-3.33,1.44-4.93,2.24q1.8,2.92,3.63,5.82c2,3.21,4.07,6.39,6,9.67a12.35,12.35,0,0,1,3-1.37c-1.18-3.55-3.31-10.69-3.31-10.69l-2.38-6.06a13.39,13.39,0,0,0-2,.4Z"/><path class="cls-2" d="M365.14,471.91a30.23,30.23,0,0,0,.71,6c3.12-.84,6.29-1.52,9.39-2.42a2.11,2.11,0,0,1,1.63.06,14,14,0,0,1-.49-3.56c-3.75.1-7.49-.06-11.24-.08Z"/><path class="cls-5" d="M430.16,517.06c1.41,3.51,2.83,7,4.23,10.52a14.37,14.37,0,0,1,3-.7c-.54-3.78-.95-7.58-1.41-11.37-2,.46-3.9,1-5.85,1.54Z"/><path class="cls-6" d="M343.87,499.14c3.66-1,7.28-2.12,10.9-3.21l-.17,0a23.92,23.92,0,0,0-3.63-7.16c-3,2.24-6,4.4-8.93,6.68a12.71,12.71,0,0,1,1.83,3.71Z"/><path class="cls-6" d="M285.78,401.07l.17.56c.34,1,.79,1.9,1.16,2.87,1.48,3.44,2.9,6.89,4.39,10.32a13.53,13.53,0,0,1,3.11-.83c-.57-3.71-1-7.45-1.54-11.17-.15-1.21-.33-2.4-.51-3.6a34.76,34.76,0,0,0-6.78,1.86Z"/><path class="cls-8" d="M331.53,475.56c-1-3.58-1.93-7.2-3.06-10.75l-.54.09a15.12,15.12,0,0,1-2.69.34c.15,5.32.15,10.64.2,16,0,.52.1,1,.15,1.54,1.07,0,3.19-.21,3.19-.21l1.25-.12s2.16-.5,3.21-.85l-.12-.4c-.59-1.85-1-3.74-1.58-5.6Z"/><path class="cls-1" d="M538.1,514.61c2.83,2.35,5.86,4.44,8.74,6.73a22.77,22.77,0,0,0,4.28-9.1l-10.83-2.33a13.48,13.48,0,0,1-1.56,3.77c-.2.32-.43.63-.63.94Z"/><path class="cls-4" d="M504.68,405.89s-4.44-6-6.69-9a13.32,13.32,0,0,1-3.81,2c1.2,3.49,2.18,7,3.25,10.57.36,1.17.72,2.34,1.1,3.51.56-.19,4.47-1.67,4.47-1.67l3.61-1.73a25.67,25.67,0,0,0-1.93-3.7Z"/><path class="cls-6" d="M399,503.25a12.07,12.07,0,0,1-2.87-2l-7.59,8.06-1.39,1.46c.7.63,2.14,1.82,2.14,1.82l1,.72s1.55,1,2.37,1.4l1-1.79c1.19-2.34,2.5-4.6,3.71-6.92a11.58,11.58,0,0,1,1.65-2.71Z"/><path class="cls-1" d="M368.27,423.14a11.55,11.55,0,0,0,1.42,2.84c1.32,2.26,2.54,4.57,3.89,6.82a25,25,0,0,0,3.22-2.3c-2.13-3-4.64-5.65-7-8.48a19,19,0,0,1-1.58,1.12Z"/><path class="cls-1" d="M487.16,526l-.59-.77c-3.07,2-6,4.19-9.2,6-1.14.78-2.28,1.57-3.45,2.3-.91.57-1.79,1.17-2.66,1.8l.23.77.82.89.52.55c.59-.46,1.18-.9,1.75-1.37,1.29-1.09,2.62-2.11,4-3.15l.18.17c.74-1.43,2.23-2.2,3.4-3.24,1.63-1.38,3.53-2.42,5-3.94Z"/><path class="cls-10" d="M366,521.69c2.92-2.41,5.72-5,8.56-7.47l.37-1a25.7,25.7,0,0,0-6.48-5.23c-1.76,3.27-4,7.84-5.66,11.14a12.76,12.76,0,0,1,3.22,2.6Z"/><path class="cls-5" d="M584.68,536.08c-.57.47-5,4.63-5.57,5.13l-1.24,1.13c-2.85,2.54-5.74,5-8.53,7.64a13.55,13.55,0,0,1,1.26,1.63c4.4-2.63,13.63-8.45,18-11.11C588.29,540,585.05,536.53,584.68,536.08Z"/><path class="cls-4" d="M458.45,538.45s-4.44-6-6.69-9a13.24,13.24,0,0,1-3.81,2c1.2,3.49,2.19,7,3.25,10.57.36,1.17.72,2.35,1.1,3.51.56-.19,4.47-1.67,4.47-1.67l3.61-1.73a25.62,25.62,0,0,0-1.93-3.7Z"/><path class="cls-9" d="M418.55,531a25,25,0,0,0-5.8,4.45c1,.79,1.84,1.75,2.77,2.63,2.67,2.62,5.25,5.35,8,7.89a17,17,0,0,1,2.5-1.94c-1.88-3.28-3.78-6.54-5.67-9.82l-1.1-1.91c-.25-.43-.48-.86-.71-1.29Z"/><path class="cls-6" d="M357.53,535.37l.17.56c.34,1,.79,1.9,1.16,2.87,1.48,3.44,2.9,6.89,4.39,10.33a13.55,13.55,0,0,1,3.11-.83c-.57-3.72-1-7.45-1.54-11.17-.15-1.21-.33-2.41-.51-3.61a34.75,34.75,0,0,0-6.78,1.86Z"/><path class="cls-4" d="M285.64,454.86s-3.33,1.44-4.92,2.24q1.8,2.91,3.63,5.82c2,3.21,4.07,6.39,6,9.67a12.42,12.42,0,0,1,3-1.37c-1.18-3.54-3.31-10.69-3.31-10.69l-2.38-6.06a13,13,0,0,0-2,.39Z"/><path class="cls-6" d="M301.8,436.13l.17.56c.35,1,.79,1.9,1.16,2.87,1.48,3.43,2.9,6.89,4.39,10.32a13.55,13.55,0,0,1,3.11-.83c-.57-3.72-1-7.45-1.54-11.17-.15-1.21-.33-2.41-.51-3.61a34.82,34.82,0,0,0-6.78,1.86Z"/><path class="cls-8" d="M295,508.68c-1-3.58-1.93-7.2-3.06-10.75l-.54.09a14.91,14.91,0,0,1-2.69.34c.15,5.32.15,10.64.2,16,0,.52.1,1,.15,1.55,1.07,0,3.19-.21,3.19-.21l1.25-.12s2.16-.5,3.21-.85l-.12-.4c-.59-1.85-1-3.74-1.58-5.6Z"/><path class="cls-1" d="M254.8,423.47c-.57.47-5,4.63-5.57,5.13L248,429.73c-2.85,2.54-5.74,5-8.53,7.64a13.56,13.56,0,0,1,1.26,1.63c4.4-2.63,13.63-8.45,18-11.11C258.41,427.43,255.17,423.92,254.8,423.47Z"/><path class="cls-9" d="M188.4,433.1a25,25,0,0,0-5.8,4.45c1,.79,1.84,1.75,2.77,2.63,2.67,2.62,5.25,5.35,8,7.89a16.82,16.82,0,0,1,2.5-1.94c-1.88-3.28-3.78-6.55-5.67-9.82l-1.1-1.92c-.25-.43-.48-.86-.71-1.29Z"/><path class="cls-3" d="M113.5,445.7s-3.33,1.44-4.93,2.24q1.81,2.91,3.63,5.82c2,3.21,4.07,6.39,6,9.67a12.34,12.34,0,0,1,3-1.37c-1.18-3.54-3.31-10.7-3.31-10.7l-2.38-6.06a13.4,13.4,0,0,0-2,.4Z"/><path class="cls-1" d="M248,454.68a30.14,30.14,0,0,0,.71,6c3.12-.84,6.28-1.52,9.39-2.42a2.1,2.1,0,0,1,1.63.06,14,14,0,0,1-.49-3.56c-3.75.1-7.49-.06-11.24-.08Z"/><path class="cls-2" d="M185.53,474.93c1.41,3.51,2.83,7,4.23,10.52a14.26,14.26,0,0,1,3-.7c-.54-3.78-.95-7.58-1.41-11.37-2,.46-3.9,1-5.85,1.54Z"/><path class="cls-6" d="M226.7,481.91c3.66-1,7.28-2.12,10.9-3.21l-.17,0a24,24,0,0,0-3.64-7.16c-3,2.23-6,4.4-8.93,6.68a12.67,12.67,0,0,1,1.83,3.71Z"/><path class="cls-6" d="M98.68,478.77l.17.56c.34,1,.79,1.9,1.16,2.87,1.48,3.44,2.9,6.89,4.39,10.32a13.55,13.55,0,0,1,3.11-.83c-.58-3.72-1-7.45-1.54-11.17-.15-1.21-.33-2.41-.51-3.61a34.74,34.74,0,0,0-6.78,1.86Z"/><path class="cls-8" d="M225,521.15c-1-3.58-1.93-7.2-3.06-10.76l-.54.09a15.11,15.11,0,0,1-2.69.34c.15,5.32.15,10.63.21,16,0,.52.1,1,.15,1.55,1.07,0,3.19-.22,3.19-.22l1.25-.12s2.16-.5,3.21-.85l-.13-.4c-.59-1.85-1-3.74-1.58-5.6Z"/><path class="cls-2" d="M164.86,509.08c2.83,2.34,5.86,4.44,8.74,6.72a22.78,22.78,0,0,0,4.28-9.1l-10.82-2.33a13.52,13.52,0,0,1-1.56,3.77c-.2.32-.43.62-.63.94Z"/><path class="cls-4" d="M148.63,426.48s-4.44-6-6.69-9a13.28,13.28,0,0,1-3.81,2c1.2,3.49,2.18,7,3.25,10.57.37,1.17.72,2.34,1.1,3.51.56-.19,4.47-1.68,4.47-1.68l3.61-1.73a25.57,25.57,0,0,0-1.93-3.7Z"/><path class="cls-6" d="M281.88,486a12.06,12.06,0,0,1-2.87-2l-7.59,8.06L270,493.52c.7.63,2.14,1.81,2.14,1.81l1,.72s1.55,1,2.37,1.4l1-1.79c1.19-2.33,2.5-4.6,3.71-6.92a11.55,11.55,0,0,1,1.65-2.71Z"/><path class="cls-4" d="M128.64,498.9a11.54,11.54,0,0,0,1.42,2.84c1.32,2.26,2.55,4.57,3.89,6.82a25.16,25.16,0,0,0,3.22-2.3c-2.13-3-4.64-5.65-7-8.49a18.41,18.41,0,0,1-1.58,1.12Z"/><path class="cls-5" d="M158,463.21l-.59-.77c-3.07,2-6,4.19-9.2,6-1.14.78-2.28,1.57-3.45,2.3-.91.57-1.79,1.17-2.66,1.8l.23.76.82.89.52.55c.59-.45,1.18-.9,1.75-1.37,1.28-1.09,2.62-2.11,4-3.15l.18.17c.74-1.43,2.23-2.19,3.39-3.23,1.63-1.38,3.53-2.42,5-3.94Z"/><path class="cls-10" d="M248.82,504.46c2.92-2.41,5.72-5,8.56-7.47l.37-1a25.66,25.66,0,0,0-6.48-5.23c-1.76,3.27-4,7.84-5.66,11.14a12.7,12.7,0,0,1,3.22,2.6Z"/><path class="cls-5" d="M86.93,451c-.57.47-5,4.63-5.57,5.13l-1.24,1.13c-2.85,2.54-5.74,5-8.53,7.64a13.45,13.45,0,0,1,1.26,1.63c4.4-2.63,13.63-8.45,18-11.11C90.55,454.92,87.31,451.41,86.93,451Z"/><path class="cls-11" d="M114.3,408.95a25,25,0,0,0-5.8,4.45c1,.8,1.84,1.75,2.77,2.63,2.67,2.62,5.25,5.35,8,7.89a17,17,0,0,1,2.5-1.94c-1.88-3.28-3.78-6.55-5.67-9.82l-1.1-1.91c-.25-.43-.48-.86-.71-1.29Z"/><path class="cls-3" d="M37.13,432s-3.33,1.44-4.93,2.24q1.8,2.91,3.63,5.82c2,3.21,4.07,6.39,6,9.67a12.45,12.45,0,0,1,3-1.37c-1.18-3.54-3.31-10.69-3.31-10.69l-2.38-6.06a13.38,13.38,0,0,0-2,.4Z"/><path class="cls-2" d="M80.11,482.17a30.24,30.24,0,0,0,.71,6c3.12-.84,6.28-1.52,9.39-2.42a2.11,2.11,0,0,1,1.63.06,14,14,0,0,1-.49-3.56c-3.75.1-7.49-.06-11.24-.08Z"/><path class="cls-5" d="M145.13,527.32c1.41,3.51,2.83,7,4.23,10.52a14.41,14.41,0,0,1,3-.7c-.54-3.78-.95-7.58-1.41-11.37-2,.46-3.9,1-5.85,1.54Z"/><path class="cls-6" d="M58.84,509.4c3.66-1,7.28-2.12,10.9-3.21l-.17,0A23.91,23.91,0,0,0,65.93,499c-3,2.23-6,4.4-8.93,6.68a12.65,12.65,0,0,1,1.84,3.71Z"/><path class="cls-6" d="M53.28,413.27l.17.56c.35,1,.79,1.9,1.17,2.87,1.48,3.43,2.9,6.89,4.39,10.32a13.55,13.55,0,0,1,3.11-.83c-.57-3.72-1-7.45-1.54-11.17-.15-1.21-.33-2.41-.51-3.61a34.84,34.84,0,0,0-6.78,1.86Z"/><path class="cls-8" d="M46.5,485.82c-1-3.58-1.93-7.2-3.06-10.75l-.54.09a14.94,14.94,0,0,1-2.69.34c.14,5.32.14,10.64.2,16,0,.52.1,1,.15,1.55,1.07,0,3.19-.22,3.19-.22l1.25-.12s2.16-.5,3.21-.85l-.12-.4c-.59-1.85-1-3.74-1.58-5.6Z"/><path class="cls-2" d="M253.07,524.87c2.83,2.35,5.86,4.44,8.74,6.72a22.78,22.78,0,0,0,4.28-9.1l-10.83-2.33a13.42,13.42,0,0,1-1.56,3.77c-.2.32-.43.63-.63.94Z"/><path class="cls-4" d="M219.65,416.15s-4.44-6-6.69-9a13.27,13.27,0,0,1-3.81,2c1.2,3.49,2.18,7,3.25,10.57.36,1.17.72,2.34,1.1,3.51.56-.19,4.47-1.67,4.47-1.67l3.61-1.73a25.81,25.81,0,0,0-1.93-3.7Z"/><path class="cls-6" d="M114,513.51a12.08,12.08,0,0,1-2.87-2l-7.59,8.06L102.17,521c.7.63,2.14,1.82,2.14,1.82l1,.72s1.55,1,2.37,1.4l1-1.79c1.19-2.33,2.5-4.6,3.71-6.92a11.55,11.55,0,0,1,1.65-2.71Z"/><path class="cls-1" d="M83.24,433.4a11.62,11.62,0,0,0,1.42,2.84c1.32,2.26,2.55,4.57,3.89,6.82a24.89,24.89,0,0,0,3.22-2.3c-2.13-3-4.64-5.65-7-8.48a18.39,18.39,0,0,1-1.58,1.12Z"/><path class="cls-9" d="M202.13,536.24l-.59-.77c-3.07,2-6,4.19-9.2,6-1.14.78-2.28,1.57-3.45,2.3-.91.57-1.79,1.17-2.66,1.79l.23.76.82.9.52.55c.59-.45,1.18-.9,1.75-1.37,1.29-1.09,2.63-2.11,4-3.15l.18.18c.74-1.43,2.23-2.2,3.4-3.23,1.63-1.39,3.52-2.42,5-3.94Z"/><path class="cls-10" d="M81,531.95c2.92-2.41,5.72-5,8.56-7.47l.37-1a25.75,25.75,0,0,0-6.48-5.23c-1.76,3.27-4,7.85-5.66,11.14a12.74,12.74,0,0,1,3.22,2.6Z"/><path class="cls-1" d="M342.42,508c-.57.47-5,4.63-5.57,5.13l-1.24,1.13c-2.85,2.54-5.74,5-8.53,7.64a13.92,13.92,0,0,1,1.26,1.63c4.4-2.63,13.63-8.45,18-11.11C346,511.92,342.79,508.4,342.42,508Z"/></g></g></svg>