<svg xmlns="http://www.w3.org/2000/svg" viewBox="0 0 1369.96 952.65"><defs><style>.cls-1{opacity:0.45;}.cls-2{fill:#cf6a4c;}.cls-3{fill:#f8dc23;}.cls-4{fill:#edcaa9;}.cls-5{fill:#3d4891;}.cls-6{fill:#703886;}.cls-7{fill:#f3dac1;}.cls-8{fill:#699e4e;}.cls-9{fill:#50933b;}.cls-10{fill:#db9475;}.cls-11{fill:#f8e9da;}</style></defs><title>chispas-gris</title><g id="Capa_2" data-name="Capa 2"><g id="Capa_1-2" data-name="Capa 1"><g class="cls-1"><path class="cls-2" d="M81.91,67.57c1,.82,8.67,8,9.62,8.87l2.14,2c4.92,4.39,9.91,8.7,14.74,13.19a23.78,23.78,0,0,0-2.18,2.81c-7.6-4.54-23.54-14.58-31.11-19.18C75.66,74.42,81.25,68.35,81.91,67.57Z"/><path class="cls-3" d="M196.58,84.21a43.08,43.08,0,0,1,10,7.69c-1.72,1.37-3.18,3-4.79,4.53-4.62,4.53-9.07,9.24-13.82,13.62a29.2,29.2,0,0,0-4.32-3.34c3.25-5.67,6.53-11.31,9.79-17,.64-1.1,1.27-2.2,1.9-3.31.43-.74.83-1.48,1.22-2.24Z"/><path class="cls-4" d="M325.94,106s5.75,2.49,8.51,3.86q-3.12,5-6.27,10.05c-3.47,5.54-7,11-10.29,16.71a21.39,21.39,0,0,0-5.25-2.37c2-6.12,5.72-18.47,5.72-18.47l4.11-10.46a23.31,23.31,0,0,1,3.48.69Z"/><path class="cls-5" d="M93.69,121.48a52.26,52.26,0,0,1-1.23,10.37c-5.39-1.46-10.85-2.62-16.22-4.19a3.63,3.63,0,0,0-2.81.1,24.1,24.1,0,0,0,.84-6.15c6.47.17,12.94-.11,19.41-.14Z"/><path class="cls-6" d="M201.53,156.46c-2.44,6.06-4.89,12.11-7.31,18.17a25,25,0,0,0-5.23-1.2c.94-6.53,1.64-13.09,2.44-19.63,3.4.79,6.73,1.79,10.1,2.66Z"/><path class="cls-7" d="M130.43,168.51c-6.33-1.67-12.57-3.65-18.82-5.55l.29,0a41.3,41.3,0,0,1,6.28-12.36c5.13,3.86,10.35,7.6,15.42,11.54a21.91,21.91,0,0,0-3.17,6.4Z"/><path class="cls-8" d="M351.52,163.09l-.29,1c-.59,1.68-1.37,3.28-2,4.95-2.55,5.93-5,11.91-7.59,17.83a23.37,23.37,0,0,0-5.37-1.43c1-6.42,1.71-12.87,2.65-19.29.25-2.08.57-4.15.88-6.23a60,60,0,0,1,11.71,3.21Z"/><path class="cls-9" d="M133.41,236.27c1.81-6.18,3.34-12.43,5.28-18.57l.94.16a26.27,26.27,0,0,0,4.65.59c-.25,9.18-.25,18.37-.35,27.55-.06.89-.18,1.78-.26,2.67-1.84-.08-5.51-.37-5.51-.37l-2.16-.21s-3.73-.86-5.54-1.47c.06-.17.16-.52.22-.69,1-3.19,1.77-6.46,2.73-9.66Z"/><path class="cls-10" d="M237.22,215.43c-4.89,4-10.12,7.67-15.1,11.61-3.77-4.49-5.94-10.1-7.39-15.72l18.69-4a23.36,23.36,0,0,0,2.7,6.5c.35.55.74,1.08,1.09,1.62Z"/><path class="cls-9" d="M255.64,55.29S263.31,45,267.19,39.83a22.94,22.94,0,0,0,6.58,3.41c-2.07,6-3.77,12.16-5.61,18.26-.63,2-1.25,4-1.91,6.06-1-.33-7.72-2.89-7.72-2.89l-6.23-3a44.39,44.39,0,0,1,3.33-6.39Z"/><path class="cls-7" d="M35.13,175.61a20.87,20.87,0,0,0,5-3.49L53.2,186l2.4,2.52c-1.2,1.08-3.69,3.14-3.69,3.14l-1.73,1.24s-2.68,1.7-4.09,2.41l-1.69-3.1c-2.05-4-4.32-7.95-6.41-12a20,20,0,0,0-2.85-4.69Z"/><path class="cls-10" d="M299.79,197.84a19.93,19.93,0,0,1-2.46,4.91c-2.28,3.9-4.4,7.9-6.72,11.78a43.45,43.45,0,0,1-5.56-4c3.68-5.14,8-9.76,12-14.65a31.88,31.88,0,0,0,2.72,1.94Z"/><path class="cls-9" d="M249.06,136.21l1-1.34c5.3,3.44,10.37,7.24,15.89,10.33,2,1.35,3.93,2.72,6,4,1.57,1,3.09,2,4.59,3.1l-.4,1.32-1.42,1.54-.9,1c-1-.78-2-1.55-3-2.36-2.22-1.88-4.53-3.65-6.82-5.44l-.31.3c-1.28-2.47-3.86-3.79-5.86-5.59-2.81-2.39-6.09-4.18-8.7-6.81Z"/><path class="cls-9" d="M92.23,207.45c-5-4.16-9.89-8.57-14.78-12.91l-.64-1.81a44.48,44.48,0,0,1,11.2-9c3,5.65,6.82,13.55,9.78,19.25a21.93,21.93,0,0,0-5.56,4.49Z"/><path class="cls-2" d="M371.81,115c1,.82,8.67,8,9.62,8.87l2.14,2c4.92,4.39,9.91,8.7,14.74,13.2a23.51,23.51,0,0,0-2.18,2.81c-7.6-4.54-23.54-14.59-31.11-19.18C365.57,121.89,371.16,115.83,371.81,115Z"/><path class="cls-8" d="M324.54,42.5a43.15,43.15,0,0,1,10,7.69c-1.73,1.37-3.19,3-4.79,4.53-4.62,4.53-9.07,9.24-13.82,13.63A29,29,0,0,0,311.62,65c3.25-5.67,6.53-11.31,9.79-17l1.91-3.31c.43-.74.83-1.48,1.22-2.24Z"/><path class="cls-8" d="M457.83,82.33s5.75,2.49,8.51,3.87q-3.12,5-6.27,10.05c-3.47,5.54-7,11-10.29,16.71a21.46,21.46,0,0,0-5.25-2.37c2-6.12,5.72-18.47,5.72-18.47l4.11-10.47a23.31,23.31,0,0,1,3.48.68Z"/><path class="cls-10" d="M383.6,169a52.14,52.14,0,0,1-1.23,10.37c-5.39-1.46-10.85-2.63-16.22-4.19a3.62,3.62,0,0,0-2.81.1,24.15,24.15,0,0,0,.84-6.14c6.47.17,12.94-.11,19.41-.14Z"/><path class="cls-9" d="M271.31,246.94C268.87,253,266.42,259,264,265.11a24.89,24.89,0,0,0-5.23-1.21c.94-6.53,1.63-13.09,2.44-19.63,3.4.78,6.73,1.79,10.1,2.66Z"/><path class="cls-7" d="M420.33,216c-6.33-1.67-12.56-3.66-18.82-5.54l.29,0A41.31,41.31,0,0,1,408.08,198c5.13,3.86,10.36,7.6,15.42,11.54a21.9,21.9,0,0,0-3.17,6.4Z"/><path class="cls-7" d="M429.92,50l-.29,1c-.59,1.68-1.37,3.29-2,4.95-2.55,5.93-5,11.91-7.59,17.83a23.44,23.44,0,0,0-5.37-1.43c1-6.42,1.71-12.87,2.65-19.29.25-2.08.57-4.15.89-6.23A60.07,60.07,0,0,1,429.92,50Z"/><path class="cls-9" d="M441.64,175.27c1.81-6.18,3.34-12.43,5.28-18.57l.94.16a25.79,25.79,0,0,0,4.65.59c-.25,9.19-.25,18.37-.35,27.55-.05.89-.18,1.78-.26,2.67-1.84-.08-5.51-.37-5.51-.37l-2.16-.21s-3.73-.86-5.54-1.47c.06-.17.16-.52.22-.69,1-3.19,1.77-6.46,2.73-9.66Z"/><path class="cls-10" d="M84.89,242.7c-4.89,4-10.12,7.67-15.1,11.61-3.77-4.49-5.94-10.1-7.38-15.72l18.69-4a23.31,23.31,0,0,0,2.7,6.5c.35.55.74,1.08,1.09,1.62Z"/><path class="cls-5" d="M142.6,54.94s7.67-10.33,11.55-15.47a22.93,22.93,0,0,0,6.58,3.41c-2.07,6-3.77,12.16-5.61,18.26-.63,2-1.25,4-1.91,6.06-1-.33-7.72-2.89-7.72-2.89l-6.23-3a44.41,44.41,0,0,1,3.33-6.39Z"/><path class="cls-7" d="M325,223.08a21,21,0,0,0,5-3.49l13.11,13.92,2.4,2.52c-1.21,1.08-3.69,3.14-3.69,3.14l-1.73,1.24s-2.68,1.7-4.09,2.41l-1.69-3.09c-2.05-4-4.32-7.95-6.41-12a20,20,0,0,0-2.85-4.69Z"/><path class="cls-9" d="M378.19,84.72a20.07,20.07,0,0,1-2.45,4.91c-2.28,3.9-4.4,7.9-6.72,11.78a43.19,43.19,0,0,1-5.56-4c3.68-5.14,8-9.76,12-14.65a31.78,31.78,0,0,0,2.72,1.94Z"/><path class="cls-9" d="M382.14,254.92c-5-4.16-9.89-8.57-14.78-12.91l-.64-1.81a44.42,44.42,0,0,1,11.2-9c3,5.65,6.82,13.55,9.78,19.25a21.91,21.91,0,0,0-5.55,4.49Z"/><path class="cls-6" d="M511.1,28.11c1,.82,8.67,8,9.62,8.87l2.14,1.95c4.92,4.39,9.91,8.7,14.74,13.2a23.73,23.73,0,0,0-2.18,2.81c-7.6-4.54-23.54-14.59-31.11-19.18C504.86,35,510.45,28.89,511.1,28.11Z"/><path class="cls-2" d="M625.77,44.74a43.18,43.18,0,0,1,10,7.69c-1.73,1.37-3.18,3-4.79,4.53-4.62,4.53-9.07,9.24-13.82,13.62a29,29,0,0,0-4.32-3.34c3.25-5.67,6.53-11.31,9.79-17,.64-1.1,1.27-2.2,1.91-3.31.43-.74.83-1.49,1.22-2.24Z"/><path class="cls-4" d="M755.13,66.5s5.75,2.49,8.51,3.87q-3.12,5-6.27,10.05c-3.47,5.54-7,11-10.3,16.7a21.31,21.31,0,0,0-5.25-2.37c2-6.12,5.72-18.47,5.72-18.47l4.11-10.46a23.46,23.46,0,0,1,3.48.68Z"/><path class="cls-3" d="M522.89,82a52.18,52.18,0,0,1-1.23,10.37c-5.39-1.46-10.85-2.62-16.22-4.19a3.63,3.63,0,0,0-2.81.11,24.11,24.11,0,0,0,.84-6.15c6.47.17,12.94-.11,19.41-.14Z"/><path class="cls-6" d="M630.73,117c-2.43,6.06-4.89,12.11-7.31,18.17a24.82,24.82,0,0,0-5.23-1.21c.94-6.53,1.64-13.09,2.44-19.63,3.4.78,6.73,1.79,10.1,2.66Z"/><path class="cls-7" d="M559.63,129c-6.33-1.67-12.57-3.65-18.82-5.55l.29,0a41.28,41.28,0,0,1,6.28-12.36c5.13,3.86,10.35,7.6,15.42,11.54a22,22,0,0,0-3.17,6.4Z"/><path class="cls-9" d="M780.71,123.62l-.29,1c-.59,1.68-1.37,3.28-2,4.95-2.55,5.93-5,11.91-7.58,17.83a23.39,23.39,0,0,0-5.37-1.43c1-6.42,1.71-12.87,2.65-19.29.25-2.09.57-4.16.89-6.23a60,60,0,0,1,11.71,3.21Z"/><path class="cls-9" d="M562.61,196.8c1.81-6.18,3.34-12.43,5.28-18.57l.94.16a26,26,0,0,0,4.65.59c-.25,9.18-.25,18.37-.35,27.55-.05.9-.18,1.78-.26,2.67-1.84-.08-5.51-.37-5.51-.37l-2.16-.2s-3.73-.86-5.54-1.47c.06-.17.16-.52.22-.69,1-3.19,1.77-6.46,2.73-9.66Z"/><path class="cls-3" d="M666.42,176c-4.89,4-10.12,7.67-15.1,11.61-3.77-4.49-5.94-10.09-7.39-15.72l18.7-4a23.22,23.22,0,0,0,2.7,6.5c.35.55.74,1.08,1.09,1.62Z"/><path class="cls-5" d="M684.84,15.82S692.5,5.49,696.39.36A23,23,0,0,0,703,3.77c-2.07,6-3.77,12.16-5.61,18.26-.63,2-1.25,4-1.9,6.06-1-.33-7.72-2.89-7.72-2.89l-6.23-3a44.85,44.85,0,0,1,3.33-6.39Z"/><path class="cls-7" d="M464.33,136.14a20.9,20.9,0,0,0,5-3.49l13.11,13.92,2.4,2.51c-1.2,1.08-3.69,3.14-3.69,3.14l-1.73,1.24s-2.68,1.7-4.09,2.41l-1.69-3.1c-2.05-4-4.32-7.95-6.41-12a20,20,0,0,0-2.85-4.69Z"/><path class="cls-8" d="M729,158.37a20,20,0,0,1-2.46,4.9c-2.28,3.9-4.4,7.9-6.72,11.78a43.26,43.26,0,0,1-5.56-4c3.68-5.14,8-9.76,12-14.65a31.83,31.83,0,0,0,2.72,1.94Z"/><path class="cls-9" d="M678.26,96.74l1-1.33c5.3,3.44,10.37,7.24,15.88,10.33,2,1.35,3.93,2.72,6,4,1.57,1,3.09,2,4.59,3.1l-.4,1.32-1.42,1.54-.9,1c-1-.78-2-1.55-3-2.36-2.22-1.88-4.53-3.65-6.83-5.44l-.31.3c-1.28-2.47-3.86-3.79-5.86-5.58-2.81-2.39-6.09-4.18-8.7-6.81Z"/><path class="cls-9" d="M521.43,168c-5-4.16-9.89-8.57-14.78-12.91l-.64-1.8a44.48,44.48,0,0,1,11.2-9c3,5.65,6.82,13.55,9.78,19.25a22,22,0,0,0-5.56,4.49Z"/><path class="cls-6" d="M801,75.58c1,.82,8.68,8,9.62,8.87l2.14,2c4.91,4.39,9.91,8.7,14.74,13.2a23.43,23.43,0,0,0-2.18,2.81c-7.6-4.54-23.54-14.59-31.11-19.18C794.76,82.42,800.35,76.36,801,75.58Z"/><path class="cls-10" d="M753.73,3a43.1,43.1,0,0,1,10,7.69c-1.72,1.37-3.18,3-4.79,4.53-4.62,4.53-9.07,9.24-13.82,13.63a29.18,29.18,0,0,0-4.32-3.34c3.24-5.66,6.53-11.31,9.79-17,.64-1.1,1.27-2.2,1.91-3.31.43-.74.83-1.48,1.22-2.24Z"/><path class="cls-9" d="M887,42.86s5.75,2.49,8.51,3.87q-3.12,5-6.27,10.05c-3.47,5.54-7,11-10.3,16.71a21.33,21.33,0,0,0-5.25-2.37c2-6.12,5.72-18.47,5.72-18.47l4.11-10.47a23.18,23.18,0,0,1,3.48.68Z"/><path class="cls-11" d="M812.8,129.48a52.41,52.41,0,0,1-1.23,10.37c-5.39-1.46-10.85-2.62-16.21-4.19a3.64,3.64,0,0,0-2.81.1,24,24,0,0,0,.84-6.14c6.47.17,12.94-.11,19.41-.14Z"/><path class="cls-6" d="M700.51,207.47c-2.44,6.06-4.89,12.11-7.31,18.17a25,25,0,0,0-5.23-1.21c.94-6.53,1.64-13.09,2.44-19.63,3.4.78,6.73,1.79,10.11,2.66Z"/><path class="cls-7" d="M849.53,176.51c-6.33-1.67-12.57-3.65-18.82-5.55l.29,0a41.27,41.27,0,0,1,6.28-12.36c5.13,3.86,10.35,7.6,15.42,11.54a22,22,0,0,0-3.17,6.4Z"/><path class="cls-7" d="M859.12,10.5l-.29,1c-.6,1.68-1.37,3.28-2,4.95-2.56,5.93-5,11.91-7.58,17.83a23.35,23.35,0,0,0-5.37-1.43c1-6.42,1.71-12.87,2.65-19.29.25-2.08.57-4.16.89-6.23a60.06,60.06,0,0,1,11.71,3.21Z"/><path class="cls-9" d="M870.84,135.8c1.81-6.18,3.34-12.43,5.28-18.57l.94.16a25.73,25.73,0,0,0,4.65.59c-.25,9.19-.25,18.37-.35,27.55-.06.89-.18,1.78-.26,2.67-1.84-.08-5.51-.37-5.51-.37l-2.16-.21s-3.73-.86-5.54-1.47c.06-.17.16-.52.22-.69,1-3.19,1.77-6.46,2.73-9.66Z"/><path class="cls-3" d="M514.09,203.23c-4.89,4-10.12,7.67-15.1,11.61-3.77-4.49-5.94-10.1-7.39-15.72l18.7-4a23.33,23.33,0,0,0,2.7,6.5c.35.55.74,1.08,1.09,1.62Z"/><path class="cls-5" d="M571.8,15.47S579.46,5.13,583.34,0a23,23,0,0,0,6.58,3.41c-2.07,6-3.77,12.16-5.61,18.26-.63,2-1.25,4-1.9,6.06-1-.33-7.72-2.89-7.72-2.89l-6.23-3a44.39,44.39,0,0,1,3.33-6.39Z"/><path class="cls-7" d="M754.23,183.61a20.89,20.89,0,0,0,5-3.49L772.3,194l2.4,2.52c-1.2,1.08-3.69,3.14-3.69,3.14l-1.74,1.24s-2.67,1.7-4.09,2.41l-1.69-3.1c-2.05-4-4.32-7.95-6.41-12a20,20,0,0,0-2.85-4.69Z"/><path class="cls-2" d="M807.39,45.25a20,20,0,0,1-2.45,4.91c-2.28,3.9-4.4,7.9-6.72,11.78a43.37,43.37,0,0,1-5.56-4c3.68-5.14,8-9.76,12-14.65a32,32,0,0,0,2.72,1.94Z"/><path class="cls-2" d="M602.07,222.87l1-1.34c5.3,3.44,10.37,7.24,15.89,10.33,2,1.35,3.93,2.72,6,4,1.57,1,3.09,2,4.59,3.1l-.4,1.32-1.42,1.54-.9,1c-1-.78-2-1.55-3-2.36-2.22-1.88-4.53-3.65-6.82-5.44l-.31.3c-1.28-2.47-3.86-3.79-5.86-5.58-2.81-2.39-6.09-4.18-8.7-6.81Z"/><path class="cls-9" d="M811.33,215.46c-5-4.16-9.88-8.57-14.78-12.91l-.64-1.8a44.39,44.39,0,0,1,11.2-9c3,5.65,6.82,13.55,9.78,19.25a22,22,0,0,0-5.56,4.49Z"/><path class="cls-6" d="M433.65,240.32c1,.81,8.68,8,9.62,8.86l2.14,2c4.92,4.39,9.91,8.7,14.74,13.19a23.51,23.51,0,0,0-2.18,2.81c-7.6-4.54-23.54-14.59-31.11-19.18C427.41,247.16,433,241.1,433.65,240.32Z"/><path class="cls-5" d="M651.65,244.41s7.67-10.33,11.55-15.47a23,23,0,0,0,6.58,3.41c-2.07,6-3.77,12.16-5.61,18.26-.63,2-1.25,4-1.91,6.07-1-.33-7.72-2.89-7.72-2.89l-6.23-3a44.26,44.26,0,0,1,3.33-6.39Z"/><path class="cls-3" d="M720.55,231.62a43.23,43.23,0,0,1,10,7.69c-1.72,1.37-3.18,3-4.79,4.53-4.62,4.53-9.07,9.24-13.82,13.62a29.19,29.19,0,0,0-4.32-3.34c3.25-5.66,6.53-11.31,9.79-17l1.9-3.31c.43-.74.83-1.48,1.22-2.23Z"/><path class="cls-7" d="M825.93,239.09l-.29,1c-.59,1.68-1.37,3.29-2,5-2.56,5.93-5,11.91-7.59,17.83a23.36,23.36,0,0,0-5.37-1.43c1-6.42,1.71-12.87,2.65-19.29.25-2.08.57-4.16.89-6.23a60.15,60.15,0,0,1,11.71,3.21Z"/><path class="cls-5" d="M950.08,100.05s5.75,2.49,8.51,3.87q-3.12,5-6.27,10.05c-3.47,5.54-7,11-10.3,16.7a21.45,21.45,0,0,0-5.25-2.37c2-6.12,5.72-18.47,5.72-18.47l4.11-10.47a23.22,23.22,0,0,1,3.48.68Z"/><path class="cls-7" d="M922.18,67.69l-.28,1c-.6,1.68-1.37,3.28-2,5-2.55,5.93-5,11.91-7.58,17.83A23.39,23.39,0,0,0,906.93,90c1-6.42,1.71-12.87,2.65-19.29.25-2.08.57-4.15.88-6.23a59.94,59.94,0,0,1,11.71,3.21Z"/><path class="cls-9" d="M933.9,193c1.81-6.18,3.34-12.43,5.28-18.57l.94.16a25.93,25.93,0,0,0,4.65.59c-.25,9.18-.25,18.37-.35,27.55-.06.89-.18,1.78-.26,2.67-1.84-.08-5.51-.37-5.51-.37l-2.16-.2s-3.73-.86-5.54-1.47c.06-.17.16-.52.22-.69,1-3.19,1.77-6.46,2.74-9.66Z"/><path class="cls-2" d="M1003.36,45.82c1,.82,8.68,8,9.62,8.87l2.14,2c4.91,4.39,9.91,8.7,14.73,13.19a23.85,23.85,0,0,0-2.18,2.81c-7.6-4.54-23.54-14.59-31.11-19.18C997.12,52.67,1002.71,46.6,1003.36,45.82Z"/><path class="cls-3" d="M1118,62.46a43.16,43.16,0,0,1,10,7.69c-1.73,1.37-3.18,3-4.79,4.53-4.62,4.53-9.07,9.24-13.82,13.62a28.89,28.89,0,0,0-4.32-3.34c3.25-5.67,6.53-11.31,9.79-17,.64-1.1,1.27-2.2,1.9-3.31.43-.74.83-1.48,1.22-2.23Z"/><path class="cls-4" d="M1247.39,84.22s5.75,2.49,8.51,3.87q-3.12,5-6.27,10.05c-3.47,5.54-7,11-10.29,16.71a21.53,21.53,0,0,0-5.26-2.37c2-6.12,5.72-18.47,5.72-18.47l4.11-10.47a23.3,23.3,0,0,1,3.48.68Z"/><path class="cls-10" d="M1015.15,99.73a52.19,52.19,0,0,1-1.23,10.37c-5.39-1.46-10.85-2.62-16.21-4.19a3.63,3.63,0,0,0-2.81.1,24.25,24.25,0,0,0,.84-6.15c6.47.17,12.94-.11,19.41-.14Z"/><path class="cls-10" d="M1123,134.71c-2.44,6.06-4.89,12.11-7.31,18.17a25,25,0,0,0-5.23-1.21c.94-6.53,1.64-13.09,2.44-19.63,3.4.78,6.73,1.79,10.1,2.66Z"/><path class="cls-7" d="M1051.88,146.76c-6.33-1.67-12.57-3.66-18.82-5.55l.29,0a41.38,41.38,0,0,1,6.28-12.36c5.13,3.86,10.36,7.6,15.42,11.54a21.93,21.93,0,0,0-3.17,6.4Z"/><path class="cls-7" d="M1273,141.34l-.29,1c-.6,1.68-1.37,3.28-2,4.95-2.56,5.93-5,11.91-7.59,17.83a23.25,23.25,0,0,0-5.37-1.43c1-6.42,1.71-12.87,2.65-19.29.25-2.09.57-4.16.89-6.23a60.08,60.08,0,0,1,11.71,3.21Z"/><path class="cls-9" d="M1054.86,214.52c1.81-6.18,3.34-12.43,5.28-18.57l.94.16a25.93,25.93,0,0,0,4.65.59c-.25,9.18-.25,18.37-.35,27.55-.05.9-.17,1.78-.26,2.67-1.84-.08-5.51-.37-5.51-.37l-2.16-.21s-3.73-.86-5.54-1.47l.22-.69c1-3.19,1.77-6.46,2.73-9.67Z"/><path class="cls-3" d="M1158.68,193.68c-4.89,4.05-10.12,7.67-15.1,11.61-3.77-4.49-5.94-10.09-7.39-15.72l18.7-4a23.26,23.26,0,0,0,2.7,6.5c.35.55.74,1.08,1.09,1.62Z"/><path class="cls-5" d="M1177.1,33.55s7.67-10.33,11.55-15.47a22.94,22.94,0,0,0,6.58,3.41c-2.07,6-3.77,12.16-5.61,18.26-.63,2-1.25,4-1.9,6.06-1-.33-7.72-2.89-7.72-2.89l-6.23-3a44.51,44.51,0,0,1,3.33-6.39Z"/><path class="cls-7" d="M956.59,153.86a20.93,20.93,0,0,0,5-3.49l13.11,13.92c.8.84,1.6,1.67,2.4,2.51-1.2,1.08-3.69,3.13-3.69,3.13l-1.73,1.24s-2.67,1.7-4.09,2.41c-.57-1-1.13-2.06-1.69-3.1-2.05-4-4.32-7.95-6.41-11.95a19.94,19.94,0,0,0-2.85-4.69Z"/><path class="cls-5" d="M1221.24,176.09a20,20,0,0,1-2.46,4.91c-2.28,3.9-4.4,7.9-6.72,11.78a43,43,0,0,1-5.56-4c3.68-5.14,8-9.76,12-14.65a32,32,0,0,0,2.72,1.94Z"/><path class="cls-6" d="M1170.52,114.45l1-1.33c5.3,3.44,10.37,7.24,15.89,10.33,2,1.35,3.93,2.72,6,4,1.57,1,3.09,2,4.59,3.1l-.4,1.32-1.42,1.54-.91,1c-1-.78-2-1.55-3-2.36-2.22-1.88-4.53-3.65-6.82-5.44l-.31.3c-1.29-2.47-3.86-3.79-5.87-5.59-2.81-2.39-6.09-4.18-8.7-6.81Z"/><path class="cls-9" d="M1013.69,185.7c-5-4.16-9.88-8.57-14.78-12.91l-.64-1.8a44.48,44.48,0,0,1,11.2-9c3,5.65,6.82,13.55,9.78,19.25a22,22,0,0,0-5.56,4.49Z"/><path class="cls-6" d="M1293.26,93.3c1,.82,8.68,8,9.62,8.87l2.14,2c4.91,4.39,9.91,8.7,14.73,13.19a23.77,23.77,0,0,0-2.18,2.81c-7.6-4.54-23.54-14.59-31.11-19.18C1287,100.15,1292.61,94.08,1293.26,93.3Z"/><path class="cls-9" d="M1246,20.75a43.08,43.08,0,0,1,10,7.69c-1.72,1.37-3.18,3-4.79,4.53-4.62,4.53-9.07,9.24-13.82,13.62a29.16,29.16,0,0,0-4.32-3.34c3.25-5.67,6.53-11.31,9.79-17l1.91-3.31c.43-.74.83-1.48,1.22-2.23Z"/><path class="cls-4" d="M1359,119.19s5.75,2.49,8.51,3.87q-3.12,5-6.27,10.05c-3.47,5.54-7,11-10.29,16.71a21.51,21.51,0,0,0-5.25-2.37c2-6.12,5.72-18.47,5.72-18.47l4.11-10.46a22.91,22.91,0,0,1,3.48.68Z"/><path class="cls-3" d="M1305.05,147.2a52,52,0,0,1-1.23,10.37c-5.39-1.46-10.85-2.62-16.21-4.19a3.63,3.63,0,0,0-2.81.1,24.16,24.16,0,0,0,.84-6.14c6.47.17,12.94-.11,19.41-.14Z"/><path class="cls-6" d="M1192.76,225.19c-2.44,6.06-4.89,12.11-7.31,18.17a24.94,24.94,0,0,0-5.23-1.21c.94-6.53,1.63-13.09,2.44-19.63,3.4.79,6.73,1.79,10.1,2.66Z"/><path class="cls-7" d="M1341.78,194.23c-6.33-1.67-12.56-3.66-18.82-5.55l.29,0a41.41,41.41,0,0,1,6.28-12.36c5.13,3.86,10.35,7.6,15.43,11.54a21.92,21.92,0,0,0-3.17,6.4Z"/><path class="cls-7" d="M1351.38,28.22l-.28,1c-.6,1.68-1.37,3.28-2,4.95-2.55,5.93-5,11.91-7.59,17.83a23.43,23.43,0,0,0-5.36-1.43c1-6.42,1.71-12.87,2.65-19.29.25-2.08.57-4.16.89-6.23a60,60,0,0,1,11.71,3.21Z"/><path class="cls-9" d="M1334.9,251.28c1.81-6.18,3.34-12.43,5.28-18.57l.94.16a26,26,0,0,0,4.65.59c-.25,9.18-.25,18.37-.35,27.55-.05.89-.18,1.78-.26,2.67-1.84-.08-5.51-.37-5.51-.37l-2.16-.2s-3.73-.86-5.54-1.47c.06-.17.16-.52.22-.69,1-3.19,1.77-6.46,2.73-9.66Z"/><path class="cls-10" d="M1006.35,220.95c-4.89,4-10.13,7.67-15.1,11.61-3.77-4.49-5.94-10.09-7.39-15.72l18.69-4a23.26,23.26,0,0,0,2.7,6.5c.35.55.74,1.08,1.09,1.62Z"/><path class="cls-5" d="M1064.06,33.19s7.67-10.33,11.55-15.47a22.87,22.87,0,0,0,6.59,3.41c-2.07,6-3.77,12.16-5.61,18.26-.63,2-1.25,4-1.91,6.06-1-.33-7.72-2.89-7.72-2.89l-6.23-3a44.63,44.63,0,0,1,3.33-6.39Z"/><path class="cls-7" d="M1246.49,201.33a20.85,20.85,0,0,0,5-3.49l13.11,13.92,2.4,2.52c-1.2,1.08-3.69,3.14-3.69,3.14l-1.74,1.24s-2.67,1.7-4.09,2.41c-.56-1-1.13-2.06-1.69-3.1-2.06-4-4.32-7.95-6.41-12a20,20,0,0,0-2.85-4.69Z"/><path class="cls-2" d="M1299.65,63a20,20,0,0,1-2.46,4.91c-2.28,3.9-4.39,7.9-6.72,11.78a43,43,0,0,1-5.56-4c3.68-5.14,8-9.76,12-14.65a32,32,0,0,0,2.72,1.94Z"/><path class="cls-10" d="M1094.33,240.59l1-1.33c5.3,3.44,10.37,7.24,15.89,10.33,2,1.35,3.93,2.72,6,4,1.57,1,3.09,2,4.59,3.1l-.4,1.32-1.42,1.54-.9,1c-1-.78-2-1.55-3-2.36-2.22-1.88-4.53-3.65-6.83-5.44l-.31.3c-1.28-2.47-3.86-3.79-5.86-5.59-2.81-2.39-6.09-4.18-8.7-6.81Z"/><path class="cls-9" d="M1303.59,233.18c-5-4.16-9.88-8.57-14.78-12.91l-.64-1.8a44.45,44.45,0,0,1,11.2-9c3,5.65,6.82,13.55,9.78,19.25a22,22,0,0,0-5.56,4.49Z"/><path class="cls-2" d="M852,191.73c1,.81,8.67,8,9.62,8.86l2.14,2c4.92,4.39,9.91,8.7,14.74,13.19a23.84,23.84,0,0,0-2.18,2.81c-7.6-4.54-23.54-14.58-31.11-19.18C845.8,198.58,851.39,192.51,852,191.73Z"/><path class="cls-2" d="M26.29,296.26c1,.82,8.67,8,9.62,8.87l2.14,2c4.92,4.39,9.91,8.7,14.74,13.19a23.5,23.5,0,0,0-2.18,2.81C43,318.55,27.07,308.5,19.5,303.91,20.05,303.11,25.64,297,26.29,296.26Z"/><path class="cls-10" d="M141,312.9a43.1,43.1,0,0,1,10,7.69c-1.72,1.37-3.18,3-4.79,4.53-4.62,4.53-9.07,9.24-13.82,13.62a29,29,0,0,0-4.32-3.34c3.25-5.67,6.53-11.31,9.79-17,.64-1.1,1.27-2.2,1.9-3.31.43-.74.83-1.48,1.22-2.23Z"/><path class="cls-4" d="M270.32,334.66s5.75,2.49,8.51,3.87q-3.12,5-6.27,10.05c-3.47,5.54-7,11-10.29,16.7a21.44,21.44,0,0,0-5.25-2.37c2-6.12,5.72-18.47,5.72-18.47L266.84,334a23,23,0,0,1,3.48.68Z"/><path class="cls-5" d="M38.08,350.17a52.38,52.38,0,0,1-1.23,10.37c-5.39-1.46-10.85-2.62-16.22-4.19a3.64,3.64,0,0,0-2.81.1,24.06,24.06,0,0,0,.84-6.14c6.47.17,12.94-.11,19.41-.14Z"/><path class="cls-6" d="M145.92,385.15c-2.44,6.06-4.89,12.11-7.31,18.17a24.81,24.81,0,0,0-5.23-1.21c.94-6.53,1.64-13.09,2.44-19.63,3.4.79,6.73,1.79,10.1,2.66Z"/><path class="cls-7" d="M74.82,397.2c-6.33-1.67-12.57-3.65-18.82-5.55l.29,0a41.35,41.35,0,0,1,6.28-12.36c5.13,3.86,10.36,7.6,15.42,11.54a21.9,21.9,0,0,0-3.17,6.4Z"/><path class="cls-8" d="M295.9,391.78l-.29,1c-.59,1.68-1.37,3.29-2,5-2.55,5.93-5,11.91-7.58,17.83a23.28,23.28,0,0,0-5.37-1.43c1-6.42,1.71-12.87,2.65-19.3.25-2.08.57-4.15.89-6.23a60,60,0,0,1,11.71,3.21Z"/><path class="cls-9" d="M77.8,465c1.81-6.18,3.34-12.43,5.28-18.57l.94.16a26.1,26.1,0,0,0,4.65.59c-.25,9.18-.25,18.37-.35,27.55-.06.9-.18,1.78-.26,2.67-1.84-.08-5.51-.37-5.51-.37l-2.16-.21s-3.73-.86-5.54-1.47c.06-.17.16-.51.22-.68,1-3.19,1.77-6.46,2.73-9.67Z"/><path class="cls-10" d="M181.61,444.12c-4.89,4-10.13,7.67-15.1,11.61-3.77-4.49-5.94-10.09-7.39-15.72l18.69-4a23.29,23.29,0,0,0,2.7,6.5c.35.55.74,1.08,1.09,1.62Z"/><path class="cls-9" d="M200,284s7.67-10.33,11.55-15.47a23,23,0,0,0,6.58,3.41c-2.07,6-3.77,12.16-5.61,18.26-.63,2-1.25,4-1.91,6.06-1-.33-7.72-2.89-7.72-2.89l-6.23-3A44.5,44.5,0,0,1,200,284Z"/><path class="cls-7" d="M30.34,77a20.89,20.89,0,0,0,5-3.49L48.41,87.42l2.4,2.52c-1.2,1.08-3.69,3.14-3.69,3.14l-1.73,1.24s-2.68,1.7-4.09,2.41l-1.69-3.1c-2.05-4-4.32-7.95-6.41-12A20,20,0,0,0,30.34,77Z"/><path class="cls-10" d="M244.18,426.53a20,20,0,0,1-2.46,4.91c-2.28,3.9-4.4,7.9-6.72,11.78a43.69,43.69,0,0,1-5.56-4c3.68-5.14,8-9.76,12-14.65a31.72,31.72,0,0,0,2.72,1.94Z"/><path class="cls-9" d="M193.45,364.9l1-1.34c5.3,3.44,10.37,7.24,15.89,10.33,2,1.35,3.93,2.72,6,4,1.57,1,3.09,2,4.59,3.1l-.4,1.32-1.42,1.55-.9,1c-1-.78-2-1.55-3-2.36-2.22-1.88-4.53-3.65-6.82-5.44l-.31.3c-1.28-2.47-3.86-3.79-5.86-5.59-2.81-2.39-6.09-4.18-8.7-6.81Z"/><path class="cls-9" d="M36.62,436.14c-5-4.16-9.88-8.58-14.78-12.91l-.64-1.81a44.41,44.41,0,0,1,11.2-9c3,5.65,6.82,13.55,9.78,19.25a22,22,0,0,0-5.56,4.49Z"/><path class="cls-2" d="M316.2,343.74c1,.82,8.67,8,9.62,8.86l2.14,2c4.92,4.39,9.91,8.7,14.74,13.2a23.64,23.64,0,0,0-2.18,2.81C332.91,366,317,356,309.4,351.38,310,350.59,315.55,344.52,316.2,343.74Z"/><path class="cls-8" d="M268.93,271.19a43.1,43.1,0,0,1,10,7.69c-1.72,1.37-3.18,3-4.79,4.53-4.62,4.53-9.07,9.24-13.82,13.62A29.09,29.09,0,0,0,256,293.7c3.25-5.66,6.53-11.31,9.79-17,.64-1.1,1.27-2.2,1.91-3.31.43-.74.83-1.48,1.22-2.23Z"/><path class="cls-8" d="M402.22,311s5.75,2.49,8.51,3.87q-3.12,5-6.27,10c-3.47,5.54-7,11-10.29,16.71a21.45,21.45,0,0,0-5.25-2.37c2-6.12,5.72-18.47,5.72-18.47l4.11-10.46a23.11,23.11,0,0,1,3.48.68Z"/><path class="cls-10" d="M328,397.64A52.2,52.2,0,0,1,326.76,408c-5.39-1.46-10.85-2.62-16.22-4.19a3.63,3.63,0,0,0-2.81.1,24.09,24.09,0,0,0,.84-6.14c6.47.17,12.94-.11,19.41-.14Z"/><path class="cls-9" d="M215.7,475.63c-2.44,6.06-4.89,12.11-7.31,18.18a25,25,0,0,0-5.23-1.21c.94-6.53,1.64-13.09,2.44-19.63,3.4.79,6.73,1.79,10.11,2.66Z"/><path class="cls-7" d="M364.72,444.67c-6.33-1.67-12.57-3.66-18.82-5.55l.29,0a41.32,41.32,0,0,1,6.28-12.36c5.13,3.86,10.35,7.6,15.42,11.54a21.91,21.91,0,0,0-3.17,6.4Z"/><path class="cls-7" d="M374.31,278.66l-.29,1c-.59,1.68-1.37,3.29-2,5-2.55,5.93-5,11.91-7.59,17.83a23.33,23.33,0,0,0-5.37-1.43c1-6.42,1.71-12.87,2.65-19.29.25-2.09.57-4.16.89-6.23a59.89,59.89,0,0,1,11.71,3.21Z"/><path class="cls-9" d="M386,404c1.81-6.18,3.34-12.43,5.28-18.57l.94.16a25.72,25.72,0,0,0,4.65.59c-.25,9.19-.25,18.37-.35,27.55-.05.89-.18,1.78-.26,2.67-1.84-.08-5.51-.37-5.51-.37l-2.16-.21s-3.73-.86-5.54-1.47c.06-.18.16-.52.22-.69,1-3.19,1.77-6.46,2.73-9.67Z"/><path class="cls-3" d="M29.28,471.39c-4.89,4-10.12,7.67-15.1,11.61-3.77-4.49-5.94-10.1-7.39-15.72l18.69-4a23.31,23.31,0,0,0,2.7,6.5c.35.55.74,1.08,1.09,1.62Z"/><path class="cls-5" d="M87,283.63s7.67-10.34,11.55-15.47a23,23,0,0,0,6.58,3.41c-2.07,6-3.77,12.16-5.61,18.26-.63,2-1.25,4-1.91,6.06-1-.33-7.72-2.89-7.72-2.89l-6.23-3A44.4,44.4,0,0,1,87,283.63Z"/><path class="cls-7" d="M269.42,451.77a21,21,0,0,0,5-3.49l13.11,13.92,2.4,2.51c-1.2,1.08-3.69,3.14-3.69,3.14l-1.73,1.24s-2.68,1.7-4.09,2.41l-1.69-3.1c-2.05-4-4.32-7.95-6.41-12a19.94,19.94,0,0,0-2.85-4.69Z"/><path class="cls-9" d="M322.58,313.41a20,20,0,0,1-2.45,4.91c-2.28,3.9-4.4,7.9-6.72,11.78a43.21,43.21,0,0,1-5.56-4c3.68-5.14,8-9.76,12-14.65a31.34,31.34,0,0,0,2.72,1.94Z"/><path class="cls-9" d="M326.52,483.62c-5-4.16-9.89-8.57-14.78-12.91l-.64-1.8a44.39,44.39,0,0,1,11.2-9c3,5.64,6.82,13.55,9.78,19.25a21.89,21.89,0,0,0-5.55,4.49Z"/><path class="cls-6" d="M500.86,282c1,.81,8.67,8,9.62,8.86l2.14,2c4.92,4.39,9.91,8.7,14.74,13.2a23.72,23.72,0,0,0-2.18,2.81c-7.6-4.54-23.54-14.59-31.11-19.18C494.62,288.85,500.21,282.78,500.86,282Z"/><path class="cls-2" d="M570.16,273.43a43.11,43.11,0,0,1,10,7.69c-1.72,1.37-3.18,3-4.79,4.53-4.62,4.53-9.07,9.24-13.82,13.62a29,29,0,0,0-4.32-3.34c3.25-5.66,6.53-11.31,9.79-17l1.91-3.31c.43-.74.83-1.48,1.22-2.23Z"/><path class="cls-4" d="M699.52,295.19s5.75,2.49,8.51,3.87q-3.12,5-6.27,10.05c-3.47,5.54-7,11-10.3,16.71a21.3,21.3,0,0,0-5.25-2.38c2-6.12,5.72-18.47,5.72-18.47L696,294.5a23.27,23.27,0,0,1,3.48.69Z"/><path class="cls-3" d="M467.28,310.7a52.22,52.22,0,0,1-1.23,10.37c-5.39-1.46-10.85-2.62-16.22-4.19A3.63,3.63,0,0,0,447,317a24.11,24.11,0,0,0,.84-6.14c6.47.17,12.94-.11,19.41-.14Z"/><path class="cls-6" d="M575.12,345.68c-2.43,6.06-4.89,12.11-7.31,18.17a24.9,24.9,0,0,0-5.23-1.21c.94-6.53,1.64-13.09,2.44-19.63,3.4.79,6.73,1.79,10.1,2.66Z"/><path class="cls-7" d="M504,357.73c-6.33-1.67-12.57-3.65-18.82-5.55l.29,0a41.26,41.26,0,0,1,6.28-12.36c5.13,3.86,10.35,7.6,15.42,11.54a22,22,0,0,0-3.17,6.4Z"/><path class="cls-9" d="M725.1,352.31l-.29,1c-.6,1.68-1.37,3.29-2,5-2.56,5.93-5,11.91-7.58,17.83a23.4,23.4,0,0,0-5.37-1.43c1-6.42,1.71-12.87,2.65-19.3.25-2.08.57-4.15.88-6.23a60.13,60.13,0,0,1,11.72,3.21Z"/><path class="cls-9" d="M507,425.49c1.81-6.18,3.34-12.44,5.28-18.57l.94.16a26,26,0,0,0,4.65.59c-.25,9.19-.25,18.37-.35,27.55-.05.89-.18,1.78-.26,2.67-1.84-.08-5.51-.37-5.51-.37l-2.16-.2s-3.73-.86-5.54-1.47c.06-.17.16-.52.22-.69,1-3.19,1.77-6.46,2.73-9.66Z"/><path class="cls-10" d="M610.81,404.66c-4.89,4-10.13,7.67-15.1,11.61-3.77-4.49-5.94-10.1-7.38-15.72l18.69-4a23.3,23.3,0,0,0,2.7,6.51c.35.55.74,1.08,1.09,1.62Z"/><path class="cls-5" d="M565.38,246.2s7.67-10.33,11.55-15.47a22.94,22.94,0,0,0,6.58,3.41c-2.07,6-3.77,12.16-5.61,18.26-.63,2-1.25,4-1.91,6.06-1-.33-7.72-2.89-7.72-2.89l-6.23-3a44.47,44.47,0,0,1,3.33-6.39Z"/><path class="cls-7" d="M408.72,364.83a20.88,20.88,0,0,0,5-3.49l13.11,13.92,2.4,2.52c-1.2,1.08-3.69,3.14-3.69,3.14l-1.73,1.24s-2.68,1.7-4.09,2.41l-1.69-3.1c-2.05-4-4.32-7.94-6.41-11.95a20,20,0,0,0-2.85-4.69Z"/><path class="cls-8" d="M673.37,387.06a20,20,0,0,1-2.45,4.91c-2.28,3.9-4.4,7.9-6.72,11.78a43.32,43.32,0,0,1-5.56-4c3.68-5.14,8-9.76,12-14.66a32,32,0,0,0,2.72,1.94Z"/><path class="cls-9" d="M622.65,325.43l1-1.33c5.3,3.44,10.37,7.24,15.89,10.33,2,1.35,3.93,2.72,6,4,1.57,1,3.09,2,4.59,3.1l-.4,1.32-1.41,1.54-.91,1c-1-.78-2-1.55-3-2.36-2.22-1.88-4.53-3.65-6.82-5.44l-.31.3c-1.28-2.47-3.86-3.79-5.86-5.59-2.81-2.39-6.09-4.18-8.7-6.81Z"/><path class="cls-9" d="M465.82,396.68c-5-4.16-9.89-8.57-14.78-12.91l-.64-1.8a44.43,44.43,0,0,1,11.2-9c3,5.65,6.82,13.54,9.78,19.25a22,22,0,0,0-5.56,4.49Z"/><path class="cls-6" d="M745.39,304.27c1,.81,8.67,8,9.62,8.86l2.14,2c4.91,4.39,9.91,8.7,14.74,13.19a23.61,23.61,0,0,0-2.18,2.81c-7.6-4.54-23.54-14.59-31.11-19.18C739.15,311.12,744.74,305,745.39,304.27Z"/><path class="cls-10" d="M639.31,273.73a43.15,43.15,0,0,1,10,7.69c-1.72,1.37-3.18,3-4.79,4.53-4.62,4.53-9.07,9.24-13.82,13.62a29.16,29.16,0,0,0-4.32-3.34c3.25-5.67,6.53-11.31,9.79-17l1.9-3.31c.43-.74.83-1.48,1.22-2.24Z"/><path class="cls-9" d="M831.41,271.55s5.75,2.49,8.51,3.87q-3.12,5-6.27,10.05c-3.47,5.54-7,11-10.29,16.7a21.38,21.38,0,0,0-5.25-2.37c2-6.12,5.72-18.47,5.72-18.47l4.11-10.47a23.28,23.28,0,0,1,3.48.69Z"/><path class="cls-10" d="M757.18,358.17A52.19,52.19,0,0,1,756,368.54c-5.39-1.46-10.85-2.62-16.21-4.19a3.63,3.63,0,0,0-2.81.1,24.18,24.18,0,0,0,.84-6.14c6.47.17,12.94-.11,19.41-.14Z"/><path class="cls-6" d="M644.89,436.16c-2.43,6.06-4.89,12.11-7.31,18.17a25,25,0,0,0-5.23-1.21c.94-6.53,1.64-13.09,2.44-19.63,3.4.79,6.73,1.79,10.1,2.66Z"/><path class="cls-7" d="M793.92,405.2c-6.33-1.67-12.57-3.65-18.82-5.55l.29,0a41.28,41.28,0,0,1,6.28-12.36c5.13,3.86,10.36,7.6,15.42,11.54a21.94,21.94,0,0,0-3.17,6.4Z"/><path class="cls-7" d="M894.25,235.83l-.29,1c-.6,1.68-1.37,3.28-2,4.95-2.55,5.93-5,11.91-7.58,17.83a23.32,23.32,0,0,0-5.37-1.43c1-6.42,1.71-12.87,2.65-19.29.25-2.08.57-4.15.89-6.23a60,60,0,0,1,11.72,3.21Z"/><path class="cls-9" d="M815.23,364.49c1.81-6.18,3.34-12.43,5.28-18.57l.93.16a26.06,26.06,0,0,0,4.65.59c-.25,9.18-.25,18.37-.35,27.55-.06.89-.18,1.78-.26,2.67-1.84-.08-5.51-.37-5.51-.37l-2.16-.21s-3.73-.86-5.54-1.47c.06-.18.16-.52.21-.69,1-3.19,1.77-6.46,2.74-9.67Z"/><path class="cls-3" d="M458.48,431.92c-4.89,4-10.13,7.67-15.1,11.62-3.77-4.49-5.94-10.1-7.39-15.72l18.69-4a23.29,23.29,0,0,0,2.7,6.5c.35.55.74,1.08,1.09,1.62Z"/><path class="cls-5" d="M516.19,244.16s7.67-10.33,11.55-15.47a23,23,0,0,0,6.58,3.41c-2.07,6-3.77,12.16-5.61,18.26-.63,2-1.25,4-1.91,6.06-1-.33-7.72-2.89-7.72-2.89l-6.23-3a44.42,44.42,0,0,1,3.33-6.39Z"/><path class="cls-7" d="M698.62,412.3a20.83,20.83,0,0,0,5-3.49l13.11,13.92,2.4,2.52c-1.2,1.08-3.69,3.14-3.69,3.14l-1.74,1.24s-2.67,1.7-4.09,2.41c-.57-1-1.14-2.06-1.69-3.1-2.05-4-4.32-7.95-6.41-12a20,20,0,0,0-2.85-4.69Z"/><path class="cls-2" d="M751.78,273.94a20,20,0,0,1-2.46,4.91c-2.28,3.9-4.39,7.9-6.72,11.78a43.18,43.18,0,0,1-5.56-4c3.68-5.14,8-9.76,12-14.65a32.21,32.21,0,0,0,2.72,1.94Z"/><path class="cls-2" d="M546.46,451.56l1-1.34c5.3,3.44,10.37,7.24,15.88,10.34,2,1.35,3.93,2.72,6,4,1.57,1,3.09,2,4.59,3.1l-.4,1.32-1.42,1.54-.9,1c-1-.79-2-1.55-3-2.36-2.22-1.88-4.53-3.65-6.83-5.44l-.31.3c-1.29-2.47-3.86-3.79-5.86-5.59-2.81-2.39-6.09-4.18-8.7-6.81Z"/><path class="cls-9" d="M755.72,444.15c-5-4.16-9.89-8.57-14.78-12.91l-.64-1.8a44.45,44.45,0,0,1,11.2-9c3,5.65,6.82,13.55,9.78,19.25a22,22,0,0,0-5.56,4.49Z"/><path class="cls-6" d="M378,469c1,.82,8.68,8,9.62,8.86l2.14,2c4.92,4.38,9.91,8.7,14.74,13.19a23.42,23.42,0,0,0-2.18,2.81c-7.6-4.54-23.54-14.58-31.11-19.18C371.8,475.85,377.39,469.79,378,469Z"/><path class="cls-5" d="M596,473.1s7.67-10.33,11.55-15.47a22.93,22.93,0,0,0,6.58,3.41c-2.07,6-3.77,12.16-5.61,18.25-.63,2-1.25,4.05-1.9,6.07-1-.33-7.72-2.89-7.72-2.89l-6.23-3A44.33,44.33,0,0,1,596,473.1Z"/><path class="cls-10" d="M664.94,460.31a43.19,43.19,0,0,1,10,7.69c-1.73,1.37-3.18,3-4.79,4.53-4.62,4.53-9.07,9.24-13.82,13.62a29.24,29.24,0,0,0-4.32-3.34c3.25-5.67,6.53-11.3,9.79-17,.64-1.1,1.27-2.2,1.9-3.31.43-.74.83-1.48,1.22-2.23Z"/><path class="cls-7" d="M770.32,467.78l-.29,1c-.6,1.68-1.37,3.28-2,4.95-2.56,5.94-5,11.91-7.59,17.83a23.31,23.31,0,0,0-5.37-1.44c1-6.42,1.71-12.87,2.65-19.29.25-2.08.57-4.16.89-6.23a60.13,60.13,0,0,1,11.71,3.21Z"/><path class="cls-5" d="M894.48,328.74s5.75,2.49,8.51,3.87q-3.12,5-6.27,10.05c-3.47,5.54-7,11-10.29,16.71a21.4,21.4,0,0,0-5.25-2.37c2-6.12,5.72-18.47,5.72-18.47l4.1-10.46a22.92,22.92,0,0,1,3.48.68Z"/><path class="cls-7" d="M866.57,296.38l-.29,1c-.6,1.68-1.37,3.29-2,5-2.56,5.93-5,11.91-7.59,17.83a23.42,23.42,0,0,0-5.37-1.43c1-6.42,1.71-12.87,2.65-19.29.25-2.08.57-4.15.89-6.23a60,60,0,0,1,11.71,3.21Z"/><path class="cls-9" d="M878.29,421.68c1.81-6.18,3.34-12.43,5.28-18.57l.94.16a25.73,25.73,0,0,0,4.65.59c-.25,9.19-.25,18.37-.35,27.55-.05.89-.18,1.78-.26,2.67-1.84-.08-5.51-.37-5.51-.37l-2.16-.2s-3.73-.86-5.54-1.47l.22-.69c1-3.19,1.77-6.46,2.74-9.67Z"/><path class="cls-2" d="M947.75,274.51c1,.82,8.67,8,9.62,8.87l2.14,2c4.92,4.39,9.91,8.7,14.74,13.19a23.43,23.43,0,0,0-2.18,2.81c-7.6-4.54-23.54-14.59-31.11-19.18C941.51,281.36,947.1,275.3,947.75,274.51Z"/><path class="cls-10" d="M1062.42,291.15a43.1,43.1,0,0,1,10,7.69c-1.72,1.37-3.18,3-4.79,4.53-4.62,4.53-9.06,9.24-13.82,13.62a29.15,29.15,0,0,0-4.32-3.34c3.25-5.66,6.53-11.31,9.79-17,.64-1.1,1.27-2.2,1.91-3.31.43-.74.83-1.48,1.22-2.23Z"/><path class="cls-4" d="M1191.78,312.91s5.75,2.49,8.51,3.87q-3.12,5-6.27,10.05c-3.47,5.54-7,11-10.3,16.71a21.42,21.42,0,0,0-5.25-2.37c2-6.12,5.72-18.47,5.72-18.47l4.11-10.47a23.15,23.15,0,0,1,3.48.68Z"/><path class="cls-10" d="M959.54,328.42a52.06,52.06,0,0,1-1.23,10.37c-5.39-1.46-10.85-2.62-16.21-4.19a3.62,3.62,0,0,0-2.81.11,24.11,24.11,0,0,0,.84-6.15c6.47.17,12.94-.11,19.41-.14Z"/><path class="cls-10" d="M1067.38,363.4c-2.44,6.06-4.89,12.11-7.31,18.17a24.84,24.84,0,0,0-5.23-1.21c.94-6.53,1.63-13.09,2.44-19.63,3.4.79,6.73,1.79,10.1,2.66Z"/><path class="cls-7" d="M996.27,375.45c-6.33-1.67-12.57-3.65-18.83-5.55l.29,0A41.34,41.34,0,0,1,984,357.51c5.13,3.86,10.35,7.6,15.42,11.54a21.89,21.89,0,0,0-3.17,6.4Z"/><path class="cls-7" d="M1217.36,370l-.29,1c-.6,1.68-1.37,3.28-2,4.95-2.56,5.93-5,11.91-7.59,17.83a23.36,23.36,0,0,0-5.37-1.43c1-6.42,1.71-12.87,2.65-19.29.25-2.08.57-4.16.88-6.23a60.05,60.05,0,0,1,11.71,3.21Z"/><path class="cls-9" d="M999.25,443.21c1.81-6.18,3.34-12.43,5.29-18.57l.94.16a26,26,0,0,0,4.65.59c-.25,9.18-.25,18.37-.35,27.55-.05.9-.18,1.78-.26,2.67-1.84-.08-5.51-.37-5.51-.37l-2.16-.2s-3.73-.86-5.54-1.47c.06-.17.16-.52.22-.69,1-3.19,1.77-6.46,2.73-9.66Z"/><path class="cls-3" d="M1103.07,422.37c-4.89,4-10.13,7.67-15.1,11.61-3.77-4.49-5.94-10.1-7.38-15.72l18.69-4a23.34,23.34,0,0,0,2.7,6.51c.35.55.74,1.08,1.09,1.62Z"/><path class="cls-5" d="M1131.11,279.72s7.67-10.34,11.55-15.47a23,23,0,0,0,6.58,3.41c-2.07,6-3.77,12.16-5.61,18.26-.63,2-1.25,4-1.91,6.07-1-.33-7.72-2.89-7.72-2.89l-6.23-3a44.24,44.24,0,0,1,3.33-6.38Z"/><path class="cls-7" d="M901,382.55a20.88,20.88,0,0,0,5-3.49L919,393l2.4,2.52c-1.2,1.08-3.69,3.13-3.69,3.13L916,399.87s-2.68,1.7-4.09,2.41l-1.69-3.1c-2.05-4-4.32-7.95-6.41-12a19.93,19.93,0,0,0-2.85-4.69Z"/><path class="cls-5" d="M1165.63,404.78a19.9,19.9,0,0,1-2.45,4.91c-2.28,3.9-4.4,7.9-6.72,11.78a43.51,43.51,0,0,1-5.56-4c3.68-5.14,8-9.76,12-14.65a31.77,31.77,0,0,0,2.72,1.94Z"/><path class="cls-6" d="M1114.91,343.15l1-1.33c5.3,3.44,10.37,7.24,15.88,10.33,2,1.35,3.93,2.72,6,4,1.57,1,3.09,2,4.59,3.1l-.4,1.32-1.42,1.54-.9,1c-1-.78-2-1.55-3-2.36-2.22-1.88-4.53-3.65-6.82-5.44l-.32.3c-1.28-2.47-3.86-3.79-5.86-5.59-2.81-2.39-6.09-4.18-8.7-6.81Z"/><path class="cls-9" d="M958.08,414.39c-5-4.16-9.89-8.57-14.78-12.91l-.64-1.8a44.39,44.39,0,0,1,11.2-9c3,5.65,6.82,13.54,9.78,19.25a21.93,21.93,0,0,0-5.56,4.49Z"/><path class="cls-6" d="M1237.65,322c1,.81,8.67,8,9.62,8.86l2.14,2c4.91,4.39,9.91,8.7,14.74,13.19a23.37,23.37,0,0,0-2.18,2.81c-7.6-4.54-23.54-14.59-31.11-19.18C1231.41,328.84,1237,322.77,1237.65,322Z"/><path class="cls-9" d="M1190.38,249.44a43.16,43.16,0,0,1,10,7.69c-1.73,1.37-3.18,3-4.79,4.53-4.62,4.53-9.07,9.24-13.82,13.62a29.36,29.36,0,0,0-4.32-3.34c3.25-5.67,6.53-11.31,9.79-17l1.91-3.31c.43-.74.83-1.48,1.22-2.24Z"/><path class="cls-4" d="M1323.67,289.27s5.75,2.49,8.51,3.86q-3.12,5-6.26,10.05c-3.47,5.54-7,11-10.3,16.7a21.45,21.45,0,0,0-5.25-2.37c2-6.12,5.72-18.47,5.72-18.47l4.11-10.47a23.27,23.27,0,0,1,3.48.69Z"/><path class="cls-3" d="M1249.44,375.89a52.17,52.17,0,0,1-1.23,10.37c-5.39-1.46-10.85-2.62-16.21-4.19a3.64,3.64,0,0,0-2.81.1A24.17,24.17,0,0,0,1230,376c6.47.17,12.94-.11,19.41-.14Z"/><path class="cls-6" d="M1137.15,453.88c-2.43,6.06-4.89,12.11-7.31,18.17a25,25,0,0,0-5.23-1.2c.94-6.53,1.63-13.09,2.44-19.63,3.4.79,6.73,1.79,10.1,2.66Z"/><path class="cls-7" d="M1286.17,422.92c-6.33-1.67-12.56-3.66-18.82-5.55l.29,0a41.32,41.32,0,0,1,6.28-12.36c5.13,3.86,10.35,7.6,15.42,11.54a21.85,21.85,0,0,0-3.17,6.4Z"/><path class="cls-7" d="M1295.77,256.91l-.29,1c-.6,1.68-1.37,3.29-2,5-2.55,5.93-5,11.91-7.59,17.83a23.36,23.36,0,0,0-5.37-1.43c1-6.42,1.71-12.87,2.65-19.29.25-2.08.57-4.16.89-6.23a60,60,0,0,1,11.71,3.21Z"/><path class="cls-9" d="M1307.49,382.21c1.81-6.18,3.34-12.43,5.28-18.57l.93.16a25.79,25.79,0,0,0,4.65.59c-.25,9.19-.25,18.37-.35,27.55-.06.89-.18,1.78-.26,2.67-1.84-.08-5.51-.37-5.51-.37l-2.16-.21s-3.73-.86-5.54-1.47c.06-.17.16-.52.22-.69,1-3.19,1.77-6.46,2.74-9.67Z"/><path class="cls-10" d="M950.74,449.64c-4.89,4-10.12,7.67-15.1,11.61-3.77-4.49-5.94-10.1-7.39-15.72l18.7-4a23.21,23.21,0,0,0,2.7,6.5c.35.55.74,1.08,1.09,1.62Z"/><path class="cls-5" d="M1008.45,261.88s7.67-10.33,11.55-15.47a23,23,0,0,0,6.58,3.41c-2.07,6-3.77,12.16-5.61,18.26-.63,2-1.25,4-1.9,6.06-1-.33-7.72-2.89-7.72-2.89l-6.23-3a44.72,44.72,0,0,1,3.33-6.39Z"/><path class="cls-7" d="M1190.88,430a20.84,20.84,0,0,0,5-3.49l13.11,13.92,2.4,2.51c-1.2,1.09-3.69,3.14-3.69,3.14l-1.73,1.24s-2.68,1.7-4.09,2.41l-1.69-3.1c-2.05-4-4.32-7.95-6.41-12a19.93,19.93,0,0,0-2.85-4.69Z"/><path class="cls-2" d="M1244,291.66a20.06,20.06,0,0,1-2.46,4.9c-2.28,3.9-4.4,7.9-6.72,11.78a43.16,43.16,0,0,1-5.56-4c3.68-5.14,8-9.76,12-14.65a31.4,31.4,0,0,0,2.72,1.94Z"/><path class="cls-10" d="M1038.72,469.28l1-1.33c5.3,3.44,10.37,7.24,15.89,10.33,2,1.35,3.93,2.72,6,4,1.57,1,3.09,2,4.59,3.1l-.4,1.32-1.42,1.55-.9,1c-1-.78-2-1.55-3-2.36-2.22-1.88-4.54-3.65-6.82-5.44l-.31.3c-1.29-2.47-3.86-3.79-5.87-5.59-2.81-2.39-6.09-4.18-8.7-6.81Z"/><path class="cls-9" d="M1248,461.87c-5-4.16-9.88-8.57-14.78-12.91l-.64-1.8a44.54,44.54,0,0,1,11.2-9c3,5.65,6.82,13.55,9.78,19.25a22,22,0,0,0-5.56,4.49Z"/><path class="cls-2" d="M796.43,420.42c1,.82,8.67,8,9.62,8.86l2.14,2c4.92,4.39,9.91,8.7,14.74,13.19a24,24,0,0,0-2.18,2.81c-7.6-4.54-23.54-14.59-31.11-19.18C790.19,427.27,795.78,421.2,796.43,420.42Z"/><path class="cls-2" d="M1305.89,524.39c-1,.82-8.67,8-9.62,8.87l-2.14,1.95c-4.92,4.39-9.91,8.7-14.74,13.2a23.25,23.25,0,0,1,2.18,2.81c7.6-4.54,23.54-14.59,31.11-19.18C1312.13,531.24,1306.54,525.18,1305.89,524.39Z"/><path class="cls-10" d="M1191.21,541a43,43,0,0,0-10,7.69c1.72,1.37,3.18,3,4.79,4.53,4.62,4.53,9.07,9.24,13.82,13.62a29.21,29.21,0,0,1,4.31-3.34c-3.24-5.67-6.53-11.31-9.79-17l-1.9-3.31c-.43-.74-.83-1.48-1.22-2.24Z"/><path class="cls-4" d="M1061.86,562.79s-5.75,2.49-8.51,3.87q3.12,5,6.27,10.05c3.47,5.54,7,11,10.29,16.71a21.37,21.37,0,0,1,5.25-2.37c-2-6.12-5.72-18.47-5.72-18.47l-4.11-10.46a23.2,23.2,0,0,0-3.48.68Z"/><path class="cls-5" d="M1294.1,578.3a52.32,52.32,0,0,0,1.23,10.37c5.39-1.46,10.85-2.62,16.22-4.19a3.62,3.62,0,0,1,2.81.1,24.1,24.1,0,0,1-.84-6.15c-6.47.17-12.94-.11-19.41-.14Z"/><path class="cls-6" d="M1186.26,613.28c2.44,6.06,4.89,12.11,7.31,18.17a25,25,0,0,1,5.23-1.21c-.94-6.53-1.64-13.09-2.44-19.63-3.4.79-6.73,1.78-10.11,2.66Z"/><path class="cls-7" d="M1257.36,625.33c6.32-1.67,12.56-3.65,18.82-5.55l-.29,0a41.35,41.35,0,0,0-6.28-12.36c-5.13,3.86-10.36,7.6-15.42,11.54a21.94,21.94,0,0,1,3.17,6.4Z"/><path class="cls-8" d="M1036.27,619.91l.29,1c.59,1.68,1.37,3.29,2,4.95,2.55,5.94,5,11.91,7.58,17.83a23.42,23.42,0,0,1,5.37-1.43c-1-6.42-1.71-12.87-2.65-19.29-.25-2.08-.57-4.16-.89-6.23a60,60,0,0,0-11.71,3.21Z"/><path class="cls-9" d="M1254.38,693.09c-1.81-6.18-3.34-12.44-5.28-18.57l-.94.16a26.39,26.39,0,0,1-4.65.59c.25,9.19.25,18.37.35,27.55.06.89.18,1.78.26,2.67,1.84-.08,5.51-.37,5.51-.37l2.16-.21s3.73-.86,5.54-1.47c-.06-.17-.16-.51-.22-.68-1-3.19-1.77-6.46-2.73-9.66Z"/><path class="cls-3" d="M1150.57,672.25c4.89,4.05,10.12,7.67,15.1,11.61,3.77-4.49,5.94-10.1,7.39-15.72l-18.69-4a23.37,23.37,0,0,1-2.7,6.5c-.35.55-.74,1.08-1.09,1.62Z"/><path class="cls-9" d="M1132.15,512.11s-7.67-10.34-11.55-15.47a22.92,22.92,0,0,1-6.58,3.41c2.07,6,3.77,12.16,5.61,18.26.63,2,1.25,4,1.91,6.06,1-.33,7.72-2.89,7.72-2.89l6.23-3a44.37,44.37,0,0,0-3.33-6.39Z"/><path class="cls-7" d="M1352.66,632.43a20.85,20.85,0,0,1-5-3.49l-13.11,13.92-2.4,2.52c1.2,1.08,3.69,3.13,3.69,3.13l1.73,1.24s2.68,1.7,4.09,2.41l1.69-3.09c2.05-4,4.32-8,6.41-12a19.94,19.94,0,0,1,2.85-4.69Z"/><path class="cls-10" d="M1088,654.66a20,20,0,0,0,2.46,4.91c2.28,3.9,4.4,7.9,6.72,11.78a43.58,43.58,0,0,0,5.56-4c-3.69-5.14-8-9.76-12-14.65a31.27,31.27,0,0,1-2.72,1.94Z"/><path class="cls-9" d="M1138.73,593l-1-1.34c-5.3,3.44-10.37,7.24-15.88,10.33-2,1.35-3.93,2.72-6,4-1.57,1-3.09,2-4.59,3.1l.4,1.32,1.42,1.54.9,1c1-.78,2-1.55,3-2.36,2.22-1.88,4.54-3.65,6.83-5.44l.31.3c1.28-2.47,3.86-3.79,5.86-5.59,2.81-2.39,6.09-4.18,8.7-6.81Z"/><path class="cls-9" d="M1295.56,664.27c5-4.16,9.89-8.57,14.78-12.91l.64-1.8a44.49,44.49,0,0,0-11.2-9c-3,5.65-6.82,13.55-9.78,19.25a21.9,21.9,0,0,1,5.56,4.49Z"/><path class="cls-2" d="M1016,571.87c-1,.82-8.68,8-9.62,8.87l-2.14,2c-4.92,4.39-9.91,8.7-14.74,13.2a23.6,23.6,0,0,1,2.18,2.81c7.6-4.54,23.54-14.59,31.11-19.18C1022.22,578.71,1016.64,572.65,1016,571.87Z"/><path class="cls-8" d="M1063.25,499.32a43.18,43.18,0,0,0-10,7.69c1.72,1.37,3.18,3,4.79,4.53,4.62,4.53,9.07,9.24,13.82,13.63a29,29,0,0,1,4.32-3.34c-3.25-5.66-6.53-11.3-9.79-17l-1.91-3.31c-.43-.74-.83-1.48-1.22-2.24Z"/><path class="cls-8" d="M930,539.15s-5.75,2.49-8.51,3.87q3.12,5,6.27,10.05c3.47,5.54,7,11,10.29,16.71a21.5,21.5,0,0,1,5.25-2.37c-2-6.12-5.72-18.47-5.72-18.47l-4.1-10.46a23.06,23.06,0,0,0-3.48.68Z"/><path class="cls-3" d="M1004.19,625.77a52.17,52.17,0,0,0,1.23,10.37c5.39-1.46,10.85-2.62,16.22-4.19a3.63,3.63,0,0,1,2.81.1,24.18,24.18,0,0,1-.84-6.15c-6.47.17-12.94-.11-19.41-.14Z"/><path class="cls-9" d="M1116.48,703.76c2.44,6.06,4.89,12.11,7.31,18.18a24.64,24.64,0,0,1,5.23-1.21c-.94-6.53-1.63-13.09-2.44-19.63-3.4.78-6.73,1.78-10.1,2.66Z"/><path class="cls-7" d="M967.46,672.8c6.33-1.67,12.56-3.66,18.82-5.55l-.29,0a41.31,41.31,0,0,0-6.28-12.36c-5.13,3.86-10.36,7.6-15.42,11.54a21.87,21.87,0,0,1,3.17,6.4Z"/><path class="cls-7" d="M957.87,506.79l.29,1c.59,1.68,1.37,3.29,2,5,2.55,5.93,5,11.91,7.59,17.83a23.4,23.4,0,0,1,5.37-1.43c-1-6.42-1.71-12.87-2.65-19.29-.25-2.08-.57-4.16-.89-6.23a60.1,60.1,0,0,0-11.71,3.21Z"/><path class="cls-9" d="M946.15,632.09c-1.81-6.18-3.34-12.43-5.28-18.57l-.94.16a25.77,25.77,0,0,1-4.65.59c.25,9.19.25,18.37.35,27.55.06.89.18,1.78.26,2.67,1.84-.08,5.51-.37,5.51-.37l2.16-.21s3.73-.86,5.54-1.47c-.06-.17-.16-.52-.22-.68-1-3.19-1.77-6.46-2.73-9.67Z"/><path class="cls-3" d="M1302.9,699.52c4.89,4.05,10.12,7.67,15.1,11.61,3.77-4.49,5.94-10.1,7.38-15.72l-18.69-4a23.26,23.26,0,0,1-2.7,6.5c-.35.55-.74,1.08-1.09,1.62Z"/><path class="cls-5" d="M1245.19,511.76s-7.67-10.34-11.55-15.47a22.88,22.88,0,0,1-6.58,3.41c2.07,6,3.77,12.16,5.61,18.26.63,2,1.25,4,1.91,6.06,1-.33,7.72-2.89,7.72-2.89l6.23-3a44.43,44.43,0,0,0-3.33-6.39Z"/><path class="cls-7" d="M1062.76,679.9a20.94,20.94,0,0,1-5-3.49l-13.11,13.92c-.8.84-1.6,1.67-2.4,2.52,1.2,1.08,3.69,3.13,3.69,3.13l1.73,1.24s2.68,1.7,4.09,2.41l1.69-3.09c2.05-4,4.32-8,6.41-12a20,20,0,0,1,2.85-4.69Z"/><path class="cls-9" d="M1009.6,541.54a20.16,20.16,0,0,0,2.45,4.91c2.28,3.9,4.4,7.9,6.72,11.78a43.1,43.1,0,0,0,5.56-4c-3.68-5.14-8-9.76-12-14.65a31.87,31.87,0,0,1-2.72,1.94Z"/><path class="cls-9" d="M1005.66,711.74c5-4.16,9.89-8.57,14.78-12.91l.64-1.81a44.46,44.46,0,0,0-11.2-9c-3,5.65-6.82,13.55-9.78,19.25a22,22,0,0,1,5.56,4.49Z"/><path class="cls-6" d="M876.69,484.93c-1,.81-8.67,8-9.62,8.87l-2.14,1.95c-4.92,4.39-9.91,8.7-14.74,13.2a23.8,23.8,0,0,1,2.18,2.81c7.6-4.54,23.54-14.59,31.11-19.18C882.93,491.77,877.34,485.71,876.69,484.93Z"/><path class="cls-2" d="M762,501.56a43.21,43.21,0,0,0-10,7.69c1.72,1.37,3.18,3,4.79,4.53,4.62,4.53,9.07,9.24,13.82,13.63a28.85,28.85,0,0,1,4.32-3.34c-3.25-5.67-6.53-11.31-9.79-17l-1.91-3.31c-.43-.74-.83-1.49-1.22-2.24Z"/><path class="cls-4" d="M632.66,523.32s-5.75,2.49-8.51,3.87q3.12,5,6.27,10.05c3.47,5.54,7,11,10.3,16.7a21.27,21.27,0,0,1,5.25-2.37c-2-6.12-5.72-18.47-5.72-18.47l-4.11-10.46a23.12,23.12,0,0,0-3.48.68Z"/><path class="cls-3" d="M864.9,538.83a52.16,52.16,0,0,0,1.23,10.37c5.39-1.46,10.85-2.62,16.21-4.19a3.64,3.64,0,0,1,2.81.1,24.11,24.11,0,0,1-.85-6.15c-6.47.17-12.94-.11-19.41-.14Z"/><path class="cls-6" d="M757.06,573.81c2.44,6.06,4.89,12.11,7.31,18.17a24.93,24.93,0,0,1,5.23-1.21c-.94-6.53-1.64-13.09-2.44-19.63-3.4.78-6.73,1.79-10.1,2.66Z"/><path class="cls-7" d="M828.17,585.86c6.33-1.67,12.57-3.65,18.82-5.55l-.29,0a41.24,41.24,0,0,0-6.28-12.36c-5.12,3.86-10.35,7.6-15.42,11.54a21.92,21.92,0,0,1,3.17,6.4Z"/><path class="cls-9" d="M607.08,580.44l.29,1c.59,1.68,1.37,3.29,2,4.95,2.55,5.93,5,11.91,7.58,17.83a23.42,23.42,0,0,1,5.37-1.43c-1-6.42-1.71-12.87-2.65-19.29-.25-2.08-.57-4.16-.89-6.23a60,60,0,0,0-11.71,3.21Z"/><path class="cls-9" d="M825.19,653.62c-1.81-6.18-3.34-12.44-5.29-18.57l-.94.16a26.1,26.1,0,0,1-4.65.59c.25,9.19.25,18.37.35,27.55.05.9.18,1.78.26,2.67,1.84-.08,5.51-.37,5.51-.37l2.16-.21s3.73-.86,5.54-1.47c-.06-.18-.16-.52-.22-.69-1-3.19-1.77-6.46-2.73-9.66Z"/><path class="cls-3" d="M721.37,632.78c4.89,4.05,10.12,7.67,15.1,11.61,3.77-4.49,5.94-10.1,7.39-15.72l-18.7-4a23.2,23.2,0,0,1-2.7,6.5c-.35.55-.74,1.08-1.09,1.62Z"/><path class="cls-5" d="M703,472.65s-7.67-10.34-11.55-15.47a22.89,22.89,0,0,1-6.58,3.41c2.07,6,3.77,12.16,5.61,18.26.63,2,1.25,4,1.9,6.06,1-.33,7.72-2.89,7.72-2.89l6.23-3a44.81,44.81,0,0,0-3.33-6.39Z"/><path class="cls-7" d="M923.46,593a20.88,20.88,0,0,1-5-3.49l-13.11,13.92L903,605.9c1.2,1.08,3.69,3.14,3.69,3.14l1.73,1.24s2.67,1.7,4.09,2.41l1.69-3.09c2.05-4,4.32-7.95,6.41-12a20,20,0,0,1,2.85-4.69Z"/><path class="cls-8" d="M658.81,615.2a20,20,0,0,0,2.46,4.9c2.28,3.9,4.4,7.9,6.72,11.78a43.39,43.39,0,0,0,5.56-4c-3.68-5.14-8-9.77-12-14.66a32.09,32.09,0,0,1-2.72,1.94Z"/><path class="cls-9" d="M709.53,553.56l-1-1.34c-5.3,3.44-10.37,7.24-15.88,10.33-2,1.35-3.93,2.72-6,4-1.57,1-3.09,2-4.59,3.1l.4,1.32,1.42,1.54.9,1c1-.78,2-1.55,3-2.36,2.22-1.88,4.53-3.65,6.83-5.44l.31.3c1.28-2.47,3.86-3.79,5.86-5.58,2.81-2.39,6.09-4.18,8.7-6.81Z"/><path class="cls-9" d="M866.36,624.8c5-4.16,9.89-8.57,14.78-12.91l.64-1.8a44.47,44.47,0,0,0-11.2-9c-3,5.65-6.82,13.55-9.78,19.25a22,22,0,0,1,5.56,4.49Z"/><path class="cls-6" d="M586.79,532.4c-1,.82-8.68,8-9.62,8.86l-2.14,2c-4.91,4.39-9.91,8.7-14.74,13.2a23.45,23.45,0,0,1,2.18,2.81c7.6-4.54,23.54-14.59,31.11-19.18C593,539.24,587.44,533.18,586.79,532.4Z"/><path class="cls-10" d="M634.06,459.85a43.13,43.13,0,0,0-10,7.69c1.72,1.37,3.18,3,4.79,4.53,4.62,4.53,9.07,9.24,13.82,13.63a29.12,29.12,0,0,1,4.32-3.34c-3.24-5.66-6.53-11.31-9.79-17l-1.91-3.31c-.43-.74-.83-1.48-1.22-2.24Z"/><path class="cls-9" d="M500.77,499.69s-5.75,2.49-8.51,3.87q3.12,5,6.27,10.05c3.47,5.54,7,11,10.3,16.71a21.31,21.31,0,0,1,5.25-2.37c-2-6.12-5.72-18.47-5.72-18.47L504.25,499a23.14,23.14,0,0,0-3.48.68Z"/><path class="cls-3" d="M575,586.3a52.43,52.43,0,0,0,1.23,10.37c5.39-1.46,10.85-2.62,16.21-4.19a3.62,3.62,0,0,1,2.81.1,24,24,0,0,1-.84-6.15c-6.47.17-12.94-.11-19.41-.14Z"/><path class="cls-6" d="M687.28,664.29c2.44,6.06,4.89,12.11,7.31,18.17a24.87,24.87,0,0,1,5.23-1.2c-.94-6.53-1.64-13.09-2.44-19.63-3.4.78-6.73,1.78-10.11,2.66Z"/><path class="cls-7" d="M538.26,633.33c6.33-1.67,12.57-3.66,18.82-5.55l-.29,0a41.28,41.28,0,0,0-6.28-12.36c-5.13,3.86-10.35,7.6-15.42,11.54a21.92,21.92,0,0,1,3.17,6.4Z"/><path class="cls-7" d="M528.67,467.32l.29,1c.6,1.68,1.37,3.28,2,4.95,2.56,5.93,5,11.91,7.58,17.83a23.34,23.34,0,0,1,5.37-1.43c-1-6.42-1.71-12.87-2.65-19.29-.25-2.08-.57-4.16-.89-6.23a60.06,60.06,0,0,0-11.71,3.21Z"/><path class="cls-9" d="M517,592.62c-1.81-6.18-3.34-12.43-5.28-18.57l-.94.16a25.8,25.8,0,0,1-4.65.59c.25,9.19.25,18.37.35,27.55.06.89.18,1.78.26,2.67,1.84-.08,5.51-.37,5.51-.37l2.16-.21s3.73-.86,5.54-1.47c-.06-.17-.16-.52-.22-.69-1-3.19-1.77-6.46-2.73-9.67Z"/><path class="cls-3" d="M873.7,660c4.89,4.05,10.12,7.67,15.1,11.61,3.77-4.49,5.94-10.1,7.39-15.72l-18.7-4a23.35,23.35,0,0,1-2.7,6.51c-.35.55-.74,1.08-1.09,1.62Z"/><path class="cls-5" d="M816,472.29s-7.67-10.34-11.55-15.47a23,23,0,0,1-6.58,3.41c2.07,6,3.77,12.16,5.61,18.26.63,2,1.25,4,1.91,6.06,1-.33,7.71-2.89,7.71-2.89l6.23-3a44.33,44.33,0,0,0-3.33-6.39Z"/><path class="cls-7" d="M633.56,640.43a20.88,20.88,0,0,1-5-3.49l-13.11,13.92-2.4,2.52c1.2,1.08,3.69,3.13,3.69,3.13l1.74,1.24s2.67,1.7,4.09,2.42l1.69-3.1c2.05-4,4.32-7.95,6.41-12a20,20,0,0,1,2.85-4.69Z"/><path class="cls-2" d="M580.4,502.07a20,20,0,0,0,2.45,4.91c2.28,3.9,4.4,7.9,6.72,11.78a43.27,43.27,0,0,0,5.56-4c-3.68-5.14-8-9.76-12-14.65a32.18,32.18,0,0,1-2.72,1.94Z"/><path class="cls-2" d="M785.72,679.69l-1-1.34c-5.3,3.44-10.37,7.24-15.89,10.33-2,1.35-3.93,2.72-6,4-1.57,1-3.09,2-4.59,3.1l.4,1.32,1.42,1.54.9,1c1-.78,2-1.55,3-2.36,2.22-1.88,4.53-3.65,6.83-5.44l.31.3c1.28-2.47,3.86-3.79,5.86-5.59,2.81-2.39,6.09-4.18,8.7-6.81Z"/><path class="cls-9" d="M576.46,672.28c5-4.16,9.88-8.57,14.78-12.91l.64-1.8a44.37,44.37,0,0,0-11.2-9c-3,5.65-6.82,13.54-9.78,19.25a22,22,0,0,1,5.56,4.49Z"/><path class="cls-6" d="M954.14,697.14c-1,.82-8.68,8-9.62,8.86l-2.14,2c-4.92,4.39-9.91,8.7-14.74,13.19a23.63,23.63,0,0,1,2.18,2.81c7.6-4.54,23.54-14.59,31.11-19.18C960.38,704,954.79,697.92,954.14,697.14Z"/><path class="cls-5" d="M736.14,701.23s-7.67-10.34-11.55-15.47a22.91,22.91,0,0,1-6.58,3.41c2.07,6,3.77,12.16,5.61,18.26.63,2,1.25,4,1.91,6.06,1-.33,7.72-2.89,7.72-2.89l6.23-3a44.2,44.2,0,0,0-3.33-6.39Z"/><path class="cls-10" d="M667.24,688.44a43.24,43.24,0,0,0-10,7.69c1.72,1.37,3.18,3,4.79,4.53,4.62,4.53,9.07,9.24,13.82,13.62a29.36,29.36,0,0,1,4.32-3.34c-3.25-5.66-6.53-11.3-9.79-17l-1.9-3.31c-.43-.74-.83-1.48-1.22-2.24Z"/><path class="cls-7" d="M561.86,695.91l.29,1c.59,1.68,1.37,3.29,2,5,2.56,5.93,5,11.91,7.59,17.83a23.4,23.4,0,0,1,5.37-1.43c-1-6.42-1.71-12.87-2.65-19.29-.25-2.08-.57-4.16-.89-6.23a60.28,60.28,0,0,0-11.71,3.21Z"/><path class="cls-5" d="M437.71,556.87s-5.75,2.49-8.51,3.87q3.12,5,6.27,10.05c3.47,5.54,7,11,10.3,16.7a21.42,21.42,0,0,1,5.25-2.37c-2-6.12-5.72-18.47-5.72-18.47l-4.11-10.46a23,23,0,0,0-3.48.68Z"/><path class="cls-7" d="M465.61,524.51l.29,1c.6,1.68,1.37,3.28,2,4.95,2.55,5.93,5,11.91,7.58,17.83a23.35,23.35,0,0,1,5.37-1.43c-1-6.42-1.71-12.87-2.65-19.29-.25-2.08-.57-4.16-.88-6.23a60,60,0,0,0-11.71,3.21Z"/><path class="cls-9" d="M453.89,649.81c-1.81-6.18-3.34-12.44-5.28-18.57l-.94.16A26.09,26.09,0,0,1,443,632c.25,9.19.25,18.37.35,27.55.06.9.18,1.78.26,2.67,1.84-.08,5.51-.37,5.51-.37l2.16-.21s3.73-.86,5.54-1.47c-.06-.17-.16-.51-.22-.68-1-3.19-1.77-6.46-2.74-9.66Z"/><path class="cls-2" d="M384.43,502.64c-1,.81-8.68,8-9.62,8.87l-2.14,1.95c-4.91,4.39-9.91,8.7-14.73,13.2a23.88,23.88,0,0,1,2.18,2.81c7.6-4.54,23.54-14.59,31.11-19.18C390.67,509.49,385.08,503.43,384.43,502.64Z"/><path class="cls-10" d="M269.76,519.28a43.12,43.12,0,0,0-10,7.69c1.73,1.37,3.18,3,4.79,4.53,4.62,4.53,9.07,9.24,13.82,13.63a28.84,28.84,0,0,1,4.32-3.34c-3.25-5.67-6.53-11.31-9.79-17-.64-1.1-1.27-2.2-1.9-3.31-.43-.74-.83-1.48-1.22-2.23Z"/><path class="cls-4" d="M140.4,541s-5.75,2.49-8.51,3.87q3.12,5,6.27,10.05c3.47,5.54,7,11,10.29,16.71a21.49,21.49,0,0,1,5.26-2.37c-2-6.12-5.72-18.47-5.72-18.47l-4.11-10.47a23.49,23.49,0,0,0-3.48.68Z"/><path class="cls-3" d="M372.64,556.55a52.2,52.2,0,0,0,1.23,10.37c5.39-1.46,10.85-2.62,16.21-4.19a3.64,3.64,0,0,1,2.81.1,24.23,24.23,0,0,1-.84-6.15c-6.47.17-12.94-.11-19.41-.14Z"/><path class="cls-3" d="M264.8,591.53c2.44,6.06,4.89,12.11,7.31,18.17a25.06,25.06,0,0,1,5.23-1.21c-.94-6.53-1.64-13.09-2.44-19.63-3.4.78-6.73,1.79-10.1,2.66Z"/><path class="cls-7" d="M335.91,603.58c6.33-1.67,12.57-3.65,18.82-5.55l-.29,0a41.37,41.37,0,0,0-6.28-12.36c-5.13,3.86-10.36,7.6-15.42,11.54a22,22,0,0,1,3.17,6.4Z"/><path class="cls-7" d="M114.82,598.16l.29,1c.6,1.68,1.37,3.28,2,4.95,2.56,5.93,5,11.91,7.59,17.83a23.29,23.29,0,0,1,5.37-1.43c-1-6.42-1.71-12.87-2.65-19.29-.25-2.08-.57-4.16-.89-6.23a60,60,0,0,0-11.71,3.21Z"/><path class="cls-9" d="M332.93,671.34c-1.81-6.18-3.34-12.44-5.28-18.57l-.94.16a25.79,25.79,0,0,1-4.65.59c.25,9.18.25,18.37.35,27.55.05.89.17,1.78.26,2.67,1.84-.08,5.51-.37,5.51-.37l2.16-.21s3.73-.86,5.54-1.47l-.22-.69c-1-3.19-1.77-6.46-2.73-9.66Z"/><path class="cls-3" d="M229.11,650.5c4.89,4.05,10.12,7.67,15.1,11.61,3.77-4.49,5.94-10.1,7.39-15.72l-18.7-4a23.32,23.32,0,0,1-2.7,6.5c-.35.55-.74,1.08-1.09,1.62Z"/><path class="cls-5" d="M201.31,542.61s-7.67-10.33-11.55-15.47a23,23,0,0,1-6.58,3.41c2.07,6,3.77,12.16,5.61,18.26.63,2,1.25,4,1.9,6.06,1-.33,7.72-2.89,7.72-2.89l6.23-3a44.55,44.55,0,0,0-3.33-6.39Z"/><path class="cls-7" d="M431.2,610.68a20.93,20.93,0,0,1-5-3.49l-13.11,13.92c-.8.84-1.6,1.67-2.4,2.51,1.2,1.08,3.69,3.13,3.69,3.13l1.73,1.24s2.67,1.7,4.09,2.41c.57-1,1.13-2.06,1.69-3.1,2.05-4,4.32-7.94,6.41-11.95a19.92,19.92,0,0,1,2.85-4.69Z"/><path class="cls-5" d="M166.55,632.92a20,20,0,0,0,2.46,4.9c2.28,3.9,4.4,7.9,6.72,11.78a43.32,43.32,0,0,0,5.56-4c-3.68-5.14-8-9.76-12-14.65a31.81,31.81,0,0,1-2.72,1.94Z"/><path class="cls-6" d="M217.27,571.28l-1-1.34c-5.3,3.44-10.37,7.24-15.89,10.33-2,1.35-3.93,2.72-6,4-1.57,1-3.09,2-4.59,3.1l.4,1.32,1.42,1.54.91,1c1-.78,2-1.55,3-2.36,2.22-1.88,4.53-3.65,6.82-5.44l.31.3c1.29-2.47,3.86-3.79,5.87-5.59,2.81-2.39,6.09-4.18,8.7-6.81Z"/><path class="cls-9" d="M374.1,642.53c5-4.16,9.88-8.57,14.78-12.91l.64-1.8a44.46,44.46,0,0,0-11.2-9c-3,5.65-6.82,13.55-9.78,19.25a22,22,0,0,1,5.56,4.49Z"/><path class="cls-6" d="M94.53,550.12c-1,.82-8.68,8-9.62,8.87l-2.14,1.95c-4.91,4.39-9.91,8.7-14.73,13.2a23.77,23.77,0,0,1,2.18,2.81c7.6-4.54,23.54-14.59,31.11-19.18C100.77,557,95.18,550.9,94.53,550.12Z"/><path class="cls-9" d="M141.8,477.57a43,43,0,0,0-10,7.69c1.72,1.37,3.18,3,4.79,4.53,4.62,4.53,9.07,9.24,13.82,13.62a29.1,29.1,0,0,1,4.32-3.34c-3.25-5.67-6.53-11.3-9.79-17L143,479.81c-.43-.74-.83-1.48-1.22-2.23Z"/><path class="cls-4" d="M8.51,517.4S2.76,519.89,0,521.27q3.12,5,6.27,10.05c3.47,5.54,7,11,10.29,16.71a21.54,21.54,0,0,1,5.25-2.37c-2-6.12-5.72-18.47-5.72-18.47L12,516.72a23.07,23.07,0,0,0-3.48.68Z"/><path class="cls-3" d="M82.74,604A52.06,52.06,0,0,0,84,614.39c5.39-1.46,10.85-2.62,16.21-4.19a3.62,3.62,0,0,1,2.81.1,24.19,24.19,0,0,1-.84-6.14c-6.47.17-12.94-.11-19.41-.14Z"/><path class="cls-6" d="M195,682c2.44,6.06,4.89,12.11,7.31,18.17a24.84,24.84,0,0,1,5.23-1.21c-.94-6.53-1.63-13.09-2.44-19.63-3.4.79-6.73,1.79-10.1,2.66Z"/><path class="cls-7" d="M46,651.05c6.33-1.67,12.56-3.66,18.82-5.55l-.29,0a41.4,41.4,0,0,0-6.28-12.36c-5.13,3.86-10.35,7.6-15.43,11.54a21.92,21.92,0,0,1,3.17,6.4Z"/><path class="cls-7" d="M36.41,485l.28,1c.6,1.68,1.37,3.28,2,4.95,2.55,5.93,5,11.91,7.59,17.83a23.3,23.3,0,0,1,5.37-1.43c-1-6.42-1.71-12.87-2.65-19.29-.25-2.08-.57-4.16-.89-6.23A60,60,0,0,0,36.41,485Z"/><path class="cls-9" d="M24.69,610.34c-1.81-6.18-3.34-12.44-5.28-18.57l-.94.16a26,26,0,0,1-4.65.59c.25,9.18.25,18.37.35,27.55.05.89.18,1.78.26,2.67,1.84-.08,5.51-.37,5.51-.37l2.16-.2s3.73-.86,5.54-1.47c-.06-.17-.16-.52-.22-.69-1-3.19-1.77-6.46-2.73-9.66Z"/><path class="cls-3" d="M381.44,677.77c4.89,4,10.13,7.67,15.1,11.61,3.77-4.49,5.94-10.09,7.39-15.72l-18.69-4a23.28,23.28,0,0,1-2.7,6.5c-.35.55-.74,1.08-1.09,1.62Z"/><path class="cls-5" d="M472,479s-7.67-10.33-11.55-15.47a22.88,22.88,0,0,1-6.59,3.41c2.07,6,3.77,12.16,5.61,18.26.63,2,1.25,4,1.91,6.06,1-.33,7.72-2.89,7.72-2.89l6.23-3A44.6,44.6,0,0,0,472,479Z"/><path class="cls-7" d="M141.3,658.15a20.84,20.84,0,0,1-5-3.49l-13.11,13.92-2.4,2.52c1.2,1.08,3.69,3.14,3.69,3.14l1.74,1.24s2.67,1.7,4.09,2.42c.56-1,1.13-2.06,1.69-3.1,2.06-4,4.32-7.95,6.41-12a20,20,0,0,1,2.85-4.69Z"/><path class="cls-2" d="M88.14,519.79a20,20,0,0,0,2.46,4.91c2.28,3.9,4.39,7.9,6.72,11.78a43,43,0,0,0,5.56-4c-3.68-5.14-8-9.76-12-14.65a31.83,31.83,0,0,1-2.72,1.94Z"/><path class="cls-10" d="M293.46,697.41l-1-1.34c-5.3,3.44-10.37,7.24-15.89,10.33-2,1.35-3.93,2.72-6,4-1.57,1-3.09,2-4.59,3.1l.4,1.32,1.42,1.54.9,1c1-.79,2-1.55,3-2.36,2.22-1.88,4.53-3.65,6.83-5.44l.31.3c1.28-2.47,3.86-3.79,5.86-5.59,2.81-2.39,6.09-4.18,8.7-6.81Z"/><path class="cls-9" d="M84.2,690c5-4.16,9.88-8.57,14.78-12.91l.64-1.8a44.44,44.44,0,0,0-11.2-9c-3,5.65-6.82,13.55-9.78,19.25A22.06,22.06,0,0,1,84.2,690Z"/><path class="cls-2" d="M535.75,648.55c-1,.82-8.67,8-9.62,8.86l-2.14,2c-4.92,4.39-9.91,8.7-14.74,13.2a24,24,0,0,1,2.18,2.81c7.6-4.54,23.54-14.58,31.11-19.18C542,655.4,536.4,649.33,535.75,648.55Z"/><path class="cls-2" d="M1322.28,451.3c-1,.82-8.68,8-9.62,8.86l-2.14,2c-4.92,4.38-9.91,8.7-14.74,13.19a23.92,23.92,0,0,1,2.18,2.81c7.6-4.54,23.54-14.59,31.11-19.18C1328.52,458.15,1322.93,452.09,1322.28,451.3Z"/><path class="cls-10" d="M1246.82,769.72a43.16,43.16,0,0,0-10,7.69c1.73,1.37,3.18,3,4.79,4.53,4.62,4.53,9.07,9.24,13.82,13.62a29.22,29.22,0,0,1,4.32-3.34c-3.25-5.67-6.53-11.31-9.79-17-.64-1.1-1.27-2.2-1.91-3.31-.43-.74-.83-1.48-1.22-2.23Z"/><path class="cls-4" d="M1117.47,791.48s-5.75,2.49-8.51,3.87q3.12,5,6.27,10.05c3.47,5.54,7,11,10.29,16.7a21.41,21.41,0,0,1,5.25-2.37c-2-6.12-5.72-18.47-5.72-18.47l-4.11-10.46a23.11,23.11,0,0,0-3.48.68Z"/><path class="cls-5" d="M1349.71,807a52.46,52.46,0,0,0,1.23,10.37c5.39-1.46,10.85-2.62,16.22-4.19a3.65,3.65,0,0,1,2.81.1,24,24,0,0,1-.84-6.14c-6.47.17-12.94-.11-19.41-.14Z"/><path class="cls-6" d="M1241.87,842c2.44,6.06,4.89,12.11,7.31,18.17a24.87,24.87,0,0,1,5.24-1.2c-.94-6.53-1.64-13.09-2.44-19.63-3.4.79-6.73,1.79-10.1,2.66Z"/><path class="cls-7" d="M1313,854c6.33-1.67,12.57-3.65,18.83-5.55l-.29,0a41.37,41.37,0,0,0-6.28-12.36c-5.13,3.86-10.36,7.6-15.42,11.54A21.91,21.91,0,0,1,1313,854Z"/><path class="cls-8" d="M1091.89,848.6l.29,1c.6,1.68,1.37,3.29,2,4.95,2.56,5.93,5,11.91,7.58,17.83a23.07,23.07,0,0,1,5.37-1.43c-1-6.42-1.71-12.87-2.65-19.3-.25-2.08-.57-4.15-.88-6.22a59.92,59.92,0,0,0-11.71,3.21Z"/><path class="cls-9" d="M1310,921.78c-1.81-6.18-3.34-12.43-5.29-18.57l-.93.16a25.81,25.81,0,0,1-4.65.59c.25,9.19.25,18.37.35,27.55.05.9.18,1.78.26,2.67,1.84-.08,5.51-.37,5.51-.37l2.16-.21s3.73-.86,5.54-1.47c-.06-.18-.17-.52-.22-.68-1-3.19-1.77-6.46-2.73-9.67Z"/><path class="cls-3" d="M1206.18,900.95c4.89,4,10.13,7.67,15.1,11.61,3.77-4.49,5.94-10.09,7.39-15.72l-18.69-4a23.32,23.32,0,0,1-2.7,6.5c-.35.55-.74,1.08-1.09,1.63Z"/><path class="cls-9" d="M1187.76,740.8s-7.66-10.33-11.55-15.47a23,23,0,0,1-6.58,3.41c2.07,6,3.77,12.16,5.61,18.26.63,2,1.25,4,1.91,6.06,1-.33,7.72-2.89,7.72-2.89l6.23-3a44.42,44.42,0,0,0-3.33-6.39Z"/><path class="cls-7" d="M34.94,703.72a20.79,20.79,0,0,1-5-3.49L16.87,714.15l-2.4,2.51c1.2,1.09,3.69,3.14,3.69,3.14L19.89,721s2.68,1.7,4.09,2.42l1.69-3.1c2.05-4,4.32-7.95,6.41-12a20.07,20.07,0,0,1,2.85-4.69Z"/><path class="cls-10" d="M1143.62,883.35a19.88,19.88,0,0,0,2.46,4.9c2.28,3.9,4.4,7.9,6.72,11.78a43.64,43.64,0,0,0,5.56-4c-3.68-5.14-8-9.77-12-14.65a32.49,32.49,0,0,1-2.72,1.94Z"/><path class="cls-9" d="M1194.34,821.72l-1-1.34c-5.3,3.44-10.37,7.24-15.89,10.34-2,1.35-3.93,2.72-6,4-1.57,1-3.09,2-4.59,3.1l.4,1.32,1.42,1.55.9,1c1-.78,2-1.55,3-2.36,2.22-1.88,4.53-3.65,6.82-5.44l.31.3c1.29-2.47,3.86-3.79,5.86-5.59,2.81-2.39,6.09-4.18,8.7-6.81Z"/><path class="cls-9" d="M1351.17,893c5-4.16,9.88-8.57,14.78-12.91l.64-1.8a44.46,44.46,0,0,0-11.2-9c-3,5.65-6.82,13.55-9.78,19.25a22,22,0,0,1,5.56,4.49Z"/><path class="cls-2" d="M1071.6,800.56c-1,.82-8.67,8-9.62,8.86l-2.14,1.95c-4.91,4.39-9.91,8.7-14.74,13.2a23.58,23.58,0,0,1,2.18,2.81c7.6-4.54,23.54-14.59,31.11-19.18C1077.84,807.41,1072.24,801.34,1071.6,800.56Z"/><path class="cls-8" d="M1118.86,728a43,43,0,0,0-10,7.69c1.73,1.37,3.18,3,4.79,4.53,4.62,4.53,9.07,9.24,13.82,13.62a29.11,29.11,0,0,1,4.32-3.34c-3.25-5.67-6.53-11.31-9.79-17-.64-1.1-1.27-2.2-1.91-3.31-.43-.74-.83-1.48-1.22-2.23Z"/><path class="cls-8" d="M985.57,767.84s-5.75,2.49-8.51,3.87c2.08,3.35,4.17,6.71,6.27,10,3.47,5.54,7,11,10.29,16.71a21.44,21.44,0,0,1,5.26-2.37c-2-6.12-5.72-18.47-5.72-18.47l-4.11-10.47a23.11,23.11,0,0,0-3.48.68Z"/><path class="cls-2" d="M1059.8,854.46a52.2,52.2,0,0,0,1.23,10.37c5.39-1.46,10.85-2.62,16.21-4.19a3.65,3.65,0,0,1,2.81.1,24.06,24.06,0,0,1-.84-6.14c-6.47.17-12.94-.11-19.41-.14Z"/><path class="cls-9" d="M1172.09,932.45c2.44,6.06,4.89,12.11,7.31,18.17a24.84,24.84,0,0,1,5.23-1.21c-.94-6.53-1.64-13.09-2.44-19.63-3.4.79-6.73,1.79-10.11,2.66Z"/><path class="cls-7" d="M1023.07,901.49c6.33-1.67,12.56-3.66,18.82-5.55l-.29,0a41.33,41.33,0,0,0-6.28-12.36c-5.13,3.86-10.36,7.6-15.42,11.54a21.87,21.87,0,0,1,3.17,6.4Z"/><path class="cls-7" d="M1013.48,735.48l.29,1c.6,1.68,1.37,3.29,2,4.95,2.56,5.93,5,11.91,7.58,17.83a23.25,23.25,0,0,1,5.37-1.43c-1-6.42-1.71-12.87-2.65-19.29-.25-2.09-.57-4.16-.89-6.23a60,60,0,0,0-11.71,3.21Z"/><path class="cls-9" d="M1001.76,860.78c-1.81-6.18-3.34-12.44-5.28-18.57l-.94.16a25.79,25.79,0,0,1-4.65.59c.25,9.19.25,18.37.35,27.55.05.89.18,1.78.26,2.67,1.84-.08,5.51-.37,5.51-.37l2.16-.21s3.73-.86,5.54-1.47c-.06-.18-.16-.52-.22-.69-1-3.19-1.77-6.46-2.73-9.66Z"/><path class="cls-3" d="M16.15,798.49c4.89,4,10.12,7.67,15.1,11.61,3.77-4.49,5.94-10.1,7.39-15.72l-18.69-4a23.34,23.34,0,0,1-2.7,6.5c-.35.55-.74,1.08-1.09,1.62Z"/><path class="cls-5" d="M1300.8,740.45s-7.67-10.34-11.55-15.47a23,23,0,0,1-6.58,3.41c2.07,6,3.77,12.16,5.61,18.26.63,2,1.25,4,1.91,6.06,1-.33,7.71-2.89,7.71-2.89l6.23-3a44.37,44.37,0,0,0-3.33-6.39Z"/><path class="cls-7" d="M1118.37,908.6a21,21,0,0,1-5-3.49L1100.3,919l-2.4,2.51c1.2,1.08,3.69,3.14,3.69,3.14l1.73,1.24s2.68,1.7,4.09,2.41l1.69-3.1c2.05-4,4.32-7.95,6.41-12a19.92,19.92,0,0,1,2.85-4.69Z"/><path class="cls-9" d="M1065.21,770.23a20.06,20.06,0,0,0,2.46,4.9c2.28,3.9,4.4,7.9,6.72,11.78a43.44,43.44,0,0,0,5.56-4c-3.68-5.14-8-9.76-12-14.66a31.58,31.58,0,0,1-2.72,1.94Z"/><path class="cls-9" d="M1061.26,940.44c5-4.16,9.89-8.57,14.78-12.91l.64-1.8a44.42,44.42,0,0,0-11.2-9c-3,5.65-6.82,13.55-9.78,19.25a21.9,21.9,0,0,1,5.55,4.49Z"/><path class="cls-6" d="M886.93,738.82c-1,.82-8.67,8-9.62,8.86l-2.14,2c-4.92,4.39-9.91,8.7-14.74,13.2a23.78,23.78,0,0,1,2.18,2.81c7.6-4.54,23.54-14.59,31.11-19.18C893.17,745.67,887.58,739.6,886.93,738.82Z"/><path class="cls-2" d="M817.63,730.25a43.11,43.11,0,0,0-10,7.69c1.72,1.37,3.18,3,4.79,4.53,4.62,4.53,9.07,9.24,13.82,13.62a29,29,0,0,1,4.32-3.34c-3.25-5.66-6.53-11.31-9.79-17l-1.91-3.31c-.43-.74-.83-1.48-1.22-2.23Z"/><path class="cls-4" d="M688.27,752s-5.75,2.49-8.51,3.87q3.12,5,6.27,10.05c3.47,5.54,7,11,10.3,16.7a21.42,21.42,0,0,1,5.25-2.37c-2-6.12-5.72-18.47-5.72-18.47l-4.11-10.47a23.77,23.77,0,0,0-3.48.69Z"/><path class="cls-3" d="M920.51,767.52a52.32,52.32,0,0,0,1.23,10.37c5.39-1.46,10.85-2.62,16.22-4.19a3.63,3.63,0,0,1,2.81.11,24.11,24.11,0,0,1-.84-6.15c-6.47.17-12.94-.11-19.41-.14Z"/><path class="cls-6" d="M812.67,802.5c2.43,6.06,4.89,12.11,7.31,18.17a24.85,24.85,0,0,1,5.23-1.2c-.94-6.53-1.64-13.09-2.44-19.63-3.4.79-6.73,1.79-10.1,2.66Z"/><path class="cls-7" d="M883.78,814.55c6.32-1.67,12.56-3.65,18.82-5.55l-.29,0A41.29,41.29,0,0,0,896,796.61c-5.13,3.86-10.36,7.6-15.42,11.54a22,22,0,0,1,3.17,6.4Z"/><path class="cls-9" d="M662.69,809.13l.29,1c.6,1.68,1.37,3.29,2,4.95,2.56,5.93,5,11.91,7.58,17.83a23.27,23.27,0,0,1,5.37-1.43c-1-6.42-1.71-12.87-2.65-19.3-.25-2.08-.57-4.15-.88-6.23a60.24,60.24,0,0,0-11.72,3.21Z"/><path class="cls-9" d="M880.79,882.32c-1.81-6.18-3.34-12.44-5.28-18.58l-.94.16a25.82,25.82,0,0,1-4.65.59c.25,9.19.25,18.37.35,27.55.05.89.18,1.78.26,2.67,1.84-.08,5.51-.37,5.51-.37l2.16-.2s3.73-.86,5.54-1.47c-.06-.17-.16-.52-.22-.68-1-3.19-1.77-6.46-2.74-9.66Z"/><path class="cls-2" d="M777,861.48c4.89,4.05,10.13,7.67,15.1,11.61,3.77-4.49,5.94-10.1,7.38-15.72l-18.69-4a23.29,23.29,0,0,1-2.7,6.5c-.35.55-.74,1.08-1.09,1.62Z"/><path class="cls-5" d="M822.41,703s-7.67-10.34-11.55-15.47a22.93,22.93,0,0,1-6.58,3.41c2.07,6,3.77,12.16,5.61,18.26.63,2,1.25,4,1.9,6.06,1-.33,7.72-2.89,7.72-2.89l6.23-3a44.39,44.39,0,0,0-3.33-6.39Z"/><path class="cls-7" d="M979.07,821.65a20.79,20.79,0,0,1-5-3.49L961,832.08l-2.4,2.51c1.2,1.08,3.69,3.14,3.69,3.14L964,839s2.68,1.7,4.09,2.41l1.69-3.1c2.05-4,4.32-7.95,6.41-12a20,20,0,0,1,2.85-4.69Z"/><path class="cls-8" d="M714.42,843.89a20,20,0,0,0,2.45,4.9c2.28,3.9,4.4,7.9,6.72,11.78a43.09,43.09,0,0,0,5.56-4c-3.68-5.14-8-9.76-12-14.66a31.79,31.79,0,0,1-2.72,1.94Z"/><path class="cls-9" d="M765.14,782.25l-1-1.33c-5.3,3.44-10.37,7.24-15.88,10.33-2,1.35-3.93,2.72-6,4-1.57,1-3.09,2-4.59,3.1l.4,1.32,1.41,1.54.91,1c1-.78,2-1.55,3-2.36,2.22-1.88,4.53-3.65,6.82-5.44l.32.3c1.28-2.47,3.86-3.79,5.86-5.59,2.81-2.39,6.09-4.18,8.7-6.81Z"/><path class="cls-9" d="M922,853.5c5-4.16,9.88-8.57,14.78-12.91l.64-1.8a44.49,44.49,0,0,0-11.2-9c-3,5.65-6.82,13.55-9.78,19.25A22,22,0,0,1,922,853.5Z"/><path class="cls-6" d="M642.4,761.09c-1,.81-8.67,8-9.62,8.86l-2.14,2c-4.91,4.39-9.91,8.7-14.74,13.19a23.69,23.69,0,0,1,2.18,2.81c7.6-4.54,23.54-14.59,31.11-19.18C648.64,767.94,643.05,761.87,642.4,761.09Z"/><path class="cls-10" d="M748.48,730.55a43.21,43.21,0,0,0-10,7.69c1.72,1.37,3.18,3,4.79,4.53,4.62,4.53,9.07,9.24,13.82,13.62a29.32,29.32,0,0,1,4.32-3.35c-3.24-5.66-6.53-11.3-9.79-17l-1.91-3.31c-.43-.74-.83-1.48-1.22-2.24Z"/><path class="cls-9" d="M556.38,728.37s-5.75,2.49-8.51,3.87q3.12,5,6.27,10.05c3.47,5.54,7,11,10.29,16.71a21.32,21.32,0,0,1,5.25-2.37c-2-6.12-5.72-18.47-5.72-18.47l-4.11-10.47a23.12,23.12,0,0,0-3.48.68Z"/><path class="cls-3" d="M630.61,815a52.22,52.22,0,0,0,1.23,10.37c5.39-1.46,10.85-2.62,16.21-4.19a3.64,3.64,0,0,1,2.81.1,24.14,24.14,0,0,1-.84-6.14c-6.47.17-12.94-.11-19.41-.14Z"/><path class="cls-6" d="M742.9,893c2.43,6.06,4.89,12.11,7.31,18.17a24.82,24.82,0,0,1,5.24-1.21c-.94-6.53-1.64-13.09-2.44-19.63-3.4.79-6.73,1.79-10.1,2.66Z"/><path class="cls-7" d="M593.87,862c6.33-1.67,12.57-3.65,18.82-5.55l-.29,0a41.32,41.32,0,0,0-6.28-12.36c-5.13,3.86-10.36,7.6-15.42,11.54a22,22,0,0,1,3.17,6.4Z"/><path class="cls-7" d="M493.54,692.65l.29,1c.6,1.68,1.37,3.29,2,4.95,2.55,5.93,5,11.91,7.58,17.83A23.36,23.36,0,0,1,508.8,715c-1-6.42-1.71-12.87-2.65-19.29-.25-2.08-.57-4.15-.89-6.22a60,60,0,0,0-11.72,3.21Z"/><path class="cls-9" d="M572.56,821.31c-1.81-6.18-3.34-12.43-5.28-18.57l-.93.16a26.12,26.12,0,0,1-4.65.59c.25,9.19.25,18.37.35,27.55.06.89.18,1.78.26,2.67,1.84-.08,5.51-.37,5.51-.37l2.16-.21s3.73-.86,5.54-1.47c-.06-.18-.16-.52-.21-.69-1-3.19-1.77-6.46-2.74-9.66Z"/><path class="cls-2" d="M929.31,888.74c4.89,4.05,10.13,7.67,15.1,11.62,3.77-4.49,5.94-10.1,7.39-15.72l-18.7-4a23.28,23.28,0,0,1-2.7,6.5c-.35.55-.74,1.08-1.09,1.62Z"/><path class="cls-5" d="M871.6,701s-7.67-10.34-11.55-15.47a23,23,0,0,1-6.58,3.41c2.07,6,3.77,12.16,5.61,18.26.63,2,1.25,4,1.91,6.06,1-.33,7.72-2.89,7.72-2.89l6.23-3A44.33,44.33,0,0,0,871.6,701Z"/><path class="cls-7" d="M689.17,869.12a20.85,20.85,0,0,1-5-3.49L671.1,879.55l-2.4,2.52c1.2,1.08,3.69,3.14,3.69,3.14l1.74,1.24s2.67,1.7,4.09,2.41c.57-1,1.13-2.06,1.69-3.1,2.05-4,4.32-7.95,6.41-12a20,20,0,0,1,2.85-4.69Z"/><path class="cls-2" d="M636,730.77a19.94,19.94,0,0,0,2.46,4.9c2.28,3.9,4.39,7.9,6.72,11.78a43.09,43.09,0,0,0,5.56-4c-3.68-5.14-8-9.76-12-14.65a32.81,32.81,0,0,1-2.72,1.94Z"/><path class="cls-2" d="M841.33,908.38l-1-1.34c-5.3,3.44-10.37,7.24-15.89,10.34-2,1.35-3.93,2.72-6,4-1.57,1-3.09,2-4.59,3.1l.4,1.32,1.42,1.54.9,1c1-.79,2-1.55,3-2.36,2.22-1.88,4.53-3.65,6.82-5.44l.31.3c1.29-2.47,3.86-3.79,5.86-5.59,2.81-2.39,6.09-4.18,8.7-6.81Z"/><path class="cls-9" d="M632.07,901c5-4.16,9.89-8.57,14.78-12.91l.64-1.8a44.38,44.38,0,0,0-11.2-9c-3,5.65-6.82,13.55-9.78,19.25a22,22,0,0,1,5.56,4.49Z"/><path class="cls-6" d="M1009.75,925.83c-1,.82-8.68,8-9.62,8.86l-2.14,2c-4.92,4.39-9.91,8.7-14.74,13.19a23.41,23.41,0,0,1,2.18,2.81c7.6-4.54,23.54-14.59,31.11-19.18C1016,932.67,1010.4,926.61,1009.75,925.83Z"/><path class="cls-5" d="M791.75,929.92s-7.67-10.33-11.55-15.47a22.86,22.86,0,0,1-6.58,3.41c2.07,6,3.77,12.16,5.61,18.26.63,2,1.25,4.05,1.91,6.06,1-.33,7.72-2.89,7.72-2.89l6.23-3a44.24,44.24,0,0,0-3.33-6.39Z"/><path class="cls-10" d="M722.85,917.13a43.18,43.18,0,0,0-10,7.69c1.73,1.37,3.18,3,4.79,4.53,4.62,4.53,9.07,9.24,13.82,13.62a29.38,29.38,0,0,1,4.32-3.35c-3.25-5.66-6.53-11.3-9.79-17q-1-1.65-1.9-3.31c-.43-.74-.83-1.48-1.22-2.23Z"/><path class="cls-7" d="M617.47,924.6l.29,1c.6,1.68,1.37,3.28,2,4.95,2.56,5.94,5,11.91,7.59,17.83a23.41,23.41,0,0,1,5.37-1.44c-1-6.42-1.71-12.87-2.65-19.29-.25-2.08-.57-4.16-.89-6.23a60,60,0,0,0-11.71,3.21Z"/><path class="cls-5" d="M493.32,785.56s-5.75,2.49-8.51,3.87q3.12,5,6.27,10c3.47,5.54,7,11,10.29,16.71a21.45,21.45,0,0,1,5.25-2.37c-2-6.12-5.72-18.47-5.72-18.47l-4.1-10.46a22.47,22.47,0,0,0-3.48.68Z"/><path class="cls-7" d="M521.22,753.2l.29,1c.6,1.68,1.37,3.29,2,5,2.56,5.93,5,11.9,7.59,17.83a23.41,23.41,0,0,1,5.37-1.43c-1-6.42-1.71-12.87-2.65-19.29-.25-2.08-.57-4.16-.89-6.23a60.13,60.13,0,0,0-11.71,3.21Z"/><path class="cls-9" d="M509.5,878.5c-1.81-6.18-3.34-12.43-5.28-18.57l-.94.16a25.75,25.75,0,0,1-4.65.59c.25,9.19.25,18.37.35,27.55.05.89.18,1.78.26,2.67,1.84-.08,5.51-.37,5.51-.37l2.16-.21s3.73-.86,5.54-1.47l-.22-.69c-1-3.19-1.77-6.46-2.74-9.66Z"/><path class="cls-2" d="M440,731.34c-1,.82-8.67,8-9.62,8.87l-2.14,1.95c-4.92,4.39-9.91,8.7-14.74,13.2a23.42,23.42,0,0,1,2.18,2.81c7.6-4.54,23.54-14.59,31.11-19.18C446.28,738.18,440.69,732.12,440,731.34Z"/><path class="cls-10" d="M325.37,748a43.24,43.24,0,0,0-10,7.69c1.72,1.37,3.18,3,4.79,4.53,4.62,4.53,9.06,9.24,13.82,13.62a29,29,0,0,1,4.32-3.34c-3.25-5.66-6.53-11.31-9.79-17-.64-1.1-1.27-2.2-1.91-3.31-.43-.74-.83-1.48-1.22-2.23Z"/><path class="cls-4" d="M196,769.73s-5.75,2.49-8.51,3.87q3.12,5,6.27,10.05c3.47,5.54,7,11,10.3,16.7a21.32,21.32,0,0,1,5.25-2.37c-2-6.12-5.72-18.47-5.72-18.47L199.49,769a23.15,23.15,0,0,0-3.48.68Z"/><path class="cls-2" d="M428.25,785.24a52.06,52.06,0,0,0,1.23,10.37c5.39-1.46,10.85-2.62,16.21-4.19a3.62,3.62,0,0,1,2.81.1,24.11,24.11,0,0,1-.84-6.15c-6.47.17-12.94-.11-19.41-.14Z"/><path class="cls-3" d="M320.41,820.22c2.44,6.06,4.89,12.11,7.31,18.17a24.63,24.63,0,0,1,5.23-1.21c-.94-6.53-1.63-13.09-2.44-19.63-3.4.79-6.73,1.78-10.1,2.66Z"/><path class="cls-7" d="M391.52,832.27c6.33-1.67,12.57-3.66,18.83-5.55l-.29,0a41.36,41.36,0,0,0-6.28-12.36c-5.13,3.86-10.35,7.6-15.42,11.54a21.88,21.88,0,0,1,3.17,6.41Z"/><path class="cls-7" d="M170.43,826.85l.29,1c.6,1.68,1.37,3.29,2,4.95,2.56,5.93,5,11.91,7.59,17.83a23.4,23.4,0,0,1,5.37-1.43c-1-6.42-1.71-12.87-2.65-19.29-.25-2.08-.57-4.16-.88-6.23a60,60,0,0,0-11.71,3.21Z"/><path class="cls-9" d="M388.54,900c-1.81-6.18-3.34-12.44-5.29-18.58l-.94.16a26.09,26.09,0,0,1-4.65.59c.25,9.18.25,18.37.35,27.55.05.9.18,1.78.26,2.67,1.84-.08,5.51-.37,5.51-.37l2.16-.2s3.73-.86,5.54-1.47c-.06-.17-.16-.51-.22-.68-1-3.19-1.77-6.46-2.73-9.66Z"/><path class="cls-3" d="M284.72,879.2c4.89,4,10.13,7.67,15.1,11.61,3.77-4.49,5.94-10.1,7.38-15.72l-18.69-4a23.35,23.35,0,0,1-2.7,6.51c-.35.55-.74,1.08-1.09,1.62Z"/><path class="cls-5" d="M256.68,736.54s-7.67-10.34-11.55-15.47a22.93,22.93,0,0,1-6.58,3.41c2.07,6,3.77,12.16,5.61,18.26.63,2,1.25,4,1.91,6.07,1-.33,7.72-2.89,7.72-2.89l6.23-3a44.15,44.15,0,0,0-3.33-6.39Z"/><path class="cls-7" d="M486.81,839.37a20.83,20.83,0,0,1-5-3.49L468.74,849.8c-.8.84-1.6,1.67-2.4,2.52,1.2,1.08,3.69,3.13,3.69,3.13l1.73,1.24s2.68,1.7,4.09,2.41l1.69-3.1c2.05-4,4.32-7.95,6.41-12a19.94,19.94,0,0,1,2.85-4.69Z"/><path class="cls-5" d="M222.16,861.6a19.93,19.93,0,0,0,2.45,4.9c2.28,3.9,4.4,7.9,6.72,11.78a43.46,43.46,0,0,0,5.56-4c-3.68-5.14-8-9.76-12-14.66a31.79,31.79,0,0,1-2.72,1.94Z"/><path class="cls-6" d="M272.88,800l-1-1.34c-5.3,3.44-10.37,7.24-15.88,10.33-2,1.35-3.93,2.72-6,4-1.57,1-3.09,2-4.59,3.1l.4,1.32,1.41,1.54.9,1c1-.78,2-1.55,3-2.36,2.22-1.88,4.53-3.65,6.82-5.44l.32.3c1.28-2.47,3.86-3.79,5.86-5.59,2.81-2.39,6.09-4.18,8.7-6.81Z"/><path class="cls-9" d="M429.71,871.21c5-4.16,9.89-8.57,14.78-12.91l.64-1.8a44.31,44.31,0,0,0-11.2-9c-3,5.65-6.82,13.54-9.78,19.25a21.93,21.93,0,0,1,5.56,4.49Z"/><path class="cls-6" d="M150.14,778.81c-1,.82-8.67,8-9.62,8.86l-2.14,2c-4.91,4.39-9.91,8.7-14.74,13.2a23.24,23.24,0,0,1,2.18,2.81c7.6-4.54,23.54-14.59,31.11-19.18C156.38,785.66,150.79,779.59,150.14,778.81Z"/><path class="cls-9" d="M197.41,706.26a43.25,43.25,0,0,0-10,7.69c1.73,1.37,3.18,3,4.79,4.53,4.62,4.53,9.07,9.24,13.82,13.62a29.3,29.3,0,0,1,4.32-3.34c-3.25-5.66-6.53-11.31-9.79-17l-1.91-3.31c-.43-.74-.83-1.48-1.22-2.24Z"/><path class="cls-4" d="M64.12,746.1s-5.75,2.49-8.51,3.87q3.12,5,6.26,10.05c3.47,5.54,7,11,10.3,16.7a21.5,21.5,0,0,1,5.25-2.37c-2-6.12-5.72-18.47-5.72-18.47L67.6,745.41a23.11,23.11,0,0,0-3.48.68Z"/><path class="cls-3" d="M138.35,832.71a52.22,52.22,0,0,0,1.23,10.37c5.39-1.46,10.85-2.62,16.21-4.19a3.64,3.64,0,0,1,2.81.1,24.14,24.14,0,0,1-.84-6.14c-6.47.17-12.94-.11-19.41-.14Z"/><path class="cls-6" d="M250.64,910.7c2.43,6.06,4.89,12.11,7.31,18.17a24.89,24.89,0,0,1,5.23-1.2c-.94-6.53-1.63-13.09-2.44-19.63-3.4.79-6.73,1.79-10.1,2.66Z"/><path class="cls-7" d="M101.62,879.75c6.33-1.67,12.56-3.66,18.82-5.55l-.29,0a41.3,41.3,0,0,0-6.28-12.36c-5.13,3.86-10.35,7.6-15.42,11.54a21.84,21.84,0,0,1,3.17,6.4Z"/><path class="cls-7" d="M92,713.73l.29,1c.6,1.68,1.37,3.29,2,5,2.55,5.93,5,11.91,7.59,17.83a23.39,23.39,0,0,1,5.37-1.43c-1-6.42-1.71-12.87-2.65-19.29-.25-2.08-.57-4.16-.89-6.23A60.18,60.18,0,0,0,92,713.73Z"/><path class="cls-9" d="M80.3,839C78.49,832.85,77,826.6,75,820.46l-.93.16a25.8,25.8,0,0,1-4.65.59c.25,9.19.25,18.37.35,27.55.06.89.18,1.78.26,2.67,1.84-.08,5.51-.37,5.51-.37l2.16-.21s3.73-.86,5.54-1.47c-.06-.17-.16-.52-.22-.68-1-3.19-1.77-6.46-2.74-9.67Z"/><path class="cls-3" d="M437.05,906.46c4.89,4.05,10.12,7.67,15.1,11.61,3.77-4.49,5.94-10.1,7.39-15.72l-18.7-4a23.18,23.18,0,0,1-2.7,6.5c-.35.55-.74,1.08-1.09,1.62Z"/><path class="cls-5" d="M379.35,718.7s-7.67-10.34-11.55-15.47a22.91,22.91,0,0,1-6.58,3.41c2.07,6,3.77,12.16,5.61,18.26.63,2,1.25,4,1.9,6.06,1-.33,7.72-2.89,7.72-2.89l6.23-3a44.58,44.58,0,0,0-3.33-6.39Z"/><path class="cls-7" d="M196.91,886.84a20.86,20.86,0,0,1-5-3.49l-13.11,13.92-2.4,2.51c1.2,1.09,3.69,3.14,3.69,3.14l1.73,1.24s2.68,1.7,4.09,2.41c.56-1,1.13-2.06,1.69-3.1,2.05-4,4.32-7.95,6.41-12a20,20,0,0,1,2.85-4.69Z"/><path class="cls-2" d="M143.75,748.48a20.07,20.07,0,0,0,2.46,4.9c2.28,3.9,4.4,7.9,6.72,11.78a43,43,0,0,0,5.56-4c-3.68-5.14-8-9.76-12-14.65a31.76,31.76,0,0,1-2.72,1.94Z"/><path class="cls-10" d="M349.07,926.1l-1-1.33c-5.3,3.43-10.37,7.24-15.89,10.33-2,1.35-3.93,2.72-6,4-1.57,1-3.09,2-4.59,3.1l.4,1.32,1.42,1.55.9,1c1-.78,2-1.55,3-2.36,2.22-1.88,4.54-3.65,6.82-5.44l.31.3c1.29-2.47,3.86-3.79,5.87-5.59,2.81-2.39,6.09-4.18,8.7-6.81Z"/><path class="cls-9" d="M139.81,918.69c5-4.16,9.88-8.57,14.78-12.91l.64-1.8a44.48,44.48,0,0,0-11.2-9c-3,5.65-6.82,13.55-9.78,19.25a22,22,0,0,1,5.56,4.49Z"/><path class="cls-2" d="M591.36,877.25c-1,.81-8.67,8-9.61,8.86l-2.14,2c-4.92,4.39-9.91,8.7-14.74,13.2a24,24,0,0,1,2.18,2.81c7.6-4.54,23.54-14.59,31.11-19.18C597.6,884.09,592,878,591.36,877.25Z"/></g></g></g></svg>