<svg xmlns="http://www.w3.org/2000/svg" viewBox="0 0 485.92 356.82"><defs><style>.cls-1{fill:#fff;}.cls-2{fill:#dcd916;}.cls-3{fill:#db921a;}.cls-4{fill:#c95226;}.cls-5{fill:#213380;}.cls-6{fill:#82c435;}.cls-7{fill:#e6b142;}.cls-8{fill:#11579b;}.cls-9{fill:#a1bc30;}.cls-10{fill:#316335;}.cls-11{fill:#1c7dba;}.cls-12{fill:#eba800;}.cls-13{fill:#69a7d8;}.cls-14{fill:#009bdc;}</style></defs><title>con-fondo</title><g id="Capa_2" data-name="Capa 2"><g id="Capa_1-2" data-name="Capa 1"><polygon class="cls-1" points="280.73 135.46 485.92 135.46 485.92 250.42 267.85 253.44 228.17 310.76 198.85 342.74 163.52 356.82 116.08 349.78 82.57 341.33 57.69 325.84 32.65 297.67 19.72 253.44 5.63 216.23 0 179.2 0 145.62 0 108.08 9.86 70.53 25.35 46.96 48.49 18.8 93 8.94 131.32 0 163.1 0 203.79 0 239.38 6.12 258.34 14.57 287.04 27.25 295.91 87.55 280.73 135.46"/><path class="cls-2" d="M81.41,113.83s20.09,17.84,37.3,31.79a57.17,57.17,0,0,0-7.51,11.47c-14.58-7-29.29-13.65-43.9-20.57C69.64,131.38,81.41,113.83,81.41,113.83Z"/><path class="cls-3" d="M68.06,70.53c2.16,2.37,18.63,22.89,20.66,25.38l4.6,5.59c10.61,12.62,21.44,25.08,31.79,37.93a59.18,59.18,0,0,0-6.4,6.18c-17.21-14-53.09-44.51-70.21-58.59C50.16,85.26,66.17,72.23,68.06,70.53Z"/><path class="cls-4" d="M108.51,73.21a107.85,107.85,0,0,1,30.11-9.55c.34,5.5,1.66,10.87,2.45,16.31,2.7,16,6,31.83,8.2,47.87a72.86,72.86,0,0,0-13,4.08c-7-14.77-13.87-29.57-20.82-44.37-1.35-2.89-2.69-5.76-4.06-8.64-.9-1.93-1.86-3.82-2.84-5.7Z"/><path class="cls-5" d="M223.51,66.34s13.36,8.21,19.69,12.61q-9.52,11.35-19.1,22.66c-10.56,12.49-21.32,24.84-31.45,37.7a53.65,53.65,0,0,0-12.16-7.75c7.21-14.43,20.75-43.7,20.75-43.7l13.9-24.45s1.34.19,8.37,2.94Z"/><path class="cls-6" d="M141.08,80a130.83,130.83,0,0,1,26.1-1.15c-1.42,13.9-2.09,27.86-3.78,41.73a9.08,9.08,0,0,0,1.4,6.89,60.28,60.28,0,0,0-15.51.4c-2.2-16-5.5-31.91-8.2-47.87Z"/><path class="cls-7" d="M115.42,87.55c6.95,14.79,13.83,29.6,20.82,44.37a62.27,62.27,0,0,0-11.13,7.53c-10.35-12.85-21.18-25.31-31.79-37.93,7.23-4.88,14.75-9.28,22.1-14Z"/><path class="cls-8" d="M192.65,139.3c10.13-12.86,20.89-25.22,31.45-37.7l-.2.71A103.35,103.35,0,0,1,246,129c-14,7.93-27.74,16.22-41.84,23.93a54.87,54.87,0,0,0-11.55-13.64Z"/><path class="cls-9" d="M52.73,130.23l2.37.81c4.15,1.64,8.09,3.71,12.19,5.47,14.61,6.92,29.32,13.6,43.9,20.57a58.31,58.31,0,0,0-4.06,13.29c-16-3.06-32-5.43-48-8.37-5.18-.82-10.34-1.8-15.49-2.78a150.22,150.22,0,0,1,9.09-29Z"/><path class="cls-10" d="M59.12,162c16,2.94,32,5.31,48,8.37a66.67,66.67,0,0,0,.33,20.11c-.16-.56-.5-1.71-.65-2.28-16,2.26-31.72,5.58-47.61,8.18A101,101,0,0,1,59.12,162Z"/><path class="cls-8" d="M59.19,196.39c15.9-2.6,31.66-5.93,47.61-8.18.16.58.5,1.72.65,2.28a64.78,64.78,0,0,0,3.7,11.13c-21,9.38-41.71,19.32-62.53,29-2.08.84-4.21,1.53-6.3,2.31-1.81-4.24-5.13-12.83-5.13-12.83L35.33,215s-2.09-9.34-2.68-14.09c.46-.05,1.34-.19,1.78-.25,8.3-1.14,16.48-3,24.76-4.29Z"/><path class="cls-11" d="M67.92,221.6s28.74-13.5,43.24-20a54.6,54.6,0,0,0,10.22,14.61q-17.16,17-34.11,34.19c-6.2-6.28-16.22-20.82-16.22-20.82Z"/><path class="cls-12" d="M204.37,205.55c14.1,7.31,27.55,15.84,41.49,23.46-6.67,13.07-17.46,23.54-29,32.35q-13.74-19.59-27.49-39.15a58.39,58.39,0,0,0,12.35-12.56c.92-1.34,1.77-2.75,2.67-4.1Z"/><path class="cls-5" d="M87.28,250.42s22.67-22.86,34.11-34.19A57.39,57.39,0,0,0,136.48,227c-7.27,14.18-13.68,28.77-20.4,43.21-2.28,4.79-4.53,9.58-6.88,14.34-2.27-1.17-18.08-9.91-18.08-9.91L76.75,265s2.52-4.7,10.53-14.63Z"/><path class="cls-9" d="M175.81,229.09a52.31,52.31,0,0,0,13.53-6.88q13.74,19.55,27.49,39.15c1.68,2.36,3.37,4.71,5,7.08-3.37,2.25-10.26,6.45-10.26,6.45l-4.73,2.46s-7.23,3.26-11,4.52c-1-2.76-2.07-5.51-3.09-8.27-3.65-10.72-7.86-21.22-11.62-31.88-1.6-4.29-2.65-8.87-5.39-12.62Z"/><path class="cls-4" d="M136.48,227a54.33,54.33,0,0,0,27.06,4.59c-.28,9.26,2.1,18.3,2.59,27.51.19,6.73,2.21,13.68-.07,20.26-17.09.83-34.4-2-50-9.15,6.72-14.44,13.13-29,20.4-43.21Z"/><path class="cls-7" d="M175.81,229.09c2.74,3.75,3.8,8.33,5.39,12.62,3.75,10.66,8,21.16,11.62,31.88a108.3,108.3,0,0,1-16.56,4.2c-3.86-15.35-5.67-31.09-8.54-46.64a80,80,0,0,0,8.1-2.06Z"/><path class="cls-3" d="M163.54,231.61l4.17-.46c2.87,15.54,4.68,31.29,8.54,46.64.94,5.9,1.83,11.81,3,17.68.91,4.53,1.65,9.08,2.26,13.67l-3.09,1.54-5.24.08h-3.29c-.33-3.2-.69-6.37-.91-9.57-.4-7.27-1.17-14.51-1.85-21.76l-1.09-.05c2.28-6.58.25-13.53.07-20.26-.49-9.22-2.87-18.26-2.59-27.51Z"/><path class="cls-13" d="M163.1,127.06c.57-16.36,2-32.68,3.11-49l2.61-4a111.09,111.09,0,0,1,35,8.48c-6.58,14.64-16.5,34.18-23.31,48.72a55,55,0,0,0-17.38-4.19Z"/><path class="cls-14" d="M166.31,196.51a9.07,9.07,0,0,1-1.54,1.73,11.27,11.27,0,0,1-2.6,1.63,19.45,19.45,0,0,1-3,1.09,21.58,21.58,0,0,1-3.15.61,26,26,0,0,1-3,.18,21.86,21.86,0,0,1-10.09-2.3,19.56,19.56,0,0,1-7.42-6.6,24.93,24.93,0,0,1-3.06-6.24,22.24,22.24,0,0,1-1.12-7,24.3,24.3,0,0,1,1.37-8.12,21.6,21.6,0,0,1,3.87-6.85,21.11,21.11,0,0,1,6-4.88,20.07,20.07,0,0,1,7.78-2.33,3.63,3.63,0,0,1,.67-.06h.66a19,19,0,0,1,3.79.42,29.92,29.92,0,0,1,4,1.13,27.13,27.13,0,0,1,3.76,1.67,18.21,18.21,0,0,1,3,2l-3.4,6.8a20.3,20.3,0,0,0-4.45-2.73,12.71,12.71,0,0,0-5.18-1,9.86,9.86,0,0,0-1.94.18,12.69,12.69,0,0,0-4.39,1.7,12.1,12.1,0,0,0-3.24,3,13.2,13.2,0,0,0-2,4.06,16.16,16.16,0,0,0-.7,4.75,18.71,18.71,0,0,0,.7,5.12,12.93,12.93,0,0,0,2.12,4.33,10.84,10.84,0,0,0,3.58,3,10.44,10.44,0,0,0,5,1.15,11.82,11.82,0,0,0,3.39-.45,25.64,25.64,0,0,0,2.79-1l2.3-1a4.93,4.93,0,0,1,2-.45,4.09,4.09,0,0,1,3,1.18,4.19,4.19,0,0,1,.51,5.27Z"/><path class="cls-14" d="M200.65,159a20.77,20.77,0,0,1,6.66,4.91,22.56,22.56,0,0,1,4.33,7.15,24.42,24.42,0,0,1,0,17.09,22.26,22.26,0,0,1-4.36,7.15,21.09,21.09,0,0,1-6.7,4.91,20.83,20.83,0,0,1-17,0,20.63,20.63,0,0,1-6.67-4.91,22.9,22.9,0,0,1-4.36-7.15,24.15,24.15,0,0,1,0-17.15,22.34,22.34,0,0,1,4.39-7.12,21.26,21.26,0,0,1,6.69-4.88,20.85,20.85,0,0,1,17,0Zm2.12,15.6a14.57,14.57,0,0,0-2.06-4.61,10.62,10.62,0,0,0-3.58-3.27,10.2,10.2,0,0,0-5.15-1.24,9.62,9.62,0,0,0-5,1.24,11,11,0,0,0-3.51,3.24,14.09,14.09,0,0,0-2.06,4.48,19.23,19.23,0,0,0,0,10.06,14.1,14.1,0,0,0,2.06,4.48,11,11,0,0,0,3.51,3.24,9.64,9.64,0,0,0,5,1.24,10.21,10.21,0,0,0,5-1.18,11,11,0,0,0,3.57-3.09,13.64,13.64,0,0,0,2.15-4.36,17.73,17.73,0,0,0,.73-5.06A20.54,20.54,0,0,0,202.77,174.58Z"/><path class="cls-14" d="M256.95,200.54a4.68,4.68,0,0,1-3.45,1.39,4.79,4.79,0,0,1-2.09-.48,4.74,4.74,0,0,1-1.67-1.33L230.05,173.4v28h-9.63V162.13a4.83,4.83,0,0,1,1.39-3.45,4.59,4.59,0,0,1,3.45-1.45,4.34,4.34,0,0,1,2.27.63,6.17,6.17,0,0,1,1.79,1.61l19.39,26V162.19a4.64,4.64,0,0,1,.39-1.88,5.34,5.34,0,0,1,1-1.58,4.79,4.79,0,0,1,1.51-1.06,4.49,4.49,0,0,1,1.85-.39,4.86,4.86,0,0,1,3.42,1.46,5.54,5.54,0,0,1,1,1.54,4.5,4.5,0,0,1,.39,1.85v35A4.61,4.61,0,0,1,256.95,200.54Z"/><path class="cls-14" d="M270.73,201a5.18,5.18,0,0,1-1.51-1.09,4.77,4.77,0,0,1-1-1.57,4.93,4.93,0,0,1-.37-1.88V157.71l1.91,0c1.15,0,2.41,0,3.78,0h15.09a4,4,0,0,1,3,1.24,4.25,4.25,0,0,1-3,7.24H277.48v9.21h9.88a4.39,4.39,0,0,1,1.79.36,5.5,5.5,0,0,1,1.48,1,3.61,3.61,0,0,1,1.21,2.83,3.83,3.83,0,0,1-1.3,3,4.43,4.43,0,0,1-3.06,1.17h-10v9.15H293.6v8.48h-21A4.33,4.33,0,0,1,270.73,201Z"/><path class="cls-14" d="M335.39,196.51a9.18,9.18,0,0,1-1.55,1.73,11.33,11.33,0,0,1-2.6,1.63,19.33,19.33,0,0,1-3,1.09,21.57,21.57,0,0,1-3.15.61,26,26,0,0,1-3,.18,21.85,21.85,0,0,1-10.08-2.3,19.57,19.57,0,0,1-7.42-6.6,25,25,0,0,1-3.06-6.24,22.21,22.21,0,0,1-1.12-7,24.31,24.31,0,0,1,1.36-8.12,21.5,21.5,0,0,1,3.88-6.85,21,21,0,0,1,6-4.88,20,20,0,0,1,7.78-2.33,3.61,3.61,0,0,1,.67-.06h.67a19.06,19.06,0,0,1,3.79.42,30,30,0,0,1,4,1.13,27.22,27.22,0,0,1,3.76,1.67,17.81,17.81,0,0,1,3,2L332,169.4a20.21,20.21,0,0,0-4.45-2.73,12.7,12.7,0,0,0-5.18-1,9.81,9.81,0,0,0-1.94.18,12.68,12.68,0,0,0-4.39,1.7,12.08,12.08,0,0,0-3.24,3,13.09,13.09,0,0,0-2,4.06,16,16,0,0,0-.7,4.75,18.49,18.49,0,0,0,.7,5.12,12.92,12.92,0,0,0,2.12,4.33,10.83,10.83,0,0,0,3.57,3,10.46,10.46,0,0,0,5,1.15,11.81,11.81,0,0,0,3.39-.45,25.41,25.41,0,0,0,2.79-1l2.3-1a4.92,4.92,0,0,1,2-.45,4.09,4.09,0,0,1,3,1.18,3.93,3.93,0,0,1,1.21,2.94A4,4,0,0,1,335.39,196.51Z"/><path class="cls-14" d="M368.6,165a4.23,4.23,0,0,1-3,1.18h-6.78v30.9a4.79,4.79,0,0,1-9.57,0v-30.9H339.7l-.06-8.42h26a4,4,0,0,1,3,1.27,4.23,4.23,0,0,1,1.21,3A3.84,3.84,0,0,1,368.6,165Z"/><path class="cls-14" d="M398.49,202.42l-3-8.91H378.13q-.18.55-.63,1.67c-.3.75-.64,1.52-1,2.3s-.74,1.51-1.12,2.15a2.78,2.78,0,0,1-1,1.15,4.1,4.1,0,0,1-1.18.91,3.31,3.31,0,0,1-1.55.36,4.84,4.84,0,0,1-3.37-1.3,4.3,4.3,0,0,1-1.42-3.31,5.6,5.6,0,0,1,.15-1.3,9.16,9.16,0,0,1,.39-1.24l12.18-32.1a9.73,9.73,0,0,1,2.67-3.91,6.43,6.43,0,0,1,4.42-1.55,7,7,0,0,1,4.61,1.46,9.4,9.4,0,0,1,2.73,4l13.93,37.13Zm-11.69-35-5.94,17.75h11.81Z"/><path class="cls-14" d="M434.37,165a4.23,4.23,0,0,1-3,1.18h-6.79v30.9a4.79,4.79,0,0,1-9.57,0v-30.9h-9.57l-.06-8.42h26a4,4,0,0,1,3,1.27,4.24,4.24,0,0,1,1.21,3A3.85,3.85,0,0,1,434.37,165Z"/><path class="cls-14" d="M445.14,201a5.16,5.16,0,0,1-1.51-1.09,4.92,4.92,0,0,1-1-1.57,5.05,5.05,0,0,1-.36-1.88V157.71l1.91,0c1.15,0,2.41,0,3.78,0H463a4,4,0,0,1,3,1.24,4.14,4.14,0,0,1,1.21,3,4.24,4.24,0,0,1-4.24,4.24H451.9v9.21h9.87a4.39,4.39,0,0,1,1.79.36,5.61,5.61,0,0,1,1.48,1,3.62,3.62,0,0,1,1.21,2.83,3.83,3.83,0,0,1-1.3,3,4.42,4.42,0,0,1-3.06,1.17h-10v9.15H468v8.48h-21A4.35,4.35,0,0,1,445.14,201Z"/><path class="cls-14" d="M279.43,212.32a10.07,10.07,0,0,1,3.43.53q2.13.77,2.13,2.37a1.83,1.83,0,0,1-.45,1.22,1.44,1.44,0,0,1-1.14.53,5,5,0,0,1-1.46-.27,11.57,11.57,0,0,0-2.5-.61,4.28,4.28,0,0,0-3.65,1.81,6.62,6.62,0,0,0-1.17,4,6.14,6.14,0,0,0,1.25,4,4.77,4.77,0,0,0,5.35,1.36,14.18,14.18,0,0,1,2.34-.77,1.54,1.54,0,0,1,1.17.56,1.82,1.82,0,0,1,.5,1.25q0,1.68-2.18,2.47a10.45,10.45,0,0,1-3.62.58,8.24,8.24,0,0,1-6.46-2.82,10.58,10.58,0,0,1,0-13.41A8.25,8.25,0,0,1,279.43,212.32Z"/><path class="cls-14" d="M287,221.87a9.71,9.71,0,0,1,2.39-6.7,8.79,8.79,0,0,1,12.9,0,10.49,10.49,0,0,1,.05,13.41,8.82,8.82,0,0,1-12.93,0A9.7,9.7,0,0,1,287,221.87Zm13.67,0a6.8,6.8,0,0,0-1.17-4,4.52,4.52,0,0,0-7.29,0,6.9,6.9,0,0,0-1.14,4.07,7,7,0,0,0,1.12,4.1,4.61,4.61,0,0,0,7.34,0A6.82,6.82,0,0,0,300.71,221.85Z"/><path class="cls-14" d="M306.91,214.51a2.08,2.08,0,0,1,.52-1.45,1.82,1.82,0,0,1,1.42-.57,1.93,1.93,0,0,1,1.65.85l8.11,10.85.05-9.66a2.12,2.12,0,0,1,.52-1.48,2.06,2.06,0,0,1,2.85,0,2,2,0,0,1,.54,1.45v14.68a2.12,2.12,0,0,1-.52,1.48,1.86,1.86,0,0,1-1.45.57,1.91,1.91,0,0,1-.9-.24,2.16,2.16,0,0,1-.75-.64l-8.09-10.75-.08,9.59a2.11,2.11,0,0,1-.5,1.47,1.84,1.84,0,0,1-1.44.56,1.87,1.87,0,0,1-1.42-.54,2.07,2.07,0,0,1-.52-1.48Z"/><path class="cls-14" d="M333.06,214.5a2.13,2.13,0,0,1,.51-1.48,1.84,1.84,0,0,1,1.44-.57,1.8,1.8,0,0,1,1.4.59,2.1,2.1,0,0,1,.53,1.46v12.93l1.2-.09q1.17-.09,1.84-.09a5.75,5.75,0,0,1,2.34.37,1.75,1.75,0,0,1,1.06,1.7,1.57,1.57,0,0,1-.57,1.22,1.89,1.89,0,0,1-1.29.51h-6.44a1.9,1.9,0,0,1-1.48-.6,2.22,2.22,0,0,1-.54-1.55Z"/><path class="cls-14" d="M351.79,212.32a2.54,2.54,0,0,1,1.68.6,3.56,3.56,0,0,1,1.06,1.56l1.65,4.45q1.49,4.08,2.39,6.63a26.76,26.76,0,0,1,1.22,3.94,1.63,1.63,0,0,1-.53,1.22,1.78,1.78,0,0,1-1.28.51,2,2,0,0,1-1.92-1.34c-.34-1.14-.58-2-.75-2.47H348.2q-.37,1.23-.72,2.44a2,2,0,0,1-1.92,1.37,1.89,1.89,0,0,1-1.34-.54,1.76,1.76,0,0,1-.57-1.32,28.78,28.78,0,0,1,1.22-3.78q1.22-3.41,2.45-6.69.82-2.21,1.68-4.42a3.69,3.69,0,0,1,1-1.52A2.68,2.68,0,0,1,351.79,212.32Zm-2.47,11.49h4.82l-2.37-7.37Z"/><path class="cls-14" d="M369.35,214.9a2.53,2.53,0,0,1,.52-1.63,1.8,1.8,0,0,1,1.5-.65h6.38a1.86,1.86,0,0,1,1.33.48,1.75,1.75,0,0,1,.5,1.33,1.64,1.64,0,0,1-1.06,1.6,5.87,5.87,0,0,1-2.34.37q-.64,0-1.68-.08l-1.25-.08,0,3.72c.32,0,.59,0,.82,0,1.12-.09,1.77-.13,2-.13a5.84,5.84,0,0,1,2.29.35,1.77,1.77,0,0,1,0,3.22,5.63,5.63,0,0,1-2.3.37c-.41,0-.93,0-1.58-.08s-1-.08-1.2-.08v3.86l1.64-.12c.53,0,1-.07,1.48-.07a6.16,6.16,0,0,1,2.38.35,1.68,1.68,0,0,1,1.09,1.65,1.71,1.71,0,0,1-.53,1.3,1.85,1.85,0,0,1-1.33.51h-6.6a2,2,0,0,1-1.44-.56,1.87,1.87,0,0,1-.59-1.41Z"/><path class="cls-14" d="M392.84,214.93a2,2,0,0,1-.5,1.33,1.61,1.61,0,0,1-1.28.58,6.12,6.12,0,0,1-1.8-.38,6.15,6.15,0,0,0-1.72-.38,2.22,2.22,0,0,0-1.37.45,1.43,1.43,0,0,0-.6,1.2q0,.88,2.21,1.6a19.75,19.75,0,0,1,4.15,1.7,4.93,4.93,0,0,1,2.23,4.34,5.43,5.43,0,0,1-2,4.42,7.13,7.13,0,0,1-4.69,1.57,12.53,12.53,0,0,1-3.74-.48q-2.36-.75-2.36-2.42a1.94,1.94,0,0,1,.46-1.34,1.6,1.6,0,0,1,1.26-.52,5.53,5.53,0,0,1,1.67.32,12.31,12.31,0,0,0,2.78.69,2.59,2.59,0,0,0,1.72-.6,2,2,0,0,0,.71-1.61q0-1-2.21-1.78a31.42,31.42,0,0,1-4.15-1.57,4.21,4.21,0,0,1-2.23-3.83,5.37,5.37,0,0,1,1.88-4.24,6.66,6.66,0,0,1,4.54-1.64,7.71,7.71,0,0,1,3.86.88A2,2,0,0,1,392.84,214.93Z"/><path class="cls-14" d="M404.7,212.32a10.07,10.07,0,0,1,3.43.53q2.13.77,2.13,2.37a1.83,1.83,0,0,1-.45,1.22,1.43,1.43,0,0,1-1.14.53,5,5,0,0,1-1.46-.27,11.57,11.57,0,0,0-2.5-.61,4.28,4.28,0,0,0-3.65,1.81,6.62,6.62,0,0,0-1.17,4,6.14,6.14,0,0,0,1.25,4,4.77,4.77,0,0,0,5.35,1.36,14.21,14.21,0,0,1,2.34-.77,1.54,1.54,0,0,1,1.17.56,1.82,1.82,0,0,1,.51,1.25q0,1.68-2.18,2.47a10.45,10.45,0,0,1-3.62.58,8.24,8.24,0,0,1-6.46-2.82,10.58,10.58,0,0,1,0-13.41A8.24,8.24,0,0,1,404.7,212.32Z"/><path class="cls-14" d="M412.87,214.5a2.07,2.07,0,0,1,.52-1.45,1.82,1.82,0,0,1,1.42-.57,1.73,1.73,0,0,1,1.73,1.14,8.23,8.23,0,0,1,.37,2.9q0,.8-.11,2.63t-.11,2.77a9,9,0,0,0,.72,4.1,3.4,3.4,0,0,0,3.27,1.73,3.33,3.33,0,0,0,3.3-1.89,10.77,10.77,0,0,0,.69-4.44q0-1-.09-2.83t-.09-2.2a7.56,7.56,0,0,1,.37-2.79,1.73,1.73,0,0,1,1.73-1.12,1.85,1.85,0,0,1,1.4.57,2,2,0,0,1,.54,1.45v9.23a7.18,7.18,0,0,1-2.3,5.41,8.16,8.16,0,0,1-11.11,0,7.26,7.26,0,0,1-2.26-5.47Z"/><path class="cls-14" d="M431.38,214.9a2.53,2.53,0,0,1,.52-1.63,1.8,1.8,0,0,1,1.5-.65h6.38a1.86,1.86,0,0,1,1.33.48,1.75,1.75,0,0,1,.51,1.33,1.64,1.64,0,0,1-1.06,1.6,5.87,5.87,0,0,1-2.34.37q-.64,0-1.68-.08l-1.25-.08,0,3.72c.32,0,.59,0,.82,0,1.12-.09,1.77-.13,2-.13a5.84,5.84,0,0,1,2.29.35,1.77,1.77,0,0,1,0,3.22,5.62,5.62,0,0,1-2.3.37c-.41,0-.93,0-1.58-.08s-1-.08-1.2-.08v3.86l1.64-.12c.53,0,1-.07,1.48-.07a6.15,6.15,0,0,1,2.38.35,1.68,1.68,0,0,1,1.09,1.65,1.71,1.71,0,0,1-.53,1.3,1.85,1.85,0,0,1-1.33.51h-6.6a2,2,0,0,1-1.44-.56,1.87,1.87,0,0,1-.59-1.41Z"/><path class="cls-14" d="M444,214.5a2.13,2.13,0,0,1,.51-1.48,1.84,1.84,0,0,1,1.44-.57,1.8,1.8,0,0,1,1.4.59,2.1,2.1,0,0,1,.53,1.46v12.93l1.2-.09q1.17-.09,1.84-.09a5.75,5.75,0,0,1,2.34.37,1.75,1.75,0,0,1,1.06,1.7,1.57,1.57,0,0,1-.57,1.22,1.89,1.89,0,0,1-1.29.51h-6.44a1.9,1.9,0,0,1-1.48-.6,2.22,2.22,0,0,1-.54-1.55Z"/><path class="cls-14" d="M462.77,212.32a2.54,2.54,0,0,1,1.68.6,3.56,3.56,0,0,1,1.06,1.56l1.65,4.45q1.49,4.08,2.39,6.63a26.76,26.76,0,0,1,1.22,3.94,1.63,1.63,0,0,1-.53,1.22,1.79,1.79,0,0,1-1.28.51,2,2,0,0,1-1.92-1.34c-.34-1.14-.58-2-.75-2.47h-7.13q-.37,1.23-.72,2.44a2,2,0,0,1-1.92,1.37,1.89,1.89,0,0,1-1.34-.54,1.76,1.76,0,0,1-.57-1.32,28.78,28.78,0,0,1,1.22-3.78q1.22-3.41,2.45-6.69.82-2.21,1.68-4.42a3.69,3.69,0,0,1,1-1.52A2.68,2.68,0,0,1,462.77,212.32Zm-2.47,11.49h4.81l-2.37-7.37Z"/></g></g></svg>