<svg xmlns="http://www.w3.org/2000/svg" viewBox="0 0 845.66 367"><defs><style>.cls-1{isolation:isolate;}.cls-2{fill:#4bacd1;}.cls-3{mix-blend-mode:screen;}.cls-4{fill:#69a7d8;}.cls-5{fill:#a1bc30;}.cls-6{fill:#11579b;}.cls-7{fill:#009bdc;}.cls-8{fill:#db921a;}.cls-9{fill:#6aa33a;}.cls-10{fill:#316335;}.cls-11{fill:#1c7dba;}.cls-12{fill:#213380;}.cls-13{fill:#e6b142;}.cls-14{fill:#dcd916;}.cls-15{fill:#c95226;}</style></defs><title>fondo-conectate</title><g class="cls-1"><g id="Capa_2" data-name="Capa 2"><g id="Capa_1-2" data-name="Capa 1"><rect class="cls-2" width="845" height="367"/><g class="cls-3"><path class="cls-4" d="M12.52,135l-.24.79c-.49,1.38-1.12,2.69-1.65,4.06-2.1,4.86-4.11,9.76-6.22,14.62A19.09,19.09,0,0,0,0,153.33c.81-5.26,1.4-10.55,2.17-15.82.21-1.71.47-3.41.73-5.1A49.35,49.35,0,0,1,12.52,135Z"/><path class="cls-4" d="M99.7,68.82s4.72,2,7,3.17q-2.56,4.13-5.14,8.24c-2.84,4.54-5.76,9.05-8.44,13.7A17.57,17.57,0,0,0,88.79,92c1.67-5,4.69-15.14,4.69-15.14l3.37-8.58a19,19,0,0,1,2.85.56Z"/><path class="cls-5" d="M69,178.41c-5.19-1.37-10.3-3-15.44-4.54l.24,0a33.9,33.9,0,0,1,5.15-10.14c4.2,3.17,8.49,6.23,12.65,9.47a18,18,0,0,0-2.6,5.25Z"/><path class="cls-5" d="M76.82,42.28l-.24.79c-.49,1.38-1.12,2.69-1.65,4.06-2.09,4.86-4.11,9.76-6.22,14.62a19.11,19.11,0,0,0-4.4-1.17c.81-5.27,1.4-10.56,2.17-15.82.21-1.71.47-3.41.73-5.1a49.33,49.33,0,0,1,9.61,2.63Z"/><path class="cls-6" d="M86.43,145c1.49-5.07,2.74-10.2,4.33-15.23l.77.13a21.06,21.06,0,0,0,3.81.49c-.21,7.53-.21,15.06-.29,22.59,0,.73-.14,1.46-.21,2.19-1.51-.07-4.52-.3-4.52-.3l-1.77-.17s-3.06-.71-4.54-1.2l.18-.56c.84-2.62,1.45-5.29,2.24-7.92Z"/><path class="cls-6" d="M34.4,70.78a16.47,16.47,0,0,1-2,4c-1.87,3.2-3.6,6.48-5.51,9.66a35.38,35.38,0,0,1-4.56-3.25c3-4.22,6.57-8,9.85-12a26.05,26.05,0,0,0,2.23,1.59Z"/><path class="cls-7" d="M37.63,210.34c-4.14-3.41-8.11-7-12.12-10.58L25,198.28a36.4,36.4,0,0,1,9.18-7.4c2.5,4.63,5.59,11.11,8,15.78a18,18,0,0,0-4.56,3.68Z"/><path class="cls-8" d="M237.41,38a35.38,35.38,0,0,1,8.21,6.31c-1.41,1.12-2.61,2.48-3.93,3.72-3.79,3.71-7.43,7.58-11.33,11.17a23.85,23.85,0,0,0-3.54-2.74c2.66-4.64,5.35-9.27,8-13.91l1.56-2.71c.35-.6.68-1.22,1-1.83Z"/><path class="cls-9" d="M343.48,55.83s4.72,2,7,3.17q-2.56,4.13-5.14,8.24c-2.84,4.54-5.76,9.05-8.44,13.7A17.44,17.44,0,0,0,332.57,79c1.67-5,4.69-15.14,4.69-15.14l3.37-8.58a19.29,19.29,0,0,1,2.85.56Z"/><path class="cls-10" d="M153.05,68.55a42.78,42.78,0,0,1-1,8.5c-4.42-1.19-8.9-2.15-13.3-3.43a3,3,0,0,0-2.3.09,19.78,19.78,0,0,0,.69-5c5.3.14,10.61-.09,15.92-.12Z"/><path class="cls-5" d="M183.17,107.12c-5.19-1.37-10.3-3-15.44-4.55l.24,0a33.85,33.85,0,0,1,5.15-10.13c4.2,3.17,8.49,6.23,12.65,9.46a18,18,0,0,0-2.6,5.25Z"/><path class="cls-11" d="M364.46,102.67l-.23.79c-.49,1.38-1.12,2.69-1.65,4.06-2.1,4.86-4.11,9.76-6.22,14.62A19.21,19.21,0,0,0,352,121c.81-5.26,1.4-10.55,2.17-15.82.21-1.71.46-3.41.73-5.11a49.09,49.09,0,0,1,9.6,2.63Z"/><path class="cls-6" d="M185.62,162.68c1.48-5.07,2.74-10.2,4.33-15.23l.77.13a21.5,21.5,0,0,0,3.81.48c-.21,7.53-.21,15.06-.29,22.59,0,.73-.14,1.46-.21,2.19-1.51-.07-4.52-.31-4.52-.31l-1.77-.17s-3.06-.71-4.54-1.2c0-.14.13-.43.18-.56.84-2.61,1.45-5.29,2.24-7.93Z"/><path class="cls-10" d="M270.74,145.59c-4,3.32-8.3,6.29-12.38,9.52-3.09-3.68-4.87-8.28-6.06-12.89l15.33-3.29a19.07,19.07,0,0,0,2.21,5.33c.28.45.6.89.9,1.33Z"/><path class="cls-12" d="M285.84,14.28s6.29-8.47,9.47-12.68a18.86,18.86,0,0,0,5.4,2.8c-1.69,4.94-3.09,10-4.6,15-.51,1.66-1,3.32-1.56,5-.79-.27-6.33-2.37-6.33-2.37l-5.11-2.45a36.8,36.8,0,0,1,2.73-5.24Z"/><path class="cls-4" d="M322,131.17a16.38,16.38,0,0,1-2,4c-1.87,3.2-3.61,6.48-5.51,9.66A35.67,35.67,0,0,1,310,141.6c3-4.22,6.57-8,9.86-12a26,26,0,0,0,2.23,1.59Z"/><path class="cls-7" d="M151.85,139.05c-4.14-3.41-8.11-7-12.12-10.59l-.52-1.48a36.46,36.46,0,0,1,9.18-7.4c2.49,4.63,5.59,11.11,8,15.78a18,18,0,0,0-4.56,3.68Z"/><path class="cls-13" d="M342.34,3.79a35.35,35.35,0,0,1,8.21,6.31c-1.41,1.12-2.61,2.48-3.92,3.71-3.79,3.72-7.44,7.58-11.34,11.17a24,24,0,0,0-3.54-2.74c2.66-4.64,5.35-9.27,8-13.91.52-.9,1-1.8,1.56-2.71.35-.6.68-1.22,1-1.83Z"/><path class="cls-6" d="M451.64,36.45s4.71,2,7,3.17c-1.7,2.75-3.42,5.5-5.14,8.24-2.84,4.54-5.76,9.05-8.44,13.7a17.52,17.52,0,0,0-4.3-1.95c1.66-5,4.69-15.14,4.69-15.14l3.37-8.58a19,19,0,0,1,2.85.56Z"/><path class="cls-14" d="M390.77,107.48a43,43,0,0,1-1,8.5c-4.42-1.19-8.9-2.15-13.3-3.43a3,3,0,0,0-2.3.09,19.65,19.65,0,0,0,.69-5c5.3.14,10.61-.09,15.92-.12Z"/><path class="cls-15" d="M298.69,171.43c-2,5-4,9.93-6,14.9a20.57,20.57,0,0,0-4.29-1c.77-5.35,1.34-10.73,2-16.09,2.79.64,5.52,1.47,8.29,2.18Z"/><path class="cls-5" d="M420.89,146c-5.19-1.37-10.3-3-15.43-4.55l.24,0a33.88,33.88,0,0,1,5.15-10.14c4.2,3.17,8.49,6.23,12.65,9.47a18.07,18.07,0,0,0-2.6,5.25Z"/><path class="cls-5" d="M428.75,9.92l-.24.79c-.49,1.38-1.12,2.69-1.65,4.06-2.1,4.86-4.11,9.76-6.22,14.62a19.16,19.16,0,0,0-4.4-1.18c.81-5.26,1.4-10.55,2.18-15.82.21-1.71.47-3.41.73-5.11a49.27,49.27,0,0,1,9.6,2.63Z"/><path class="cls-10" d="M145.83,168c-4,3.32-8.3,6.29-12.38,9.52-3.09-3.68-4.87-8.28-6.06-12.89l15.33-3.29a19.14,19.14,0,0,0,2.21,5.33c.29.45.6.89.9,1.33Z"/><path class="cls-12" d="M193.15,14s6.29-8.47,9.47-12.68A18.86,18.86,0,0,0,208,4.1c-1.7,4.94-3.09,10-4.6,15-.51,1.66-1,3.32-1.56,5-.79-.27-6.33-2.37-6.33-2.37l-5.11-2.45A36.28,36.28,0,0,1,193.15,14Z"/><path class="cls-8" d="M386.33,38.41a16.37,16.37,0,0,1-2,4c-1.87,3.2-3.61,6.48-5.51,9.66a35.47,35.47,0,0,1-4.56-3.25c3-4.22,6.57-8,9.85-12a26.28,26.28,0,0,0,2.23,1.59Z"/><path class="cls-8" d="M218,184.06l.83-1.1c4.35,2.82,8.5,5.94,13,8.47,1.62,1.11,3.22,2.23,4.89,3.26,1.28.8,2.53,1.65,3.76,2.54l-.33,1.08L239,199.59l-.74.78c-.83-.64-1.67-1.27-2.48-1.94-1.82-1.54-3.72-3-5.6-4.46l-.26.24c-1.05-2-3.16-3.1-4.81-4.58-2.3-2-5-3.43-7.13-5.58Z"/><path class="cls-10" d="M315.13,191.23a35.43,35.43,0,0,1,8.21,6.31c-1.41,1.12-2.61,2.48-3.93,3.72-3.79,3.71-7.43,7.57-11.34,11.17a24.06,24.06,0,0,0-3.54-2.74c2.66-4.65,5.35-9.27,8-13.91l1.56-2.71c.35-.6.68-1.22,1-1.83Z"/><path class="cls-12" d="M503.34,83.35s4.72,2,7,3.17q-2.56,4.13-5.14,8.24c-2.84,4.54-5.76,9.05-8.44,13.7a17.63,17.63,0,0,0-4.31-1.94c1.67-5,4.69-15.14,4.69-15.14l3.37-8.58a19.27,19.27,0,0,1,2.85.56Z"/><path class="cls-5" d="M480.46,56.81l-.23.79c-.49,1.38-1.12,2.69-1.65,4.06-2.09,4.86-4.11,9.76-6.22,14.62A19.15,19.15,0,0,0,468,75.1c.81-5.26,1.4-10.55,2.18-15.82.21-1.71.46-3.41.72-5.1a49.13,49.13,0,0,1,9.6,2.63Z"/><path class="cls-8" d="M547,38.88c.81.67,7.11,6.55,7.89,7.27l1.75,1.6c4,3.6,8.12,7.13,12.08,10.82a19.72,19.72,0,0,0-1.79,2.3c-6.23-3.72-19.3-12-25.51-15.73C541.91,44.5,546.5,39.52,547,38.88Z"/><path class="cls-10" d="M641.06,52.52a35.41,35.41,0,0,1,8.21,6.31c-1.41,1.12-2.61,2.48-3.93,3.72-3.79,3.71-7.43,7.57-11.34,11.17A23.72,23.72,0,0,0,630.47,71c2.66-4.64,5.35-9.27,8-13.91.52-.9,1-1.8,1.56-2.71.35-.6.68-1.22,1-1.83Z"/><path class="cls-9" d="M747.13,70.36s4.72,2,7,3.17q-2.56,4.13-5.14,8.24c-2.84,4.54-5.76,9.05-8.44,13.7a17.58,17.58,0,0,0-4.31-1.95c1.67-5,4.69-15.14,4.69-15.14l3.37-8.58a19.14,19.14,0,0,1,2.85.56Z"/><path class="cls-13" d="M645.12,111.77c-2,5-4,9.93-6,14.9a20.42,20.42,0,0,0-4.29-1c.77-5.35,1.34-10.73,2-16.1,2.79.64,5.52,1.46,8.29,2.18Z"/><path class="cls-5" d="M586.82,121.65c-5.19-1.37-10.3-3-15.44-4.55l.24,0a33.92,33.92,0,0,1,5.15-10.13c4.2,3.17,8.49,6.23,12.65,9.47a18,18,0,0,0-2.6,5.25Z"/><path class="cls-5" d="M768.11,117.2l-.24.79c-.49,1.38-1.12,2.69-1.65,4.06-2.1,4.86-4.11,9.76-6.22,14.62a19.07,19.07,0,0,0-4.4-1.17c.81-5.26,1.4-10.55,2.18-15.82.21-1.71.46-3.41.73-5.11a49.25,49.25,0,0,1,9.61,2.63Z"/><path class="cls-10" d="M674.39,160.12c-4,3.32-8.3,6.29-12.38,9.52-3.09-3.68-4.87-8.28-6.06-12.89l15.33-3.29a19.06,19.06,0,0,0,2.21,5.33c.29.45.61.89.9,1.33Z"/><path class="cls-12" d="M689.49,28.81s6.29-8.47,9.47-12.68a18.82,18.82,0,0,0,5.4,2.8c-1.7,4.94-3.09,10-4.6,15-.52,1.66-1,3.32-1.56,5-.79-.27-6.33-2.37-6.33-2.37L686.76,34a36.31,36.31,0,0,1,2.73-5.24Z"/><path class="cls-5" d="M508.68,127.47a17.2,17.2,0,0,0,4.07-2.86L523.49,136l2,2.06c-1,.89-3,2.57-3,2.57l-1.42,1s-2.2,1.39-3.36,2l-1.39-2.54c-1.69-3.31-3.54-6.52-5.26-9.8a16.36,16.36,0,0,0-2.34-3.84Z"/><path class="cls-12" d="M725.69,145.7a16.34,16.34,0,0,1-2,4c-1.87,3.2-3.6,6.48-5.51,9.66a35.21,35.21,0,0,1-4.56-3.25c3-4.21,6.57-8,9.85-12a26.76,26.76,0,0,0,2.23,1.59Z"/><path class="cls-7" d="M555.5,153.58c-4.14-3.41-8.11-7-12.12-10.59l-.52-1.48a36.43,36.43,0,0,1,9.18-7.4c2.49,4.63,5.59,11.11,8,15.78a18,18,0,0,0-4.55,3.68Z"/><path class="cls-11" d="M746,18.32a35.27,35.27,0,0,1,8.21,6.31c-1.41,1.12-2.61,2.48-3.92,3.72-3.79,3.72-7.44,7.57-11.33,11.17a24,24,0,0,0-3.54-2.74c2.66-4.65,5.35-9.27,8-13.91L745,20.15c.35-.6.68-1.22,1-1.83Z"/><path class="cls-9" d="M838.68,99s4.72,2,7,3.17q-2.56,4.13-5.14,8.24c-2.85,4.54-5.76,9.05-8.44,13.7a17.6,17.6,0,0,0-4.31-1.95c1.67-5,4.69-15.14,4.69-15.14l3.37-8.58a18.9,18.9,0,0,1,2.85.56Z"/><path class="cls-10" d="M794.41,122a42.65,42.65,0,0,1-1,8.5c-4.42-1.2-8.9-2.15-13.29-3.43a3,3,0,0,0-2.3.08,19.86,19.86,0,0,0,.69-5c5.3.14,10.61-.09,15.91-.12Z"/><path class="cls-5" d="M824.53,160.57c-5.19-1.37-10.3-3-15.43-4.55l.24,0a33.87,33.87,0,0,1,5.15-10.13c4.2,3.16,8.49,6.23,12.65,9.46a17.91,17.91,0,0,0-2.6,5.25Z"/><path class="cls-5" d="M832.4,24.45l-.23.79c-.49,1.38-1.12,2.69-1.65,4.06-2.09,4.86-4.11,9.76-6.22,14.62a19.16,19.16,0,0,0-4.4-1.17c.81-5.26,1.4-10.55,2.17-15.82.21-1.71.47-3.41.73-5.11a49.12,49.12,0,0,1,9.6,2.63Z"/><path class="cls-6" d="M818.89,207.35c1.49-5.07,2.74-10.2,4.33-15.23l.77.13a21.35,21.35,0,0,0,3.81.49c-.21,7.53-.21,15.06-.29,22.59,0,.73-.15,1.46-.21,2.19-1.51-.07-4.52-.31-4.52-.31L821,217s-3.06-.71-4.54-1.2c0-.14.13-.42.18-.56.84-2.62,1.46-5.29,2.24-7.92Z"/><path class="cls-12" d="M596.8,28.52s6.29-8.47,9.47-12.68a18.78,18.78,0,0,0,5.4,2.8c-1.7,4.94-3.09,10-4.6,15-.52,1.66-1,3.32-1.56,5-.79-.27-6.33-2.37-6.33-2.37l-5.11-2.45a36.47,36.47,0,0,1,2.73-5.24Z"/><path class="cls-5" d="M746.39,166.4a17.13,17.13,0,0,0,4.07-2.86l10.75,11.42,2,2.06c-1,.89-3,2.57-3,2.57l-1.42,1s-2.19,1.39-3.35,2c-.46-.85-.93-1.69-1.38-2.54-1.69-3.31-3.54-6.52-5.26-9.8a16.3,16.3,0,0,0-2.34-3.84Z"/><path class="cls-8" d="M790,52.94a16.48,16.48,0,0,1-2,4c-1.87,3.2-3.6,6.48-5.51,9.66a35.4,35.4,0,0,1-4.56-3.25c3-4.22,6.58-8,9.85-12A25.86,25.86,0,0,0,790,52.94Z"/><path class="cls-7" d="M793.21,192.51c-4.14-3.41-8.1-7-12.12-10.59l-.52-1.48a36.42,36.42,0,0,1,9.18-7.4c2.49,4.63,5.59,11.11,8,15.78a18,18,0,0,0-4.56,3.68Z"/><path class="cls-4" d="M54.1,256.34s4.72,2,7,3.17c-1.71,2.75-3.42,5.5-5.14,8.24-2.84,4.54-5.76,9.05-8.44,13.7a17.55,17.55,0,0,0-4.31-1.95c1.67-5,4.69-15.14,4.69-15.14l3.37-8.58a19.14,19.14,0,0,1,2.85.56Z"/><path class="cls-5" d="M31.22,229.81l-.24.78c-.49,1.38-1.12,2.69-1.65,4.06-2.1,4.87-4.11,9.76-6.22,14.62a19.21,19.21,0,0,0-4.4-1.18c.81-5.26,1.4-10.55,2.17-15.82.21-1.71.47-3.41.73-5.1a48.94,48.94,0,0,1,9.61,2.64Z"/><path class="cls-6" d="M40.83,332.55c1.49-5.07,2.74-10.2,4.33-15.23l.77.13a21,21,0,0,0,3.81.48c-.21,7.53-.21,15.06-.29,22.59,0,.73-.15,1.46-.21,2.19-1.51-.07-4.52-.31-4.52-.31L43,342.24s-3.06-.71-4.54-1.2l.18-.56c.84-2.62,1.45-5.3,2.24-7.93Z"/><path class="cls-8" d="M191.81,225.52a35.34,35.34,0,0,1,8.21,6.31c-1.41,1.13-2.61,2.48-3.93,3.72-3.79,3.71-7.43,7.57-11.34,11.17a23.81,23.81,0,0,0-3.54-2.74c2.66-4.65,5.35-9.27,8-13.91l1.56-2.71c.35-.61.68-1.22,1-1.83Z"/><path class="cls-10" d="M107.45,256.08a42.86,42.86,0,0,1-1,8.5c-4.42-1.2-8.9-2.15-13.3-3.43a3,3,0,0,0-2.3.09,19.78,19.78,0,0,0,.69-5c5.3.14,10.61-.09,15.91-.12Z"/><path class="cls-5" d="M137.57,294.64c-5.19-1.37-10.3-3-15.44-4.55l.24,0a33.8,33.8,0,0,1,5.15-10.13c4.2,3.16,8.49,6.23,12.65,9.46a18,18,0,0,0-2.6,5.25Z"/><path class="cls-11" d="M318.86,290.2l-.24.79c-.49,1.38-1.12,2.7-1.65,4.06-2.1,4.86-4.11,9.76-6.22,14.62a19.25,19.25,0,0,0-4.4-1.17c.81-5.26,1.4-10.56,2.17-15.82.21-1.71.46-3.41.72-5.11a49.29,49.29,0,0,1,9.61,2.64Z"/><path class="cls-6" d="M140,350.21c1.48-5.07,2.74-10.2,4.33-15.23l.77.13a21,21,0,0,0,3.81.48c-.21,7.53-.21,15.07-.29,22.59,0,.73-.14,1.46-.21,2.19-1.51-.07-4.52-.31-4.52-.31l-1.77-.17s-3.06-.71-4.54-1.2c0-.14.13-.42.18-.56.84-2.61,1.45-5.29,2.24-7.92Z"/><path class="cls-13" d="M225.14,333.12c-4,3.32-8.3,6.29-12.38,9.52-3.09-3.68-4.87-8.28-6.05-12.89L222,326.45a19.09,19.09,0,0,0,2.21,5.33c.29.45.6.89.9,1.33Z"/><path class="cls-12" d="M187.89,203.18s6.29-8.47,9.47-12.68a18.8,18.8,0,0,0,5.4,2.8c-1.7,4.94-3.09,10-4.6,15-.52,1.66-1,3.32-1.56,5-.79-.27-6.33-2.37-6.33-2.37l-5.11-2.45a36.53,36.53,0,0,1,2.73-5.24Z"/><path class="cls-5" d="M59.43,300.46a17,17,0,0,0,4.07-2.86L74.25,309l2,2.06c-1,.89-3,2.57-3,2.57l-1.42,1s-2.19,1.39-3.35,2C68,315.8,67.49,315,67,314.1c-1.68-3.3-3.54-6.51-5.26-9.8a16.4,16.4,0,0,0-2.34-3.84Z"/><path class="cls-4" d="M276.44,318.7a16.37,16.37,0,0,1-2,4c-1.87,3.2-3.61,6.48-5.51,9.66a35.72,35.72,0,0,1-4.56-3.25c3-4.22,6.57-8,9.85-12a26.92,26.92,0,0,0,2.23,1.59Z"/><path class="cls-6" d="M234.85,268.15l.83-1.09c4.35,2.82,8.5,5.93,13,8.47,1.61,1.1,3.23,2.22,4.89,3.26,1.29.8,2.54,1.65,3.76,2.54l-.33,1.08-1.16,1.27-.74.78c-.83-.64-1.67-1.27-2.48-1.94-1.82-1.54-3.72-3-5.59-4.46l-.26.25c-1.05-2-3.16-3.11-4.81-4.58-2.3-2-5-3.43-7.13-5.58Z"/><path class="cls-7" d="M106.25,326.58c-4.14-3.41-8.11-7-12.12-10.59l-.52-1.48a36.49,36.49,0,0,1,9.18-7.4c2.49,4.63,5.59,11.11,8,15.78a18,18,0,0,0-4.56,3.68Z"/><path class="cls-13" d="M248.52,225.76a35.42,35.42,0,0,1,8.21,6.31c-1.41,1.12-2.61,2.49-3.93,3.72-3.79,3.71-7.43,7.57-11.33,11.17a23.79,23.79,0,0,0-3.54-2.74c2.66-4.65,5.35-9.27,8-13.91l1.56-2.71c.35-.6.68-1.22,1-1.83Z"/><path class="cls-6" d="M406,224s4.72,2,7,3.17q-2.55,4.12-5.14,8.24c-2.84,4.54-5.76,9.05-8.44,13.7a17.54,17.54,0,0,0-4.31-1.95c1.67-5,4.69-15.14,4.69-15.14l3.37-8.58A19.11,19.11,0,0,1,406,224Z"/><path class="cls-13" d="M345.17,295a42.68,42.68,0,0,1-1,8.5c-4.42-1.2-8.9-2.15-13.29-3.43a3,3,0,0,0-2.3.08,19.8,19.8,0,0,0,.69-5c5.3.14,10.61-.09,15.91-.12Z"/><path class="cls-5" d="M375.29,333.57c-5.19-1.37-10.3-3-15.44-4.55l.24,0a33.83,33.83,0,0,1,5.15-10.13c4.2,3.17,8.49,6.23,12.65,9.46a18,18,0,0,0-2.6,5.25Z"/><path class="cls-6" d="M392.76,300.18c1.49-5.06,2.74-10.2,4.33-15.23l.77.13a21.31,21.31,0,0,0,3.81.48c-.21,7.53-.21,15.06-.29,22.59,0,.73-.15,1.46-.21,2.19-1.51-.07-4.52-.31-4.52-.31l-1.77-.17s-3.06-.71-4.54-1.21l.17-.56c.84-2.61,1.45-5.3,2.24-7.93Z"/><path class="cls-10" d="M100.23,355.47c-4,3.32-8.3,6.29-12.38,9.53-3.09-3.69-4.87-8.28-6.06-12.89l15.33-3.29a19,19,0,0,0,2.21,5.33c.29.45.6.89.9,1.33Z"/><path class="cls-12" d="M147.55,201.51s6.29-8.48,9.47-12.68a18.79,18.79,0,0,0,5.4,2.8c-1.7,4.94-3.09,10-4.6,15-.52,1.66-1,3.32-1.56,5-.79-.27-6.33-2.37-6.33-2.37l-5.11-2.45a36.47,36.47,0,0,1,2.73-5.24Z"/><path class="cls-5" d="M297.15,339.39a17,17,0,0,0,4.07-2.86L312,347.94l2,2.06c-1,.89-3,2.57-3,2.57l-1.42,1s-2.19,1.4-3.35,2c-.46-.85-.93-1.69-1.39-2.54-1.68-3.31-3.54-6.52-5.26-9.8a16.43,16.43,0,0,0-2.34-3.84Z"/><path class="cls-8" d="M340.73,225.94a16.34,16.34,0,0,1-2,4c-1.87,3.2-3.6,6.47-5.51,9.66a35.28,35.28,0,0,1-4.56-3.25c3-4.22,6.57-8,9.85-12a25.8,25.8,0,0,0,2.23,1.59Z"/><path class="cls-7" d="M344,365.5c-4.14-3.41-8.11-7-12.12-10.59l-.52-1.48a36.47,36.47,0,0,1,9.18-7.4c2.49,4.63,5.6,11.11,8,15.78A18,18,0,0,0,344,365.5Z"/><path class="cls-12" d="M457.74,270.87s4.72,2,7,3.17c-1.71,2.75-3.42,5.5-5.14,8.24-2.84,4.55-5.76,9.05-8.44,13.7a17.73,17.73,0,0,0-4.31-1.95c1.67-5,4.69-15.14,4.69-15.14l3.37-8.58a19.11,19.11,0,0,1,2.85.56Z"/><path class="cls-6" d="M444.47,347.08c1.48-5.06,2.74-10.2,4.33-15.23l.77.13a21,21,0,0,0,3.82.48c-.21,7.53-.21,15.06-.29,22.6,0,.73-.14,1.46-.21,2.19-1.51-.06-4.52-.3-4.52-.3l-1.77-.17s-3.06-.71-4.54-1.2l.18-.56c.84-2.62,1.46-5.3,2.24-7.93Z"/><path class="cls-13" d="M595.46,240a35.32,35.32,0,0,1,8.21,6.31c-1.41,1.12-2.61,2.48-3.93,3.72-3.79,3.71-7.43,7.57-11.33,11.17a24,24,0,0,0-3.54-2.74c2.66-4.65,5.36-9.27,8-13.91l1.56-2.71c.35-.6.68-1.22,1-1.83Z"/><path class="cls-9" d="M701.53,257.89s4.72,2,7,3.17q-2.56,4.13-5.14,8.24c-2.85,4.55-5.76,9.05-8.44,13.7a17.64,17.64,0,0,0-4.31-1.95c1.67-5,4.69-15.14,4.69-15.14l3.37-8.58a18.94,18.94,0,0,1,2.85.56Z"/><path class="cls-13" d="M511.1,270.61a42.64,42.64,0,0,1-1,8.5c-4.42-1.19-8.9-2.15-13.3-3.43a3,3,0,0,0-2.3.09,19.85,19.85,0,0,0,.69-5c5.31.14,10.61-.09,15.92-.11Z"/><path class="cls-13" d="M599.52,299.29c-2,5-4,9.93-6,14.91a20.56,20.56,0,0,0-4.29-1c.77-5.35,1.34-10.73,2-16.09,2.79.65,5.52,1.46,8.29,2.18Z"/><path class="cls-5" d="M541.22,309.17c-5.19-1.37-10.3-3-15.44-4.55l.24,0a33.9,33.9,0,0,1,5.15-10.13c4.2,3.16,8.49,6.23,12.65,9.46a17.87,17.87,0,0,0-2.6,5.25Z"/><path class="cls-5" d="M722.51,304.73l-.24.79c-.49,1.37-1.12,2.69-1.65,4.06-2.1,4.87-4.11,9.76-6.22,14.62A19.18,19.18,0,0,0,710,323c.82-5.26,1.4-10.55,2.18-15.82.21-1.71.46-3.41.72-5.11a49.2,49.2,0,0,1,9.61,2.64Z"/><path class="cls-10" d="M628.79,347.65c-4,3.32-8.3,6.29-12.38,9.52-3.09-3.68-4.87-8.28-6.06-12.89L625.68,341a19.14,19.14,0,0,0,2.21,5.33c.29.45.6.88.9,1.33Z"/><path class="cls-12" d="M651.78,230.67s6.29-8.48,9.47-12.68a18.81,18.81,0,0,0,5.4,2.8c-1.7,4.94-3.09,10-4.6,15-.52,1.66-1,3.32-1.56,5-.79-.27-6.33-2.37-6.33-2.37l-5.11-2.45a36.11,36.11,0,0,1,2.73-5.23Z"/><path class="cls-5" d="M463.08,315a17.19,17.19,0,0,0,4.07-2.86l10.75,11.42,2,2.06c-1,.89-3,2.57-3,2.57l-1.42,1s-2.2,1.39-3.35,2l-1.39-2.54c-1.68-3.3-3.54-6.51-5.26-9.8a16.36,16.36,0,0,0-2.34-3.84Z"/><path class="cls-12" d="M680.09,333.22a16.31,16.31,0,0,1-2,4c-1.87,3.2-3.6,6.47-5.51,9.66a35.3,35.3,0,0,1-4.56-3.26c3-4.21,6.58-8,9.85-12a26,26,0,0,0,2.23,1.59Z"/><path class="cls-7" d="M509.9,341.1c-4.14-3.41-8.11-7-12.12-10.59l-.53-1.48a36.45,36.45,0,0,1,9.18-7.4c2.49,4.63,5.59,11.11,8,15.78a18,18,0,0,0-4.56,3.68Z"/><path class="cls-11" d="M700.39,205.85a35.47,35.47,0,0,1,8.21,6.31c-1.42,1.13-2.61,2.49-3.93,3.72-3.79,3.72-7.44,7.57-11.33,11.17a24.29,24.29,0,0,0-3.54-2.74c2.66-4.65,5.35-9.27,8-13.91l1.56-2.71c.35-.6.68-1.21,1-1.83Z"/><path class="cls-9" d="M809.68,238.51s4.72,2,7,3.17q-2.56,4.13-5.14,8.24c-2.85,4.54-5.76,9.05-8.44,13.7a17.5,17.5,0,0,0-4.31-1.95c1.67-5,4.69-15.14,4.69-15.14l3.37-8.58a19.18,19.18,0,0,1,2.85.56Z"/><path class="cls-10" d="M748.82,309.53a42.91,42.91,0,0,1-1,8.5c-4.42-1.2-8.9-2.15-13.3-3.43a3,3,0,0,0-2.3.09,19.71,19.71,0,0,0,.69-5c5.31.13,10.61-.09,15.92-.12Z"/><path class="cls-5" d="M778.93,348.1c-5.19-1.37-10.3-3-15.44-4.55l.24,0a33.79,33.79,0,0,1,5.15-10.13c4.21,3.16,8.49,6.23,12.65,9.46a17.86,17.86,0,0,0-2.6,5.25Z"/><path class="cls-5" d="M786.8,212l-.23.79c-.49,1.38-1.12,2.7-1.65,4.06-2.09,4.86-4.11,9.76-6.22,14.62a19.19,19.19,0,0,0-4.4-1.17c.81-5.26,1.4-10.55,2.17-15.82.21-1.71.47-3.41.73-5.11A49.3,49.3,0,0,1,786.8,212Z"/><path class="cls-6" d="M796.41,314.71c1.48-5.06,2.74-10.2,4.33-15.23l.77.13a21.3,21.3,0,0,0,3.81.48c-.21,7.53-.21,15.06-.29,22.59,0,.73-.14,1.46-.21,2.19-1.51-.07-4.52-.31-4.52-.31l-1.77-.17s-3.05-.71-4.54-1.2c0-.14.13-.42.18-.56.84-2.62,1.46-5.3,2.24-7.93Z"/></g></g></g></g></svg>