<svg xmlns="http://www.w3.org/2000/svg" viewBox="0 0 965.19 412.58"><defs><style>.cls-1{fill:none;stroke:#f2f2f2;stroke-linejoin:round;stroke-width:20px;}.cls-2{fill:#a2ce17;}.cls-3{fill:#999;}.cls-4{fill:#262626;opacity:0.2;}.cls-5{fill:#181915;stroke:#350f02;stroke-miterlimit:10;}</style></defs><title>logo-brand_1</title><g id="Capa_2" data-name="Capa 2"><g id="Capa_1-2" data-name="Capa 1"><path class="cls-1" d="M205.11,312.23c.84,28.42-61.8,32.88-61.8,32.88s-58.68,1.37-62.46-21.74c-3.36-19.53-1.89-55-29-76,0,0-56.49-38.64-38.23-137.58,4-35.71,69.67-136.67,186.88-85.63,112.44,55.39,71.69,174.1,64.26,185.16C248,248.81,201.49,251.06,205.11,312.23Z"/><path class="cls-1" d="M186.63,370.6s-15.24,4.5-44.76,4.67-44.81-4.17-44.81-4.17c-3.3,0-6-3.51-6-7.85h0c0-4.34,2.65-7.9,6-7.92,0,0,17,3.61,44.81,3.46s44.77-3.95,44.77-3.95c3.3,0,6,3.51,6,7.85h0C192.6,367,189.93,370.59,186.63,370.6Z"/><path class="cls-1" d="M171.82,400.51a241.93,241.93,0,0,1-29.15,2.07,241.93,241.93,0,0,1-29.17-1.75c-3.25,0-5.92-3.46-5.95-7.73h0c0-4.27,2.61-7.78,5.86-7.8,0,0,17.36,1.82,29.17,1.75S171.73,385,171.73,385c3.25,0,5.92,3.46,5.95,7.73h0C177.71,397,175.07,400.49,171.82,400.51Z"/><path class="cls-1" d="M225.78,160.8c-10.76-11.06-10.31-4.28-23.26,9.15C144,226.34,98.18,180.74,80.85,144.42c-8-13.71-28.62-10.73-48.35-3.67-5.49,2-9.94-26-4.21-28.91,16.67-8.44,35.23-17,51.3-22.24,41.27-13.55,87-30.25,164.46-15.75"/><path class="cls-2" d="M205.11,312.23c.84,28.42-61.8,32.88-61.8,32.88s-58.68,1.37-62.46-21.74c-3.36-19.53-1.89-55-29-76,0,0-56.49-38.64-38.23-137.58,4-35.71,69.67-136.67,186.88-85.63,112.44,55.39,71.69,174.1,64.26,185.16C248,248.81,201.49,251.06,205.11,312.23Z"/><path class="cls-3" d="M186.63,370.6s-15.24,4.5-44.76,4.67-44.81-4.17-44.81-4.17c-3.3,0-6-3.51-6-7.85h0c0-4.34,2.65-7.9,6-7.92,0,0,17,3.61,44.81,3.46s44.77-3.95,44.77-3.95c3.3,0,6,3.51,6,7.85h0C192.6,367,189.93,370.59,186.63,370.6Z"/><path class="cls-3" d="M171.82,400.51a241.93,241.93,0,0,1-29.15,2.07,241.93,241.93,0,0,1-29.17-1.75c-3.25,0-5.92-3.46-5.95-7.73h0c0-4.27,2.61-7.78,5.86-7.8,0,0,17.36,1.82,29.17,1.75S171.73,385,171.73,385c3.25,0,5.92,3.46,5.95,7.73h0C177.71,397,175.07,400.49,171.82,400.51Z"/><path class="cls-4" d="M111.09,265.4S58.38,228.09,51.23,162.06s13-127.35,78.36-151.75C57,15.12,16.71,82.06,13.63,109.76-4.62,208.7,51.86,247.34,51.86,247.34c27.1,21,24.49,56.73,29,76,3.77,16.17,31.07,19.39,31.86,19.39C129.59,309.72,111.09,265.4,111.09,265.4Z"/><path class="cls-5" d="M443,80.84q19,0,22.72,24.39v3.21q0,5.37-22.72,61.81-19.51,52.19-19.51,68.29,0,34.56,1.6,105.71-4.88,13-14.63,17.91-9.76,1.18-9.76,3.28Q373,359.22,373,337.76v-4.88q-1.6-80.69-1.6-104.11-17.91-96.86-30.94-110.59a47.45,47.45,0,0,1-1.6-11.36Q343.42,84,364.88,84q23.48,0,34.14,37.42,3.28,6.48,4.88,6.48,14.7-47.1,32.54-47.11Z"/><path class="cls-5" d="M539.09,79.17q30.38,0,42.23,81.32,6.9,74.84,11.43,74.84,17.84,8.08,17.84,22.72v1.67q0,13-14.63,26a335.92,335.92,0,0,1,3.27,48.78q0,18.33-26,22.79-29.27,0-29.27-50.38-1.67,0-1.67-3.27-32.47,3.27-32.47,16.24-8.64,40.69-30.94,40.7-26-5.71-26-22.79v-4.88q3.21-14,3.21-21.11Q435,306.19,435,287.31v-3.21q0-21.53,35.75-29.27,8.15-81.67,29.27-146.41Q516.86,79.17,539.09,79.17ZM522.79,241.81q1.67,0,1.67,1.6,10.66-1.6,16.24-4.88-4.88-60.83-4.88-66.62-6.34,0-9.76,52Q524.46,223.9,522.79,241.81Z"/><path class="cls-5" d="M644.87,82.44q26.06,0,26.06,40.63,3.21,94.42,3.21,177.28v6.55h22.79q37.42,6.06,37.42,26V341q0,16.31-24.39,22.72L692,358.88H680.69a43.25,43.25,0,0,0-17.91,4.88q-27.53,0-35.75-19.51-4.88-7.87-4.88-21.11V206.06a80.85,80.85,0,0,0-1.67-14.63,12.72,12.72,0,0,0,1.67-6.55l-1.67-3.21a1.48,1.48,0,0,1,1.67-1.67q-3.28-21.53-3.28-69.89v-4.88Q618.88,87.74,644.87,82.44Z"/><path class="cls-5" d="M830,79.17q30.38,0,42.23,81.32,6.9,74.84,11.43,74.84,17.84,8.08,17.84,22.72v1.67q0,13-14.63,26a335.92,335.92,0,0,1,3.27,48.78q0,18.33-26,22.79-29.27,0-29.27-50.38-1.67,0-1.67-3.27-32.47,3.27-32.47,16.24-8.64,40.69-30.94,40.7-26-5.71-26-22.79v-4.88q3.21-14,3.21-21.11-21.11-5.58-21.11-24.46v-3.21q0-21.53,35.75-29.27,8.15-81.67,29.27-146.41Q807.79,79.17,830,79.17ZM813.72,241.81q1.67,0,1.67,1.6,10.66-1.6,16.24-4.88-4.88-60.83-4.88-66.62-6.34,0-9.76,52Q815.39,223.9,813.72,241.81Z"/><path class="cls-5" d="M938.52,300.34q26.06,5.64,26.06,26.06-6,30.87-30.94,30.87H932q-19.93,0-24.39-26Q913.64,300.34,938.52,300.34ZM940.19,84q22.72,5.78,22.72,22.79v52.05q0,20.42,1.67,50.38a12.73,12.73,0,0,0-1.67,6.55q0,1.6,1.67,1.6l-1.67,8.15V267.8q-4.39,26.06-22.72,26.06h-3.28q-26-4.11-26-24.39,0-13.1,1.6-47.18-1.6-72.33-1.6-110.59Q910.92,84,940.19,84Z"/></g></g></svg>