<svg xmlns="http://www.w3.org/2000/svg" viewBox="0 0 213 42.22"><defs><style>.cls-1{fill:#FFFFFF}.cls-2{fill:#FFF}</style></defs><title>met</title><g id="Capa_2" data-name="Capa 2"><g id="Capa_1-2" data-name="Capa 1"><path class="cls-1" d="M146.13 16.42a8.23 8.23 0 0 1-2.57.45 4.3 4.3 0 0 1-3.18-1.12 4.69 4.69 0 0 1-1.24-3.44 4.39 4.39 0 0 1 4.65-4.72 5.32 5.32 0 0 1 2.1.38l-.34 1.31a4.06 4.06 0 0 0-1.75-.34c-1.71 0-3 1.06-3 3.31s1.17 3.3 2.78 3.3a2.73 2.73 0 0 0 1-.15v-2.35h-1.38v-1.27h2.94zm8.73-4.29c0 3.15-1.64 4.77-3.88 4.77s-3.75-2-3.75-4.63 1.54-4.72 3.88-4.72 3.75 2.02 3.75 4.58zm-6 .12c0 1.89.77 3.34 2.16 3.34s2.13-1.54 2.13-3.41c0-1.68-.67-3.33-2.13-3.33s-2.11 1.53-2.11 3.41zm7.34-4.44a12.14 12.14 0 0 1 2.22-.19 4 4 0 0 1 2.48.59 2 2 0 0 1 .85 1.68 2.09 2.09 0 0 1-1.46 2 2.26 2.26 0 0 1 1.78 2.24 2.45 2.45 0 0 1-.81 1.86 4.61 4.61 0 0 1-3.19.85 14.35 14.35 0 0 1-1.87-.11zm1.58 3.61h.73c1 0 1.66-.55 1.66-1.35s-.55-1.27-1.56-1.27a3.54 3.54 0 0 0-.82.07zm0 4.18a4 4 0 0 0 .75 0c1 0 1.87-.43 1.87-1.54s-.88-1.52-1.93-1.52h-.7zM165 7.69v9.08h-1.59V7.69zm6.45 5.02h-3v2.72h3.41v1.33h-5V7.69h4.81V9h-3.27v2.38h3zm1.71-4.9a13.39 13.39 0 0 1 2.28-.19 3.87 3.87 0 0 1 2.64.71 2.3 2.3 0 0 1 .75 1.82 2.4 2.4 0 0 1-1.58 2.29 2.23 2.23 0 0 1 1.23 1.81 18.75 18.75 0 0 0 .66 2.49h-1.63a12.57 12.57 0 0 1-.57-2.17c-.24-1.17-.65-1.56-1.52-1.58h-.69v3.75h-1.58zm1.58 4h.81a1.52 1.52 0 0 0 1.7-1.52c0-1-.59-1.47-1.63-1.48a3.71 3.71 0 0 0-.87.08zm5.54 4.96V7.69H182l2.1 3.89a28.74 28.74 0 0 1 1.4 3c-.09-1.2-.15-2.44-.15-3.89v-3h1.46v9.08h-1.6l-2.12-4a27.41 27.41 0 0 1-1.44-3.06c.07 1.13.09 2.36.09 4v3zm15.51-4.64c0 3.15-1.64 4.77-3.88 4.77s-3.75-2-3.75-4.63 1.54-4.72 3.84-4.72 3.79 2.02 3.79 4.58zm-6 .12c0 1.89.77 3.34 2.16 3.34s2.13-1.54 2.13-3.41c0-1.68-.67-3.33-2.13-3.33s-2.11 1.53-2.11 3.41zm9.89-4.44a13.18 13.18 0 0 1 2.32-.19 4.85 4.85 0 0 1 3.3 1 4.22 4.22 0 0 1 1.38 3.38 4.8 4.8 0 0 1-1.35 3.68 5.26 5.26 0 0 1-3.68 1.15 14.51 14.51 0 0 1-2-.12zm1.59 7.73a4.26 4.26 0 0 0 .75 0c1.81 0 3-1.08 3-3.53 0-2-1-3.18-2.82-3.18a3.87 3.87 0 0 0-.92.08zm11.36-2.83h-3v2.72H213v1.33h-5V7.69h4.81V9h-3.22v2.38h3zm-70.89 13.47H139v-2.4h8.34v2.4h-2.74v8.24h-2.86zm9.61-2.4v6c0 1.61.55 2.51 1.67 2.51s1.69-.82 1.69-2.51v-6h2.86v5.88c0 3.29-1.64 4.94-4.63 4.94s-4.45-1.59-4.45-5v-5.82zm15.95 10.37a6.78 6.78 0 0 1-2.67.44c-4 0-5.73-2.48-5.73-5.32 0-3.76 2.75-5.67 5.92-5.67a6.38 6.38 0 0 1 2.65.47l-.55 2.24a5.13 5.13 0 0 0-2-.38 2.87 2.87 0 0 0-3 3.14 2.88 2.88 0 0 0 3.08 3.16 5.88 5.88 0 0 0 1.9-.3zm4.22-10.37v6c0 1.61.55 2.51 1.67 2.51s1.69-.82 1.69-2.51v-6h2.86v5.88c0 3.29-1.64 4.94-4.63 4.94s-4.45-1.59-4.45-5v-5.82zm17.01 6.84c0-1.22-.06-2.64-.06-4.3-.33 1.41-.77 3-1.12 4.17l-1.06 3.71H184l-.88-3.7c-.28-1.15-.6-2.73-.85-4.18-.06 1.5-.11 3.08-.16 4.3l-.17 3.81h-2.62l.68-10.65h3.84l.7 2.86c.3 1.18.62 2.61.84 3.9.3-1.29.65-2.8 1-3.92l.81-2.84h3.74l.54 10.64h-2.76zm7.26 1.38l-.6 2.46h-3l3.08-10.64h3.81l3.17 10.64h-3.08l-.63-2.46zm4.38-10.74l-1.9 2H196l1.28-2zm-2 8.64l-.49-1.91c-.16-.6-.36-1.49-.54-2.1-.16.62-.32 1.5-.46 2.1l-.46 1.91zm5.32 4.52V23.78h3.36l1.69 3.22a31.23 31.23 0 0 1 1.67 3.73 40.4 40.4 0 0 1-.22-4.49v-2.46h2.61v10.64h-3l-1.82-3.54c-.58-1.12-1.28-2.56-1.78-3.84.08 1.44.11 3 .11 4.77v2.61z"/><path class="cls-2" d="M108.16 16.45l-14.25-2.79-2.27 5.75 16.52-2.96zm8.19 10.62l13.52 5.31 3.17-5.27-16.69-.04zm9.01-21.86l-4.91-3.72-1.71 16.83 6.62-13.11zm-15.1 9.92l-12.28-7.8-4.24 4.55 16.52 3.25zm2.44-.45l-8.66-11.79-5.66 2.75 10.56 6.65 3.76 2.39zm2.43.43L111.28.94l-6.13.49 7.34 10.09 2.64 3.59zm15.17-4.26l-3.27-5.22-7.58 15.05 10.85-9.83zm-11.04 12.29l13.6-5.24-1.16-6-12.44 11.24zm-11.87 2.36l-4.05 14.01 5.53 2.66-1.48-16.67zm14.35-1.5l-3.56 1.38 14.54.03 1.06-5.98L121.74 24zm2.98 13.85l4.87-3.79-15.56-6.07 10.69 9.86zm-6.76 3.25l5.83-1.74-12.24-11.35 6.41 13.09zm-1.39 1.06l-7.34-15.03 1.26 14.55 6.08.48zm-19.12-7.27l4.13 4.46 4.68-16.04-8.81 11.58zm8.54-14.04l-12.35 7.59 2.25 5.72 10.1-13.31zm.65-2.39L92.4 21.03v6.18l14.24-8.75zm12.09-16.71L112.76.03l4.47 16.36 1.5-14.64z"/><path class="cls-1" transform="rotate(180 83.015 21.11)" d="M82.3 0h1.43v42.22H82.3z"/><path class="cls-1" d="M7.08 14.53c-.07-1.22-.15-2.66-.13-3.72-.28 1-.6 2.12-1 3.27l-1.46 4.26H3.7l-1.33-4.15c-.37-1.19-.7-2.34-.92-3.38 0 1.09-.08 2.49-.16 3.8L1 18.4H0l.59-8.87h1.36l1.37 4.22c.34 1.1.62 2.05.84 3 .22-.93.5-1.87.86-3l1.43-4.22h1.36l.54 8.87H7.27zm3.92-5v8.87H9.85V9.53zm1.71 8.87V9.53h1.17l2.47 4.38a28.9 28.9 0 0 1 1.45 2.95c-.09-1.25-.12-2.35-.12-3.77V9.53h1v8.87h-1.04L15.15 14a27.31 27.31 0 0 1-1.47-3c.08 1.14.09 2.22.09 3.81v3.59zm8.86-8.87v8.87h-1.1V9.53zm1.58 7.54a3.52 3.52 0 0 0 1.82.51c1.1 0 1.75-.61 1.75-1.51s-.47-1.3-1.53-1.78C24 13.79 23 13 23 11.79a2.46 2.46 0 0 1 2.72-2.38 3.54 3.54 0 0 1 1.74.39l-.29.92a3.06 3.06 0 0 0-1.5-.38 1.36 1.36 0 0 0-1.55 1.3c0 .84.51 1.24 1.62 1.74 1.38.64 2.05 1.39 2.05 2.6 0 1.41-1 2.53-2.92 2.53a4.14 4.14 0 0 1-2-.51zm7.5-6.59h-2.38v-.95h5.87v.95h-2.39v7.92h-1.1zm8.51 3.75h-3.07v3.24h3.45v.93H35V9.53h4.37v.93h-3.28v2.84h3.06zm1.61-4.58a10 10 0 0 1 2-.18 3.36 3.36 0 0 1 2.39.7 2.28 2.28 0 0 1 .67 1.7 2.35 2.35 0 0 1-1.6 2.28c.67.22 1.07.86 1.28 1.85a13 13 0 0 0 .63 2.38H45a12.54 12.54 0 0 1-.55-2.14c-.24-1.22-.7-1.68-1.67-1.71h-.88v3.87h-1.13zm1.11 4.05h.95a1.69 1.69 0 0 0 1.88-1.7c0-1.12-.71-1.66-1.88-1.66a4.67 4.67 0 0 0-.95.08zm6.44-4.17v8.87h-1.1V9.53zm8.45 4.35c0 3.12-1.63 4.64-3.64 4.64S49.6 16.78 49.6 14s1.53-4.6 3.66-4.6 3.51 1.79 3.51 4.48zm-6 .12c0 1.87.83 3.6 2.43 3.6s2.42-1.75 2.42-3.68c0-1.72-.74-3.6-2.42-3.6s-2.44 1.79-2.44 3.68zm9.72-4.35a11.22 11.22 0 0 1 2.1-.18 4.47 4.47 0 0 1 3.14 1A4.21 4.21 0 0 1 67 13.74a4.81 4.81 0 0 1-1.21 3.54 4.77 4.77 0 0 1-3.49 1.18 14.11 14.11 0 0 1-1.79-.09zm1.11 7.87a6.67 6.67 0 0 0 .92 0c2.05 0 3.3-1.2 3.3-3.78 0-2.13-1-3.43-3.14-3.43a5.27 5.27 0 0 0-1.08.11zm10.81-3.29h-3.07v3.24h3.45v.93h-4.55V9.53h4.36v.93h-3.26v2.84h3.06zm-60.2 14.02H8.94v2.1h3.64V32H6.93v-8.86h5.47v1.64H8.94v1.84h3.26zm1.18-5a17.91 17.91 0 0 1 2.71-.18 5.71 5.71 0 0 1 3.63.95 3.92 3.92 0 0 1 1.5 3.34 4.49 4.49 0 0 1-1.47 3.59 6.36 6.36 0 0 1-4.09 1.14 17.45 17.45 0 0 1-2.28-.09zm2 7.23a3.64 3.64 0 0 0 .7 0c1.82 0 3-1 3-3.1a2.54 2.54 0 0 0-2.79-2.81 4.2 4.2 0 0 0-.91.08zM24 23.14v5.1c0 1.53.58 2.3 1.6 2.3s1.63-.74 1.63-2.3v-5.1h2v5c0 2.74-1.38 4-3.7 4S22 30.91 22 28.08v-4.94zm12.89 8.61a5.71 5.71 0 0 1-2.28.38c-3.06 0-4.64-1.91-4.64-4.43a4.52 4.52 0 0 1 4.85-4.7 5.22 5.22 0 0 1 2.18.39L36.59 25a4.33 4.33 0 0 0-1.68-.33 2.67 2.67 0 0 0-2.83 2.93 2.65 2.65 0 0 0 2.84 2.89 5 5 0 0 0 1.67-.29zm2.82-2.02L39.08 32H37l2.71-8.87h2.63L45.09 32h-2.16l-.68-2.28zm2.29-1.5l-.55-1.88c-.16-.53-.32-1.18-.45-1.71-.13.53-.26 1.2-.41 1.71L40 28.23zm10.22 3.52a5.71 5.71 0 0 1-2.28.38c-3.06 0-4.64-1.91-4.64-4.43a4.52 4.52 0 0 1 4.84-4.7 5.22 5.22 0 0 1 2.18.39l-.4 1.61a4.33 4.33 0 0 0-1.68-.33 2.67 2.67 0 0 0-2.83 2.93 2.65 2.65 0 0 0 2.84 2.89 5 5 0 0 0 1.67-.29zM55 23.14V32h-2v-8.86zm9.27 4.34c0 2.91-1.76 4.67-4.35 4.67s-4.17-2-4.17-4.51S57.44 23 60.06 23s4.21 2 4.21 4.48zm-6.41.12c0 1.74.82 3 2.16 3s2.13-1.29 2.13-3-.76-3-2.14-3-2.15 1.27-2.15 3zm4.43-6.6l-1.6 1.62h-1.61L60.19 21zM65 32v-8.86h2.34l1.84 3.25a25.59 25.59 0 0 1 1.45 3 32.81 32.81 0 0 1-.17-3.7v-2.55h1.84V32h-2.1l-1.89-3.42a33 33 0 0 1-1.54-3.13c.05 1.17.08 2.42.08 3.87V32z"/></g></g></svg>